<?xml version="1.0" encoding="UTF-8" standalone="no"?>
<svg
   xmlns:dc="http://purl.org/dc/elements/1.1/"
   xmlns:cc="http://creativecommons.org/ns#"
   xmlns:rdf="http://www.w3.org/1999/02/22-rdf-syntax-ns#"
   xmlns:svg="http://www.w3.org/2000/svg"
   xmlns="http://www.w3.org/2000/svg"
   xmlns:xlink="http://www.w3.org/1999/xlink"
   xmlns:sodipodi="http://sodipodi.sourceforge.net/DTD/sodipodi-0.dtd"
   xmlns:inkscape="http://www.inkscape.org/namespaces/inkscape"
   id="Layer_1"
   data-name="Layer 1"
   viewBox="0 0 324.99999 320"
   version="1.1"
   sodipodi:docname="404.svg"
   width="325"
   height="320"
   inkscape:version="0.92.3 (2405546, 2018-03-11)">
  <metadata
     id="metadata75">
    <rdf:RDF>
      <cc:Work
         rdf:about="">
        <dc:format>image/svg+xml</dc:format>
        <dc:type
           rdf:resource="http://purl.org/dc/dcmitype/StillImage" />
        <dc:title>404 not found 2</dc:title>
      </cc:Work>
    </rdf:RDF>
  </metadata>
  <sodipodi:namedview
     pagecolor="#ffffff"
     bordercolor="#666666"
     borderopacity="1"
     objecttolerance="10"
     gridtolerance="10"
     guidetolerance="10"
     inkscape:pageopacity="0"
     inkscape:pageshadow="2"
     inkscape:window-width="1920"
     inkscape:window-height="1010"
     id="namedview73"
     showgrid="false"
     inkscape:zoom="0.77227659"
     inkscape:cx="30.777462"
     inkscape:cy="152.795"
     inkscape:window-x="0"
     inkscape:window-y="0"
     inkscape:window-maximized="1"
     inkscape:current-layer="Layer_1" />
  <defs
     id="defs14">
    <linearGradient
       id="linear-gradient"
       x1="156.72"
       y1="259"
       x2="159.63"
       y2="341.54001"
       gradientUnits="userSpaceOnUse">
      <stop
         offset="0"
         stop-opacity="0"
         id="stop2" />
      <stop
         offset="0.95"
         id="stop4" />
    </linearGradient>
    <linearGradient
       id="linear-gradient-2"
       x1="67.699997"
       y1="231.63"
       x2="64.790001"
       y2="116.55"
       gradientUnits="userSpaceOnUse">
      <stop
         offset="0"
         stop-opacity="0"
         id="stop7" />
      <stop
         offset="0.99"
         id="stop9" />
    </linearGradient>
    <linearGradient
       id="linear-gradient-3"
       x1="256"
       y1="215.77"
       x2="254.06"
       y2="143.58"
       xlink:href="#linear-gradient" />
    <linearGradient
       id="linear-gradient-4"
       x1="154.92999"
       y1="238.45"
       x2="159.46001"
       y2="81.769997"
       xlink:href="#linear-gradient-2"
       gradientTransform="translate(0,14.410004)" />
    <linearGradient
       inkscape:collect="always"
       xlink:href="#linear-gradient"
       id="linearGradient882"
       gradientUnits="userSpaceOnUse"
       x1="156.72"
       y1="259"
       x2="159.63"
       y2="341.54001"
       gradientTransform="translate(5.1794915,16.999749)" />
    <linearGradient
       inkscape:collect="always"
       xlink:href="#linear-gradient-2"
       id="linearGradient884"
       gradientUnits="userSpaceOnUse"
       x1="67.699997"
       y1="231.63"
       x2="64.790001"
       y2="116.55" />
  </defs>
  <title
     id="title16">404 not found 2</title>
  <g
     id="g913"
     transform="translate(6.4743643,-5.1794915)">
    <path
       inkscape:connector-curvature="0"
       id="path18"
       style="opacity:0.322;isolation:isolate;fill:#aa00d4"
       d="m 96.11,220.65 c 20.68,9.09 44.07,8.95 66.66,8.65 11.85,-0.15 24.11,-0.39 34.9,-5.3 15,-6.83 24.74,-21.49 37.9,-31.41 15.11,-11.41 34.45,-16.33 49.1,-28.32 a 63.39,63.39 0 0 0 1.63,-96.759996 c -7.75,-6.78 -17,-11.57 -26.17,-16.28 l -46.05,-23.7 c -10.79,-5.55 -21.86,-11.19 -33.9,-12.7 -10.16,-1.27 -20.44,0.49 -30.37,2.76 -28.3,6.4 -56.38,17.43 -77.14,37.62 -17.86,17.4 -29.52,40.77 -49.06,56.259996 -5,3.95 -10.54,7.44 -14.18,12.66 -13.1,18.81 0.17,42.84 17.19,52.48 23.57,13.34 44.78,33.19 69.49,44.04 z" />
    <ellipse
       style="fill:#00d4aa"
       id="ellipse20"
       ry="19.48"
       rx="157.67999"
       cy="300.51999"
       cx="157.67999" />
    <ellipse
       style="fill:url(#linearGradient882)"
       id="ellipse22"
       ry="19.48"
       rx="157.67999"
       cy="303.10974"
       cx="162.85948" />
    <path
       style="fill:#eea886"
       inkscape:connector-curvature="0"
       id="path24"
       d="m 71.3,110.21 a 26.4,26.4 0 0 0 -20.18,-4 7.65,7.65 0 0 0 -3.48,1.49 c -2.37,2 -2,5.72 -2.63,8.78 -0.77,3.77 -3.3,7 -4.21,10.72 a 24.15,24.15 0 0 0 -0.09,8.48 139.76,139.76 0 0 0 7.91,32.42 l -11,144.91 c 0,0 11.25,1.82 34.07,3.64 l 2.42,-138 z" />
    <polygon
       transform="translate(0,14.410004)"
       style="fill:url(#linearGradient884)"
       id="polygon26"
       points="73.36,154.25 66.88,134.99 58.79,180.31 73.36,239.23 " />
    <path
       style="fill:#eea886"
       inkscape:connector-curvature="0"
       id="path28"
       d="m 249.32,111.45 a 26.42,26.42 0 0 1 20.18,-3.92 7.8,7.8 0 0 1 3.49,1.49 c 2.36,2 2,5.72 2.62,8.79 0.78,3.77 3.31,7 4.22,10.72 a 23.86,23.86 0 0 1 0.08,8.47 139.12,139.12 0 0 1 -7.9,32.42 l 10.95,142.89 c 0,0 -12.25,2.06 -34.14,4.13 l -2.35,-136.48 z" />
    <polygon
       transform="translate(0,14.410004)"
       style="fill:url(#linear-gradient-3)"
       id="polygon30"
       points="247.52,226.6 246.55,174.48 263.7,176.1 258.53,202.65 " />
    <rect
       style="fill:#68e1fd"
       id="rect32"
       rx="8.3699999"
       height="133.37"
       width="211.71001"
       y="62.810005"
       x="52.639999" />
    <rect
       style="fill:url(#linear-gradient-4)"
       id="rect34"
       rx="8.3699999"
       height="133.37"
       width="211.71001"
       y="62.810005"
       x="52.639999" />
    <rect
       style="fill:#ff0000"
       id="rect36"
       rx="8.3699999"
       height="133.37"
       width="211.71001"
       y="57.460003"
       x="52.639999" />
    <path
       style="fill:#ffffff"
       inkscape:connector-curvature="0"
       id="path38"
       d="m 71.39,113.06 c 3.37,-3.74 3.37,-3.74 7.18,-8.22 L 94.8,85.840004 a 75.55,75.55 0 0 0 7,-8.9 h 15.33 a 109.89,109.89 0 0 0 -0.59,12.41 V 113.66 h 2.17 a 52,52 0 0 0 7.4,-0.6 v 13.62 a 59.12,59.12 0 0 0 -7.33,-0.45 h -2.24 v 3.74 a 53.39,53.39 0 0 0 0.59,9.2 h -15.4 a 66.1,66.1 0 0 0 0.59,-9.35 v -3.61 h -21.2 c -4.87,0 -7,0.07 -9.73,0.29 z m 31,-7.92 c 0,-3.37 0.15,-7.479996 0.45,-10.769996 -1.5,2.09 -2.62,3.59 -4.64,6.129996 l -10.95,13.31 h 15.11 z" />
    <path
       style="fill:#ffffff"
       inkscape:connector-curvature="0"
       id="path40"
       d="m 138.48,133.56 a 23.66,23.66 0 0 1 -5.46,-8.3 49.74,49.74 0 0 1 -2.92,-17.13 c 0,-7.86 1.87,-15.999996 4.72,-20.719996 4.56,-7.63 12.34,-11.82 21.76,-11.82 7.26,0 13.62,2.47 18.18,7 a 23.53,23.53 0 0 1 5.46,8.3 49.62,49.62 0 0 1 2.92,17.199996 c 0,7.86 -1.87,16.09 -4.71,20.8 -4.49,7.48 -12.35,11.67 -21.85,11.67 -7.33,-0.04 -13.53,-2.44 -18.1,-7 z m 7,-26 c 0,13.39 3.81,20.27 11.22,20.27 7.41,0 11.07,-6.73 11.07,-20 -0.04,-12.869996 -3.96,-19.619996 -11.19,-19.619996 -7.03,0 -11.14,7.13 -11.14,19.319996 z" />
    <path
       style="fill:#ffffff"
       inkscape:connector-curvature="0"
       id="path42"
       d="m 187.02,113.06 c 3.37,-3.74 3.37,-3.74 7.18,-8.22 l 16.24,-18.999996 a 75.28,75.28 0 0 0 6.95,-8.9 h 15.34 a 107.51,107.51 0 0 0 -0.6,12.41 V 113.66 h 2.17 a 52,52 0 0 0 7.4,-0.6 v 13.62 a 59.12,59.12 0 0 0 -7.33,-0.45 h -2.24 v 3.74 a 52.27,52.27 0 0 0 0.6,9.2 h -15.41 a 65.93,65.93 0 0 0 0.6,-9.35 v -3.61 h -21.17 c -4.86,0 -7,0.07 -9.73,0.29 z m 31,-7.92 c 0,-3.37 0.15,-7.479996 0.45,-10.769996 -1.5,2.09 -2.62,3.59 -4.64,6.129996 l -10.95,13.31 h 15.11 z" />
    <path
       style="fill:#ffffff"
       inkscape:connector-curvature="0"
       id="path44"
       d="m 72.11,161.08 a 22.9,22.9 0 0 1 3.81,-0.3 6.33,6.33 0 0 1 4.32,1.28 4.16,4.16 0 0 1 1.35,3.22 4.51,4.51 0 0 1 -1.19,3.29 6.37,6.37 0 0 1 -4.71,1.69 6.44,6.44 0 0 1 -1.59,-0.14 v 6.17 h -2 z m 2,7.42 a 6.35,6.35 0 0 0 1.64,0.16 c 2.4,0 3.86,-1.16 3.86,-3.29 0,-2.13 -1.44,-3 -3.63,-3 a 8.36,8.36 0 0 0 -1.87,0.16 z" />
    <path
       style="fill:#ffffff"
       inkscape:connector-curvature="0"
       id="path46"
       d="m 84.81,171.45 -1.6,4.84 h -2 l 5.22,-15.39 h 2.38 l 5.25,15.39 h -2.12 l -1.64,-4.84 z m 5,-1.55 -1.51,-4.43 c -0.34,-1 -0.57,-1.92 -0.8,-2.81 v 0 c -0.22,0.91 -0.48,1.85 -0.77,2.78 l -1.51,4.46 z" />
    <path
       style="fill:#ffffff"
       inkscape:connector-curvature="0"
       id="path48"
       d="m 107.69,175.6 a 14.31,14.31 0 0 1 -4.73,0.85 7.23,7.23 0 0 1 -7.9,-7.77 c 0,-4.59 3.17,-7.94 8.33,-7.94 a 9.48,9.48 0 0 1 3.84,0.71 l -0.48,1.62 a 7.9,7.9 0 0 0 -3.4,-0.66 c -3.75,0 -6.19,2.33 -6.19,6.18 0,3.85 2.35,6.22 5.94,6.22 a 6.44,6.44 0 0 0 2.65,-0.42 v -4.58 h -3.13 v -1.6 h 5.07 z" />
    <path
       style="fill:#ffffff"
       inkscape:connector-curvature="0"
       id="path50"
       d="m 118.69,169.07 h -6 v 5.55 h 6.67 v 1.67 H 110.7 V 160.9 h 8.32 v 1.67 h -6.31 v 4.86 h 6 z" />
    <path
       style="fill:#ffffff"
       inkscape:connector-curvature="0"
       id="path52"
       d="M 126.81,176.29 V 160.9 h 2.17 l 4.93,7.78 a 45.68,45.68 0 0 1 2.77,5 v 0 c -0.18,-2 -0.23,-3.92 -0.23,-6.32 v -6.44 h 1.88 v 15.39 h -2 l -4.89,-7.81 a 49.59,49.59 0 0 1 -2.88,-5.14 h -0.07 c 0.12,1.95 0.16,3.8 0.16,6.35 v 6.58 z" />
    <path
       style="fill:#ffffff"
       inkscape:connector-curvature="0"
       id="path54"
       d="m 154.98,168.43 c 0,5.3 -3.22,8.11 -7.15,8.11 -3.93,0 -6.92,-3.15 -6.92,-7.81 0,-4.89 3,-8.08 7.15,-8.08 4.15,0 6.92,3.22 6.92,7.78 z m -11.94,0.25 c 0,3.29 1.78,6.24 4.91,6.24 3.13,0 4.93,-2.9 4.93,-6.4 0,-3.05 -1.6,-6.25 -4.91,-6.25 -3.31,0 -4.93,3.04 -4.93,6.41 z" />
    <path
       style="fill:#ffffff"
       inkscape:connector-curvature="0"
       id="path56"
       d="m 159.91,162.59 h -4.68 v -1.69 h 11.4 v 1.69 h -4.71 v 13.7 h -2 z" />
    <path
       style="fill:#ffffff"
       inkscape:connector-curvature="0"
       id="path58"
       d="m 173.18,160.9 h 8.29 v 1.67 h -6.3 v 5.11 h 5.82 v 1.64 h -5.82 v 7 h -2 z" />
    <path
       style="fill:#ffffff"
       inkscape:connector-curvature="0"
       id="path60"
       d="m 197.45,168.43 c 0,5.3 -3.22,8.11 -7.14,8.11 -4.07,0 -6.92,-3.15 -6.92,-7.81 0,-4.89 3,-8.08 7.14,-8.08 4.14,0 6.92,3.22 6.92,7.78 z m -11.94,0.25 c 0,3.29 1.78,6.24 4.91,6.24 3.13,0 4.93,-2.9 4.93,-6.4 0,-3.05 -1.6,-6.25 -4.91,-6.25 -3.31,0 -4.93,3.04 -4.93,6.41 z" />
    <path
       style="fill:#ffffff"
       inkscape:connector-curvature="0"
       id="path62"
       d="m 202.02,160.9 v 9.11 c 0,3.45 1.53,4.91 3.59,4.91 2.28,0 3.74,-1.51 3.74,-4.91 v -9.11 h 2 v 9 c 0,4.73 -2.49,6.67 -5.82,6.67 -3.15,0 -5.53,-1.8 -5.53,-6.58 v -9.06 z" />
    <path
       style="fill:#ffffff"
       inkscape:connector-curvature="0"
       id="path64"
       d="M 214.81,176.29 V 160.9 h 2.17 l 4.93,7.78 a 43.88,43.88 0 0 1 2.76,5 h 0.05 c -0.18,-2 -0.23,-3.92 -0.23,-6.32 v -6.44 h 1.87 v 15.39 h -2 l -4.88,-7.81 a 47.8,47.8 0 0 1 -2.88,-5.14 h -0.07 c 0.11,1.95 0.16,3.8 0.16,6.35 v 6.58 z" />
    <path
       style="fill:#ffffff"
       inkscape:connector-curvature="0"
       id="path66"
       d="m 229.81,161.1 a 28.85,28.85 0 0 1 4.23,-0.32 c 2.85,0 4.89,0.67 6.23,1.92 a 7.1,7.1 0 0 1 2.17,5.53 8.12,8.12 0 0 1 -2.21,6 c -1.44,1.44 -3.82,2.22 -6.81,2.22 a 30.75,30.75 0 0 1 -3.61,-0.24 z m 2,13.61 a 11.5,11.5 0 0 0 2,0.12 c 4.25,0 6.55,-2.38 6.55,-6.53 0,-3.63 -2,-5.94 -6.23,-5.94 a 10.79,10.79 0 0 0 -2.33,0.21 z" />
    <path
       style="fill:#eea886"
       inkscape:connector-curvature="0"
       id="path68"
       d="m 61.61,108.46 a 5.48,5.48 0 0 1 2.12,1.87 6.69,6.69 0 0 1 0.63,3 l 0.3,6.45 a 6.53,6.53 0 0 1 -0.37,3.14 2.27,2.27 0 0 1 -2.58,1.36 9.69,9.69 0 0 1 -0.83,7.59 6.06,6.06 0 0 0 -0.75,1.56 5.79,5.79 0 0 0 0.1,2 11.49,11.49 0 0 1 -2.67,9.09 4.07,4.07 0 0 1 -1.18,1 5,5 0 0 1 -1.88,0.4 l -2.94,0.25 a 1,1 0 0 1 -1.31,-0.89 65.62,65.62 0 0 1 -3,-21.91 63,63 0 0 1 1.34,-11.12 c 0.47,-2.14 1.39,-5.4 3.68,-6.27 2.96,-1.04 6.78,1.01 9.34,2.48 z" />
    <path
       style="fill:#eea886"
       inkscape:connector-curvature="0"
       id="path70"
       d="m 254.73,108.46 a 5.48,5.48 0 0 0 -2.12,1.87 6.69,6.69 0 0 0 -0.63,3 l -0.3,6.45 a 6.53,6.53 0 0 0 0.37,3.14 2.27,2.27 0 0 0 2.58,1.36 9.73,9.73 0 0 0 0.82,7.59 5.78,5.78 0 0 1 0.76,1.56 5.57,5.57 0 0 1 -0.11,2 11.54,11.54 0 0 0 2.68,9.09 4.07,4.07 0 0 0 1.18,1 5,5 0 0 0 1.88,0.4 l 2.97,0.29 a 1,1 0 0 0 1.31,-0.89 65.62,65.62 0 0 0 3,-21.91 62.11,62.11 0 0 0 -1.35,-11.12 c -0.46,-2.14 -1,-4.82 -3.27,-5.69 -2.99,-1.09 -7.21,0.39 -9.77,1.86 z" />
  </g>
</svg>
