<?xml version="1.0" encoding="UTF-8" standalone="no"?>
<svg
   xmlns:dc="http://purl.org/dc/elements/1.1/"
   xmlns:cc="http://creativecommons.org/ns#"
   xmlns:rdf="http://www.w3.org/1999/02/22-rdf-syntax-ns#"
   xmlns:svg="http://www.w3.org/2000/svg"
   xmlns="http://www.w3.org/2000/svg"
   xmlns:xlink="http://www.w3.org/1999/xlink"
   xmlns:sodipodi="http://sodipodi.sourceforge.net/DTD/sodipodi-0.dtd"
   xmlns:inkscape="http://www.inkscape.org/namespaces/inkscape"
   id="Layer_1"
   data-name="Layer 1"
   viewBox="0 0 399.99999 369.99999"
   version="1.1"
   sodipodi:docname="ai.svg"
   width="400"
   height="370"
   inkscape:version="0.92.3 (2405546, 2018-03-11)">
  <metadata
     id="metadata139">
    <rdf:RDF>
      <cc:Work
         rdf:about="">
        <dc:format>image/svg+xml</dc:format>
        <dc:type
           rdf:resource="http://purl.org/dc/dcmitype/StillImage" />
        <dc:title>Artificial Intelligence</dc:title>
      </cc:Work>
    </rdf:RDF>
  </metadata>
  <sodipodi:namedview
     pagecolor="#ffffff"
     bordercolor="#666666"
     borderopacity="1"
     objecttolerance="10"
     gridtolerance="10"
     guidetolerance="10"
     inkscape:pageopacity="0"
     inkscape:pageshadow="2"
     inkscape:window-width="1920"
     inkscape:window-height="1010"
     id="namedview137"
     showgrid="false"
     inkscape:zoom="2.1447368"
     inkscape:cx="200"
     inkscape:cy="190"
     inkscape:window-x="0"
     inkscape:window-y="0"
     inkscape:window-maximized="1"
     inkscape:current-layer="Layer_1" />
  <defs
     id="defs28">
    <linearGradient
       inkscape:collect="always"
       id="linearGradient899">
      <stop
         style="stop-color:#ffd42a;stop-opacity:1;"
         offset="0"
         id="stop895" />
      <stop
         style="stop-color:#ffd42a;stop-opacity:0;"
         offset="1"
         id="stop897" />
    </linearGradient>
    <linearGradient
       inkscape:collect="always"
       id="linearGradient4775">
      <stop
         style="stop-color:#27585d;stop-opacity:1;"
         offset="0"
         id="stop4771" />
      <stop
         style="stop-color:#27585d;stop-opacity:0;"
         offset="1"
         id="stop4773" />
    </linearGradient>
    <linearGradient
       id="linear-gradient"
       x1="313.04999"
       y1="330.35001"
       x2="335.38"
       y2="330.35001"
       gradientUnits="userSpaceOnUse">
      <stop
         offset="0"
         stop-opacity="0"
         id="stop2" />
      <stop
         offset="0.99"
         id="stop4" />
    </linearGradient>
    <linearGradient
       id="linear-gradient-2"
       x1="338.20999"
       y1="330.35001"
       x2="360.54001"
       y2="330.35001"
       xlink:href="#linear-gradient"
       gradientTransform="matrix(0.88329367,0,0,0.88329367,24.684597,-12.419291)" />
    <linearGradient
       id="linear-gradient-3"
       x1="343.75"
       y1="349.97"
       x2="328.22"
       y2="166.02"
       gradientUnits="userSpaceOnUse">
      <stop
         offset="0.02"
         stop-color="#fff"
         stop-opacity="0"
         id="stop8" />
      <stop
         offset="0.58"
         stop-color="#fff"
         stop-opacity="0.39"
         id="stop10" />
      <stop
         offset="0.68"
         stop-color="#fff"
         stop-opacity="0.68"
         id="stop12" />
      <stop
         offset="1"
         stop-color="#fff"
         id="stop14" />
    </linearGradient>
    <linearGradient
       id="linear-gradient-4"
       x1="335.34"
       y1="185.59"
       x2="310.26999"
       y2="159.16"
       xlink:href="#linear-gradient-3"
       gradientTransform="matrix(0.88329367,0,0,0.88329367,24.684597,-2.419291)" />
    <linearGradient
       id="linear-gradient-5"
       x1="341.42001"
       y1="110.43"
       x2="328.47"
       y2="111.52"
       gradientUnits="userSpaceOnUse">
      <stop
         offset="0"
         stop-color="#e5c5d5"
         id="stop18" />
      <stop
         offset="0.42"
         stop-color="#ead4d1"
         id="stop20" />
      <stop
         offset="1"
         stop-color="#f0e9cb"
         id="stop22" />
    </linearGradient>
    <linearGradient
       id="linear-gradient-6"
       x1="305.92001"
       y1="223.85001"
       x2="316.41"
       y2="223.85001"
       xlink:href="#linear-gradient-3"
       gradientTransform="matrix(0.88329367,0,0,0.88329367,24.684597,-12.419291)" />
    <linearGradient
       id="linear-gradient-7"
       x1="290.45999"
       y1="162.64999"
       x2="284.87"
       y2="155.57001"
       xlink:href="#linear-gradient-5"
       gradientTransform="matrix(0.88329367,0,0,0.88329367,24.684597,-12.419291)" />
    <linearGradient
       id="linear-gradient-8"
       x1="27.799999"
       y1="213.11"
       x2="170.97"
       y2="213.11"
       xlink:href="#linear-gradient-3"
       gradientTransform="matrix(0.88329367,0,0,0.88329367,28.200106,45.471779)" />
    <linearGradient
       inkscape:collect="always"
       xlink:href="#linear-gradient"
       id="linearGradient3844"
       gradientUnits="userSpaceOnUse"
       x1="313.04999"
       y1="330.35001"
       x2="335.38"
       y2="330.35001"
       gradientTransform="matrix(0.88329367,0,0,0.88329367,24.684597,-12.419291)" />
    <linearGradient
       inkscape:collect="always"
       xlink:href="#linear-gradient-5"
       id="linearGradient3848"
       gradientUnits="userSpaceOnUse"
       x1="341.42001"
       y1="110.43"
       x2="328.47"
       y2="111.52"
       gradientTransform="matrix(0.88329367,0,0,0.88329367,24.684597,-12.419291)" />
    <linearGradient
       inkscape:collect="always"
       xlink:href="#linearGradient4775"
       id="linearGradient4779"
       x1="142.64847"
       y1="271.3598"
       x2="160.14749"
       y2="75.862488"
       gradientUnits="userSpaceOnUse"
       gradientTransform="translate(0,-30)" />
    <linearGradient
       inkscape:collect="always"
       xlink:href="#linearGradient899"
       id="linearGradient901"
       x1="168.18617"
       y1="251.0714"
       x2="158.84807"
       y2="80.354156"
       gradientUnits="userSpaceOnUse"
       gradientTransform="translate(0,-10)" />
  </defs>
  <title
     id="title30">Artificial Intelligence</title>
  <g
     inkscape:groupmode="layer"
     id="layer2"
     inkscape:label="Layer 2"
     transform="translate(0,-30)">
    <path
       inkscape:connector-curvature="0"
       style="opacity:0.681;fill:#aad400;stroke-width:0.61233729"
       d="M 57.287456,83.934863 C 74.83658,58.146465 104.07,39.570626 135.22688,38.981935 c 28.34426,-0.508952 54.86353,13.213317 82.78978,18.204245 27.25867,4.887052 55.51145,1.379227 82.72541,6.531844 27.21396,5.152624 55.46008,22.840245 59.35935,50.317986 2.85458,20.13589 -7.58563,42.88078 3.55777,59.87289 3.52676,5.31926 8.75932,9.27218 12.77044,14.23621 16.27421,20.15885 7.56181,51.34023 -9.37698,70.94267 -16.93879,19.60244 -40.41623,32.43696 -58.48871,50.97224 -15.92339,16.32576 -27.288,36.68731 -42.95319,53.29249 -15.66518,16.60519 -38.17856,29.70494 -60.49311,25.0238 -16.87104,-3.53896 -30.23473,-16.44637 -46.31358,-22.614 C 125.08346,352.8123 78.560067,367.9061 56.971842,338.92272 41.32303,317.8829 51.170841,288.21768 48.423176,262.14013 44.998235,229.883 25.226211,204.0811 29.639315,171.11752 33.503037,142.01479 40.471997,108.63555 57.287456,83.934863 Z"
       id="path46-3" />
  </g>
  <path
     d="m 269.95758,45.471779 -2.2259,6.58937 h -13.39073 a 17.215394,17.215394 0 0 0 -17.21539,17.224227 v 72.430084 l -30.03199,88.02021 c 1.13945,4.01899 -23.18646,12.06579 -64.48043,11.62415 C 82.44317,240.73268 80.614752,229.73567 80.614752,229.73567 L 28.217772,46.876216 Z"
     style="opacity:0.18000004;isolation:isolate;fill:url(#linearGradient4779);fill-opacity:1;stroke-width:0.88329369"
     id="path32"
     inkscape:connector-curvature="0" />
  <path
     d="M 192.08641,233.71049 232.64726,46.55823 H 66.075739 l 32.734863,187.7529 c 0,0 -17.056401,10.38754 43.113568,11.02351 41.27631,0.43281 51.31053,-7.60516 50.16224,-11.62415 z"
     style="opacity:0.18000004;isolation:isolate;fill:url(#linearGradient901);fill-opacity:1;stroke-width:0.88329369"
     id="path34"
     inkscape:connector-curvature="0" />
  <path
     d="m 254.52644,272.32809 c -3.05619,-0.21199 -6.68653,-0.94512 -7.81715,-3.76283 -0.82146,-2.04924 0.0883,-4.41647 -0.25615,-6.5717 -0.71547,-4.62846 -6.28022,-6.56288 -10.90868,-7.57866 l -19.69745,-4.29281 c -2.04041,-0.45048 -4.23097,-0.98046 -5.59125,-2.55272 -0.96279,-1.12178 -1.35143,-2.64988 -2.0934,-3.90416 -3.0827,-5.34392 -10.71435,-5.40575 -16.91508,-4.86695 a 733.64606,733.64606 0 0 1 -104.732126,1.58993 c -10.493529,-0.5918 -21.525867,-1.3161 -31.012441,3.15336 a 5.3880914,5.3880914 0 0 0 -2.835372,2.36723 c -0.759633,1.68709 0.238489,3.61267 1.289608,5.14077 8.885935,12.87842 23.893094,20.6514 39.288903,24.09625 15.395808,3.44484 31.374588,3.03853 47.159048,2.64988 l 60.21413,-1.61643 c 2.38489,-0.0707 5.06127,0 6.73953,1.65176 1.67826,1.65176 1.67826,4.56663 2.78238,6.77486 1.53693,3.0827 5.0966,4.5843 8.43545,5.58242 12.88726,3.85116 26.57831,4.00132 40.04854,4.12498 33.68882,0.30915 67.4218,0.60947 101.04879,-1.58109 4.99944,-0.32682 11.29733,-1.82842 12.04813,-6.72187 0.45931,-3.01203 -1.76659,-5.9269 -4.4783,-7.33134 -2.71171,-1.40443 -5.9269,-1.62526 -9.0096,-1.81958 l -55.58567,-3.48901 c -7.06635,-0.44165 -14.20336,-1.96091 -21.14605,-2.11991 -8.99193,-0.24732 -17.84253,1.71359 -26.97579,1.07762 z"
     style="opacity:0.18000004;isolation:isolate;fill:#27585d;stroke-width:0.88329369"
     id="path36"
     inkscape:connector-curvature="0" />
  <path
     d="m 320.89713,281.98249 a 1.4751004,1.4751004 0 0 1 -0.0972,0.8833 1.4927663,1.4927663 0 0 1 -1.12179,0.52114 82.358302,82.358302 0 0 1 -18.4785,0.46814 26.49881,26.49881 0 0 1 10.10488,-4.16031 1.8284179,1.8284179 0 0 0 2.06691,-1.84608 13.090412,13.090412 0 0 1 0.6978,-2.72055 1.0069548,1.0069548 0 0 1 0.35332,-0.52997 1.0952842,1.0952842 0 0 1 0.58297,-0.0795 l 3.19752,0.16783 c 1.27195,0.0795 1.32494,0 1.64293,1.26311 a 42.804411,42.804411 0 0 1 1.05112,6.03289 z"
     id="path38"
     inkscape:connector-curvature="0"
     style="fill:#3e3e54;stroke-width:0.88329369" />
  <path
     d="m 343.1208,281.98249 a 1.4132699,1.4132699 0 0 1 -0.106,0.8833 1.4927663,1.4927663 0 0 1 -1.12178,0.52114 82.278805,82.278805 0 0 1 -18.46967,0.46814 26.49881,26.49881 0 0 1 10.10488,-4.16031 2.4908881,2.4908881 0 0 0 1.81075,-0.88329 2.649881,2.649881 0 0 0 0.25616,-0.95396 12.560436,12.560436 0 0 1 0.6978,-2.72054 0.9627901,0.9627901 0 0 1 0.35332,-0.52998 1.0511195,1.0511195 0 0 1 0.57414,-0.0795 l 3.19752,0.16783 c 1.28078,0.0795 1.32494,0 1.65176,1.26311 a 44.164684,44.164684 0 0 1 1.05112,6.02406 z"
     id="path40"
     inkscape:connector-curvature="0"
     style="fill:#3e3e54;stroke-width:0.88329369" />
  <path
     d="m 320.89713,281.98249 a 1.4751004,1.4751004 0 0 1 -0.0972,0.8833 1.4927663,1.4927663 0 0 1 -1.12179,0.52114 82.358302,82.358302 0 0 1 -18.4785,0.46814 26.49881,26.49881 0 0 1 10.10488,-4.16031 1.8284179,1.8284179 0 0 0 2.06691,-1.84608 13.090412,13.090412 0 0 1 0.6978,-2.72055 1.0069548,1.0069548 0 0 1 0.35332,-0.52997 1.0952842,1.0952842 0 0 1 0.58297,-0.0795 l 3.19752,0.16783 c 1.27195,0.0795 1.32494,0 1.64293,1.26311 a 42.804411,42.804411 0 0 1 1.05112,6.03289 z"
     id="path42"
     inkscape:connector-curvature="0"
     style="fill:url(#linearGradient3844);stroke-width:0.88329369" />
  <path
     d="m 343.1208,281.98249 a 1.4132699,1.4132699 0 0 1 -0.106,0.8833 1.4927663,1.4927663 0 0 1 -1.12178,0.52114 82.278805,82.278805 0 0 1 -18.46967,0.46814 26.49881,26.49881 0 0 1 10.10488,-4.16031 2.4908881,2.4908881 0 0 0 1.81075,-0.88329 2.649881,2.649881 0 0 0 0.25616,-0.95396 12.560436,12.560436 0 0 1 0.6978,-2.72054 0.9627901,0.9627901 0 0 1 0.35332,-0.52998 1.0511195,1.0511195 0 0 1 0.57414,-0.0795 l 3.19752,0.16783 c 1.28078,0.0795 1.32494,0 1.65176,1.26311 a 44.164684,44.164684 0 0 1 1.05112,6.02406 z"
     id="path44"
     inkscape:connector-curvature="0"
     style="fill:url(#linear-gradient-2);stroke-width:0.88329369" />
  <path
     d="m 299.79524,173.89385 7.47267,102.52389 14.96299,-0.16782 -1.28961,-73.31338 10.02539,72.90706 12.62226,0.11483 -0.47697,-109.52842 c 0,0 -13.91188,-25.78334 -43.31673,7.46384 z"
     id="path46"
     inkscape:connector-curvature="0"
     style="fill:#535d6c;stroke-width:0.88329369" />
  <path
     d="M 348.41031,69.241211 V 144.489 a 17.224227,17.224227 0 0 1 -17.22423,17.21539 H 239.4207 A 17.215394,17.215394 0 0 1 222.20531,144.489 V 69.241211 A 17.215394,17.215394 0 0 1 239.4207,52.061149 h 91.76538 a 17.23306,17.23306 0 0 1 17.22423,17.180062 z"
     style="opacity:0.18000004;isolation:isolate;fill:#27585d;stroke-width:0.88329369"
     id="path48"
     inkscape:connector-curvature="0" />
  <path
     d="m 261.10698,102.17923 c 1.29844,9.04493 4.28398,17.76304 7.25184,26.41048 2.3584,6.85436 4.92878,14.04437 10.4052,18.79649 2.69405,2.34956 6.18306,4.28398 7.15468,7.72882 0.56531,2.06691 0.053,4.26631 -0.45048,6.35088 l 18.36368,-0.41514 a 3.2593536,3.2593536 0 0 0 1.66942,-0.32682 3.0031985,3.0031985 0 0 0 1.11295,-1.69593 c 1.4221,-4.05432 1.33377,-8.45312 1.5546,-12.74592 0.52997,-10.59953 3.27702,-21.51704 10.45819,-29.29002 a 10.599524,10.599524 0 0 0 2.37606,-3.17986 9.0979248,9.0979248 0 0 0 0.33566,-3.754 q -0.8303,-17.46271 -0.37099,-34.9431 a 5.299762,5.299762 0 0 0 -0.21199,-2.0404 5.1142703,5.1142703 0 0 0 -0.95395,-1.38678 l -5.29977,-6.183051 a 4.2044779,4.2044779 0 0 0 -1.08645,-1.006955 c -1.21011,-0.706635 -2.74704,-0.132494 -4.02782,0.45048 -2.34073,1.068785 -4.85811,2.305397 -5.97106,4.619626 a 11.094168,11.094168 0 0 0 -0.78613,4.5048 l -0.39749,11.67714 c -0.13249,3.7275 -0.0795,7.90548 2.56156,10.52886 1.17478,1.14828 2.78237,1.91675 3.53317,3.37418 a 6.554039,6.554039 0 0 1 0.37982,3.69217 29.616837,29.616837 0 0 1 -1.4751,6.48338 58.615368,58.615368 0 0 1 -2.73821,6.30671 l -10.59953,22.08234 c -0.25615,0.51231 -0.66247,1.12179 -1.22778,1.01579 a 1.3249405,1.3249405 0 0 1 -0.76846,-0.65364 c -7.20768,-10.59952 -11.13833,-23.32778 -19.29114,-33.23834 -1.27194,-1.54576 -3.04736,-3.6745 -5.0436,-4.3193 -2.21707,-0.74197 -4.21331,0.50348 -6.45688,1.15711 z"
     style="opacity:0.18000004;isolation:isolate;fill:#27585d;stroke-width:0.88329369"
     id="path50"
     inkscape:connector-curvature="0" />
  <path
     d="m 272.43081,118.37884 c -1.90792,-5.23793 -4.65496,-12.12762 -6.56288,-17.36556 -0.48581,-1.32494 -0.97162,-2.64988 -1.54576,-3.93949 6.45688,-0.88329 12.58693,-2.07574 19.08798,-2.50855 a 1.4486016,1.4486016 0 0 1 1.83725,1.28078 l 9.19508,28.1594 -5.21143,16.99457 z"
     id="path52"
     inkscape:connector-curvature="0"
     style="fill:#ffffff;stroke-width:0.88329369" />
  <path
     d="m 322.62839,214.8875 c 7.56099,0 15.01599,-1.01578 22.03817,-3.78933 a 5.9710652,5.9710652 0 0 0 2.3319,-1.3956 c 1.12178,-1.24544 1.07762,-3.12686 0.96279,-4.79628 -1.72243,-25.48303 -5.16727,-50.87772 -5.24677,-76.41374 0,-4.71679 0.0795,-9.48657 -0.98929,-14.0797 -1.06878,-4.59313 -3.47134,-9.07143 -7.45499,-11.59765 -4.33698,-2.75587 -9.82223,-2.80004 -14.94533,-2.42022 -4.76096,0.36215 -9.71623,1.09528 -13.64689,3.78933 -9.0096,6.18305 -5.13194,22.49749 -5.53825,31.79857 a 380.00177,380.00177 0 0 1 -4.5048,41.47064 c -1.20128,7.73765 -2.51739,15.45764 -3.807,23.17762 -0.6713,4.00133 -0.88329,9.0096 2.53506,11.14717 a 10.378701,10.378701 0 0 0 4.20448,1.16595 c 5.93573,0.76846 11.88913,1.51043 17.86903,1.82842 1.49276,0.0795 2.98553,0.13249 4.4783,0.15016 1.83725,0 1.76658,-0.32682 2.56155,-1.96092 q 1.99624,-4.2663 3.98365,-8.54145 0.45048,5.29977 0.61831,10.71436"
     id="path54"
     inkscape:connector-curvature="0"
     style="fill:#27585d;stroke-width:0.88329369" />
  <path
     d="m 322.63722,214.71968 c 7.56982,0 15.01599,-1.01579 22.08234,-3.79816 a 5.9357335,5.9357335 0 0 0 2.32306,-1.39561 c 1.12179,-1.24544 1.08645,-3.11802 0.97163,-4.79628 -1.72243,-25.48302 -5.16727,-50.87772 -5.24677,-76.41374 0,-4.71679 0.0795,-9.48657 -0.98929,-14.07087 -1.06878,-4.58429 -3.48018,-9.08026 -7.455,-11.59764 -4.33697,-2.75588 -9.82222,-2.80888 -14.95416,-2.42023 -4.76095,0.36215 -9.71623,1.09529 -13.63805,3.7805 -9.0096,6.13889 -5.13194,22.49749 -5.53825,31.79857 a 380.01944,380.01944 0 0 1 -4.51363,41.47064 c -1.19245,7.73765 -2.50856,15.45764 -3.807,23.18646 -0.66247,4.00132 -0.88329,9.00076 2.54389,11.13833 a 10.237374,10.237374 0 0 0 4.19564,1.16595 c 5.94457,0.76847 11.88913,1.51043 17.87786,1.82842 1.49277,0.0795 2.98554,0.13249 4.4783,0.15016 1.83725,0 1.76659,-0.31799 2.56155,-1.95208 q 1.98742,-4.28398 3.98366,-8.55028 0.45048,5.35276 0.60947,10.71435"
     id="path56"
     inkscape:connector-curvature="0"
     style="fill:#ffcc00;stroke-width:0.88329369" />
  <path
     d="m 305.43949,138.88008 c -0.98046,2.74705 -1.96091,5.49409 -3.20636,8.12631 a 7.8789795,7.8789795 0 0 1 -2.72937,3.53317 5.6972442,5.6972442 0 0 1 -2.64988,0.74197 c -3.39185,0.18549 -6.58054,-1.59876 -9.27459,-3.65684 a 40.631509,40.631509 0 0 1 -10.44053,-11.8538 3.8864921,3.8864921 0 0 1 -0.6183,-1.5546 4.2751414,4.2751414 0 0 1 1.06878,-2.75587 l 3.85116,-5.52942 a 42.512924,42.512924 0 0 0 8.62978,8.35596 1.2189453,1.2189453 0 0 0 1.01579,0.32682 c 0.37098,-0.11483 0.53881,-0.53881 0.65364,-0.8833 l 4.66379,-15.21915 c 1.4751,-4.77862 3.31235,-10.03421 7.71115,-12.41911 a 4.0631509,4.0631509 0 0 1 1.76659,-0.55647 4.1426473,4.1426473 0 0 1 2.88837,1.48393 c 3.81583,3.90416 3.63917,9.08026 2.43789,13.95604 a 187.81473,187.81473 0 0 1 -5.76791,17.90436 z"
     id="path58"
     inkscape:connector-curvature="0"
     style="fill:#27585d;stroke-width:0.88329369" />
  <path
     d="m 305.41299,138.67693 c -0.98045,2.74704 -1.96091,5.49408 -3.20635,8.1263 a 7.8789795,7.8789795 0 0 1 -2.72938,3.53317 5.8209053,5.8209053 0 0 1 -2.69405,0.7508 c -3.38301,0.17666 -6.5717,-1.60759 -9.26575,-3.66567 a 40.534347,40.534347 0 0 1 -10.44053,-11.8538 4.0543179,4.0543179 0 0 1 -0.62714,-1.54576 4.2839743,4.2839743 0 0 1 1.07762,-2.76471 l 3.85116,-5.52059 a 42.027113,42.027113 0 0 0 8.62978,8.34713 1.1836135,1.1836135 0 0 0 1.00695,0.32682 c 0.37982,-0.11483 0.54765,-0.53881 0.66247,-0.8833 l 4.6638,-15.21915 c 1.46626,-4.78745 3.30351,-10.04304 7.71115,-12.4191 a 3.8423275,3.8423275 0 0 1 1.76659,-0.55648 4.0984826,4.0984826 0 0 1 2.88837,1.4751 c 3.81583,3.90416 3.63917,9.08026 2.42905,13.95604 a 186.96677,186.96677 0 0 1 -5.72374,17.9132 z"
     id="path60"
     inkscape:connector-curvature="0"
     style="fill:#ffcc00;fill-opacity:1;stroke-width:0.88329369" />
  <path
     d="m 317.0018,97.25045 a 3.7010005,3.7010005 0 0 0 -0.34448,-1.66942 c -0.52114,-0.99812 -1.69592,-1.41327 -2.73821,-1.81959 -2.04924,-0.80379 -4.08965,-1.98741 -5.1231,-3.92182 -1.13945,-2.11107 -0.8833,-4.68146 -0.49465,-7.06635 a 27.938579,27.938579 0 0 1 2.05808,-7.68465 11.297326,11.297326 0 0 1 5.38809,-5.661917 c 2.98553,-1.32494 6.50987,-0.830296 9.51307,0.432814 a 8.4884522,8.4884522 0 0 1 3.0562,1.960913 c 1.76658,1.91675 1.91674,4.76978 1.82841,7.36667 a 70.327842,70.327842 0 0 1 -3.94832,21.03122 3.0915278,3.0915278 0 0 1 -0.73313,1.33377 2.7735421,2.7735421 0 0 1 -1.33378,0.59181 c -1.65175,0.38865 -4.70795,0.8303 -6.27138,-0.0883 -1.68709,-0.98045 -0.8038,-3.0297 -0.8568,-4.80512 z"
     id="path62"
     inkscape:connector-curvature="0"
     style="fill:url(#linearGradient3848);stroke-width:0.88329369" />
  <path
     d="m 311.50772,69.285376 c 0.68013,2.870704 2.83537,5.220264 5.29976,6.827864 a 11.208997,11.208997 0 0 1 3.01203,2.29656 c 1.33377,1.71359 1.19245,4.11615 0.98929,6.28022 0.60947,0.27382 1.25428,-0.29149 1.69592,-0.8038 0.44165,-0.51231 1.13062,-1.05112 1.71359,-0.71547 a 1.2719429,1.2719429 0 0 1 0.48582,0.60948 4.0808168,4.0808168 0 0 1 -1.87259,5.16726 3.2593536,3.2593536 0 0 0 -0.95395,0.53881 1.7665873,1.7665873 0 0 0 0,2.06691 c 0.38864,0.63597 0.97162,1.13062 1.36027,1.76659 1.00695,1.58993 0.88329,4.04548 2.54388,4.85811 a 2.8618715,2.8618715 0 0 0 3.15336,-0.78613 8.3824569,8.3824569 0 0 0 1.62526,-3.0297 q 3.14453,-8.59444 5.99757,-17.27722 a 8.3647911,8.3647911 0 0 0 0.6183,-3.45368 4.2574755,4.2574755 0 0 0 -1.86375,-3.02086 2.1110719,2.1110719 0 0 1 -0.7508,-0.635975 2.2259,2.2259 0 0 1 -0.0442,-1.360272 4.743287,4.743287 0 0 0 -1.4486,-3.736332 10.599524,10.599524 0 0 0 -3.48901,-2.217067 27.514598,27.514598 0 0 0 -12.77243,-2.111072 c -3.92182,0.291487 -6.13006,5.220265 -5.29976,8.735774 z"
     id="path64"
     inkscape:connector-curvature="0"
     style="fill:#3e3e54;stroke-width:0.88329369" />
  <path
     d="m 307.59473,133.21817 a 303.27005,303.27005 0 0 1 -4.88462,71.54679"
     id="path66"
     inkscape:connector-curvature="0"
     style="fill:#ffffff;stroke-width:0.88329369" />
  <path
     d="m 304.04389,179.66175 a 17.303723,17.303723 0 0 1 -0.36215,6.32439 8.8329367,8.8329367 0 0 1 -3.53318,5.1231 c -1.04229,0.6713 -2.49972,1.02462 -3.53317,0.27382 a 3.8334945,3.8334945 0 0 1 -1.15712,-2.26123 18.443172,18.443172 0 0 1 -0.57414,-5.1496 c 0.0795,-1.31611 0.60064,-4.79629 2.19057,-5.14961 a 5.8120723,5.8120723 0 0 1 1.25428,0.23849 c 0.62713,0.0795 1.26311,0.1325 1.89024,0.20316 z"
     id="path68"
     inkscape:connector-curvature="0"
     style="fill:url(#linear-gradient-6);stroke-width:0.88329369" />
  <path
     d="m 277.72173,131.31909 a 15.793291,15.793291 0 0 1 -5.29976,-12.94025 c 1.21012,-0.16783 2.24357,0.82146 3.02087,1.76659 0.7773,0.94512 1.67826,2.0934 2.44672,3.18869 a 1.0864512,1.0864512 0 0 0 0.51231,0.48581 c 0.29149,0.0972 0.64481,-0.053 0.88329,0.0972 a 0.88329367,0.88329367 0 0 1 0.31799,0.38865 17.224227,17.224227 0 0 1 1.11295,2.47322"
     id="path70"
     inkscape:connector-curvature="0"
     style="fill:url(#linear-gradient-7);stroke-width:0.88329369" />
  <path
     d="m 216.97763,112.56677 c -1.02462,1.99624 -3.12686,3.14452 -5.1231,4.16031 q -28.16824,14.42418 -57.41409,26.64014 c -10.33454,4.32814 -21.11072,8.50611 -32.31972,8.31179 -2.58805,-0.0442 -5.38809,-0.42398 -7.21651,-2.26123 -1.66059,-1.68709 -2.12874,-4.23098 -1.96974,-6.59821 a 16.137775,16.137775 0 0 1 5.37926,-10.96167 l -0.48582,-1.06879 c -1.84608,-4.16914 -3.39184,-8.65627 -2.59688,-13.11691 0.88329,-4.84045 5.58242,-9.29225 10.34337,-8.08213 a 9.0625931,9.0625931 0 0 1 10.59952,-14.35353 c -1.18361,-2.90603 -2.39372,-5.9534 -2.1464,-9.08025 0.30915,-4.00133 6.13006,-9.30992 8.97426,-12.08346 a 16.040613,16.040613 0 0 1 13.89421,-4.257478 12.533937,12.533937 0 0 1 1.95208,0.538808 c 2.64988,-3.391846 7.44617,-4.345803 11.73898,-3.948321 10.91751,1.02462 20.5984,10.007721 22.43565,20.819231 6.80137,-1.05112 13.70872,5.37043 13.15225,12.24245 a 10.970507,10.970507 0 0 1 11.21783,8.19697 7.1900105,7.1900105 0 0 1 -0.41515,4.90228 z"
     id="path72"
     inkscape:connector-curvature="0"
     style="fill:#ff6600;stroke-width:0.88329369" />
  <path
     d="m 192.01575,88.71784 a 13.390732,13.390732 0 0 0 -6.18306,-5.19377 20.262757,20.262757 0 0 0 -6.60703,-1.31611 17.983859,17.983859 0 0 0 -6.51871,0.60948 8.6209462,8.6209462 0 0 0 -5.04361,3.97482"
     stroke-miterlimit="10"
     id="path74"
     inkscape:connector-curvature="0"
     style="fill:none;stroke:#ffffff;stroke-width:1.71358979;stroke-linecap:round;stroke-miterlimit:10" />
  <path
     d="m 137.28687,107.58499 a 10.882178,10.882178 0 0 1 2.20824,-5.08777 7.1988434,7.1988434 0 0 1 1.4486,-1.76659 c 1.69592,-1.36027 4.14265,-1.01579 6.28022,-0.60064 a 19.185139,19.185139 0 0 1 0.13249,-4.98178 6.3773803,6.3773803 0 0 1 2.57039,-4.12498 c 1.94324,-1.24544 4.46063,-0.88329 6.73953,-0.52114"
     stroke-miterlimit="10"
     id="path76"
     inkscape:connector-curvature="0"
     style="fill:none;stroke:#ffffff;stroke-width:1.71358979;stroke-linecap:round;stroke-miterlimit:10" />
  <path
     d="m 197.69533,109.61657 c -1.06879,-1.89909 -3.73633,-2.21707 -5.84741,-1.6341 a 10.997006,10.997006 0 0 0 -7.87014,9.83106"
     stroke-miterlimit="10"
     id="path78"
     inkscape:connector-curvature="0"
     style="fill:none;stroke:#ffffff;stroke-width:1.71358979;stroke-linecap:round;stroke-miterlimit:10" />
  <path
     d="m 127.75614,140.91166 a 33.211842,33.211842 0 0 1 0.26498,-8.57678 6.1212251,6.1212251 0 0 1 1.37794,-3.43601 5.299762,5.299762 0 0 1 2.81771,-1.32494 12.295448,12.295448 0 0 1 12.59577,5.64424 c -0.69781,-2.98553 1.54576,-6.18305 4.48713,-7.06635 2.94137,-0.88329 6.22722,0.14133 8.58561,2.11107"
     stroke-miterlimit="10"
     id="path80"
     inkscape:connector-curvature="0"
     style="fill:none;stroke:#ffffff;stroke-width:1.71358979;stroke-linecap:round;stroke-miterlimit:10" />
  <path
     d="m 176.33729,108.59194 c 0.83913,0.68014 0.79496,1.96092 0.60064,3.0297 -0.68014,3.53318 -2.56155,7.20768 -5.9004,8.62978 a 11.765472,11.765472 0 0 1 -5.19377,0.6978 c -3.21519,-0.17666 -6.66004,-1.13061 -8.55912,-3.7275 l -3.06503,3.0032"
     stroke-miterlimit="10"
     id="path82"
     inkscape:connector-curvature="0"
     style="fill:none;stroke:#ffffff;stroke-width:1.71358979;stroke-linecap:round;stroke-miterlimit:10" />
  <path
     d="m 168.59963,102.1439 a 6.8101942,6.8101942 0 0 1 5.82091,-6.89852 10.846846,10.846846 0 0 1 3.648,0.35331 c 1.82842,0.43282 3.74517,1.13062 4.77862,2.70288"
     stroke-miterlimit="10"
     id="path84"
     inkscape:connector-curvature="0"
     style="fill:none;stroke:#ffffff;stroke-width:1.71358979;stroke-linecap:round;stroke-miterlimit:10" />
  <path
     d="m 156.0922,66.123185 -1.30728,2.049241 A 16.005281,16.005281 0 0 0 140.89071,72.4299 c -2.85304,2.77354 -8.66511,8.08214 -8.98309,12.08346 -0.24733,3.12686 0.96279,6.18305 2.1464,9.07142 a 9.0625931,9.0625931 0 0 0 -10.59952,14.36236 c -4.76096,-1.21011 -9.47775,3.24169 -10.34337,8.08214 -0.79497,4.41647 0.7508,8.94776 2.59688,13.10808 l -9.39824,14.68034 c -6.456881,3.23285 -14.901169,3.73633 -20.412921,-0.8833 a 13.549725,13.549725 0 0 1 -2.994366,-3.57734 c -2.729377,-4.73445 -2.296564,-10.89984 0.423981,-15.62546 2.720544,-4.72562 8.09097,-8.63861 13.249405,-10.38754 a 12.268949,12.268949 0 0 1 6.545211,-17.11823 21.976347,21.976347 0 0 1 -1.43094,-8.43545 15.713794,15.713794 0 0 1 7.11935,-11.72131 20.925227,20.925227 0 0 1 13.59389,-3.07386 2.2523989,2.2523989 0 0 0 2.80887,-1.64293 16.835577,16.835577 0 0 1 8.11747,-7.322501 33.785983,33.785983 0 0 1 5.89157,-1.687091 20.0331,20.0331 0 0 1 5.45875,-0.688969 16.78258,16.78258 0 0 1 5.29976,1.422103 49.376116,49.376116 0 0 1 6.1124,3.047363 z"
     id="path86"
     inkscape:connector-curvature="0"
     style="fill:#004455;stroke-width:0.88329369" />
  <path
     d="m 151.36658,90.83774 a 15.678463,15.678463 0 0 1 8.52378,-15.28098"
     stroke-miterlimit="10"
     id="path88"
     inkscape:connector-curvature="0"
     style="fill:none;stroke:#ffffff;stroke-width:1.71358979;stroke-linecap:round;stroke-miterlimit:10" />
  <path
     d="m 160.438,107.17867 a 8.0556383,8.0556383 0 0 0 -8.99193,9.62791"
     stroke-miterlimit="10"
     id="path90"
     inkscape:connector-curvature="0"
     style="fill:none;stroke:#ffffff;stroke-width:1.71358979;stroke-linecap:round;stroke-miterlimit:10" />
  <path
     d="m 141.95066,119.86277 a 12.525104,12.525104 0 0 0 -14.61851,3.62151"
     stroke-miterlimit="10"
     id="path92"
     inkscape:connector-curvature="0"
     style="fill:none;stroke:#ffffff;stroke-width:1.71358979;stroke-linecap:round;stroke-miterlimit:10" />
  <path
     d="m 108.24418,103.53067 a 3.6656687,3.6656687 0 0 1 -1.41327,-3.15336 8.9742637,8.9742637 0 0 1 0.97162,-3.46251 32.266718,32.266718 0 0 1 2.1994,-4.01898 9.5925693,9.5925693 0 0 1 2.3584,-2.72938 c 2.1464,-1.53693 5.03477,-1.38677 7.66699,-1.16595"
     stroke-miterlimit="10"
     id="path94"
     inkscape:connector-curvature="0"
     style="fill:none;stroke:#ffffff;stroke-width:1.71358979;stroke-linecap:round;stroke-miterlimit:10" />
  <path
     d="m 129.86721,76.66971 a 5.4587549,5.4587549 0 0 0 -4.66379,2.20824 9.6367339,9.6367339 0 0 0 -1.76659,5.00827"
     stroke-miterlimit="10"
     id="path96"
     inkscape:connector-curvature="0"
     style="fill:none;stroke:#ffffff;stroke-width:1.71358979;stroke-linecap:round;stroke-miterlimit:10" />
  <path
     d="m 96.231384,133.2535 c -0.529976,0.23849 -0.96279,-0.50347 -1.051119,-1.07761 a 12.472107,12.472107 0 0 1 7.764155,-13.24941"
     stroke-miterlimit="10"
     id="path98"
     inkscape:connector-curvature="0"
     style="fill:none;stroke:#ffffff;stroke-width:1.71358979;stroke-linecap:round;stroke-miterlimit:10" />
  <ellipse
     cx="139.7336"
     cy="241.87213"
     rx="72.200424"
     ry="19.988935"
     id="ellipse100"
     style="fill:#453748;stroke-width:0.88329369" />
  <ellipse
     cx="143.16077"
     cy="233.71051"
     rx="63.234989"
     ry="11.73014"
     id="ellipse102"
     style="fill:url(#linear-gradient-8);stroke-width:0.88329369" />
  <polyline
     points="129.57 221.77 129.57 186.27 99.29 186.27 99.29 148.11"
     stroke-miterlimit="10"
     id="polyline104"
     style="fill:none;stroke:#ffffff;stroke-width:1.45000005;stroke-miterlimit:10"
     transform="matrix(0.88329367,0,0,0.88329367,28.200106,45.471779)" />
  <circle
     cx="116.29981"
     cy="172.44524"
     r="3.8511605"
     stroke-miterlimit="10"
     id="circle106"
     style="fill:none;stroke:#ffffff;stroke-width:1.2807759;stroke-miterlimit:10" />
  <circle
     cx="88.378899"
     cy="194.35094"
     r="3.8511605"
     stroke-miterlimit="10"
     id="circle108"
     style="fill:none;stroke:#ffffff;stroke-width:1.2807759;stroke-miterlimit:10" />
  <circle
     cx="129.06342"
     cy="175.3336"
     r="3.8511605"
     stroke-miterlimit="10"
     id="circle110"
     style="fill:none;stroke:#ffffff;stroke-width:1.2807759;stroke-miterlimit:10" />
  <circle
     cx="140.3784"
     cy="159.2135"
     r="3.8511605"
     stroke-miterlimit="10"
     id="circle112"
     style="fill:none;stroke:#ffffff;stroke-width:1.2807759;stroke-miterlimit:10" />
  <circle
     cx="171.42616"
     cy="162.81735"
     r="3.8511605"
     stroke-miterlimit="10"
     id="circle114"
     style="fill:none;stroke:#ffffff;stroke-width:1.2807759;stroke-miterlimit:10" />
  <circle
     cx="196.86504"
     cy="173.48752"
     r="3.8511605"
     stroke-miterlimit="10"
     id="circle116"
     style="fill:none;stroke:#ffffff;stroke-width:1.2807759;stroke-miterlimit:10" />
  <circle
     cx="181.53989"
     cy="220.26674"
     r="3.8511605"
     stroke-miterlimit="10"
     id="circle118"
     style="fill:none;stroke:#ffffff;stroke-width:1.2807759;stroke-miterlimit:10" />
  <polyline
     points="99.29 164.47 114.28 164.47 114.28 150.57"
     stroke-miterlimit="10"
     id="polyline120"
     style="fill:none;stroke:#ffffff;stroke-width:1.45000005;stroke-miterlimit:10"
     transform="matrix(0.88329367,0,0,0.88329367,28.200106,45.471779)" />
  <polyline
     points="130.36 191.99 148.07 191.99 148.07 165.28 127.09 165.28 127.09 133.13"
     stroke-miterlimit="10"
     id="polyline122"
     style="fill:none;stroke:#ffffff;stroke-width:1.45000005;stroke-miterlimit:10"
     transform="matrix(0.88329367,0,0,0.88329367,28.200106,45.471779)" />
  <polyline
     points="162.24 137.21 162.24 176.18 148.34 176.18"
     stroke-miterlimit="10"
     id="polyline124"
     style="fill:none;stroke:#ffffff;stroke-width:1.45000005;stroke-miterlimit:10"
     transform="matrix(0.88329367,0,0,0.88329367,28.200106,45.471779)" />
  <polyline
     points="128.72 202.89 82.67 202.89 82.67 169.64 72.04 169.64"
     stroke-miterlimit="10"
     id="polyline126"
     style="fill:none;stroke:#ffffff;stroke-width:1.45000005;stroke-miterlimit:10"
     transform="matrix(0.88329367,0,0,0.88329367,28.200106,45.471779)" />
  <polyline
     points="162.42 162.74 173.69 162.74 173.69 193.81"
     stroke-miterlimit="10"
     id="polyline128"
     style="fill:none;stroke:#ffffff;stroke-width:1.45000005;stroke-miterlimit:10"
     transform="matrix(0.88329367,0,0,0.88329367,28.200106,45.471779)" />
  <polyline
     points="173.69 178.36 181.46 178.36 181.46 145.66 187.59 145.66"
     stroke-miterlimit="10"
     id="polyline130"
     style="fill:none;stroke:#ffffff;stroke-width:1.45000005;stroke-miterlimit:10"
     transform="matrix(0.88329367,0,0,0.88329367,28.200106,45.471779)" />
  <rect
     x="235.77081"
     y="63.040489"
     width="33.220676"
     height="21.305044"
     rx="3.9483225"
     style="opacity:0.18000004;isolation:isolate;fill:#27585d;stroke-width:0.88329369"
     id="rect132" />
  <rect
     x="236.6825"
     y="64.100433"
     width="33.220676"
     height="21.305044"
     rx="3.9483225"
     style="opacity:0.18000004;isolation:isolate;fill:#27585d;stroke-width:0.88329369"
     id="rect134" />
  <g
     inkscape:groupmode="layer"
     id="layer1"
     inkscape:label="Layer 1"
     transform="translate(0,-30)" />
</svg>
