<?xml version="1.0" encoding="UTF-8" standalone="no"?>
<svg
   xmlns:dc="http://purl.org/dc/elements/1.1/"
   xmlns:cc="http://creativecommons.org/ns#"
   xmlns:rdf="http://www.w3.org/1999/02/22-rdf-syntax-ns#"
   xmlns:svg="http://www.w3.org/2000/svg"
   xmlns="http://www.w3.org/2000/svg"
   xmlns:xlink="http://www.w3.org/1999/xlink"
   xmlns:sodipodi="http://sodipodi.sourceforge.net/DTD/sodipodi-0.dtd"
   xmlns:inkscape="http://www.inkscape.org/namespaces/inkscape"
   id="Layer_1"
   data-name="Layer 1"
   viewBox="0 0 600 579.99999"
   version="1.1"
   sodipodi:docname="android.svg"
   width="600"
   height="580"
   inkscape:version="0.92.3 (2405546, 2018-03-11)">
  <metadata
     id="metadata90">
    <rdf:RDF>
      <cc:Work
         rdf:about="">
        <dc:format>image/svg+xml</dc:format>
        <dc:type
           rdf:resource="http://purl.org/dc/dcmitype/StillImage" />
        <dc:title>29. Mobile</dc:title>
      </cc:Work>
    </rdf:RDF>
  </metadata>
  <sodipodi:namedview
     pagecolor="#ffffff"
     bordercolor="#666666"
     borderopacity="1"
     objecttolerance="10"
     gridtolerance="10"
     guidetolerance="10"
     inkscape:pageopacity="0"
     inkscape:pageshadow="2"
     inkscape:window-width="1920"
     inkscape:window-height="1010"
     id="namedview88"
     showgrid="false"
     inkscape:zoom="1.4051724"
     inkscape:cx="300"
     inkscape:cy="290"
     inkscape:window-x="0"
     inkscape:window-y="0"
     inkscape:window-maximized="1"
     inkscape:current-layer="Layer_1" />
  <defs
     id="defs31">
    <linearGradient
       id="linear-gradient"
       x1="553.73999"
       y1="-190.33"
       x2="550.45001"
       y2="478.17999"
       gradientUnits="userSpaceOnUse">
      <stop
         offset="0"
         id="stop2" />
      <stop
         offset="0.97"
         stop-opacity="0.1"
         id="stop4" />
    </linearGradient>
    <linearGradient
       id="linear-gradient-2"
       x1="476.06"
       y1="421.95999"
       x2="719.78003"
       y2="421.95999"
       gradientUnits="userSpaceOnUse">
      <stop
         offset="0"
         stop-color="#ecc4d7"
         id="stop7" />
      <stop
         offset="0.42"
         stop-color="#efd4d1"
         id="stop9" />
      <stop
         offset="1"
         stop-color="#f2eac9"
         id="stop11" />
    </linearGradient>
    <linearGradient
       id="linear-gradient-3"
       x1="431.95999"
       y1="164.75999"
       x2="485.42999"
       y2="164.75999"
       xlink:href="#linear-gradient-2"
       gradientTransform="matrix(0.89784176,0,0,0.89784176,-91.402285,41.46816)" />
    <linearGradient
       id="linear-gradient-4"
       x1="427.04001"
       y1="213.64"
       x2="486.91"
       y2="213.64"
       xlink:href="#linear-gradient-2"
       gradientTransform="matrix(0.89784176,0,0,0.89784176,-91.402285,41.46816)" />
    <linearGradient
       id="linear-gradient-5"
       x1="429.73001"
       y1="270.72"
       x2="474.91"
       y2="270.72"
       xlink:href="#linear-gradient-2"
       gradientTransform="matrix(0.89784176,0,0,0.89784176,-91.402285,41.46816)" />
    <linearGradient
       id="linear-gradient-6"
       x1="433.70001"
       y1="328.60001"
       x2="480.26001"
       y2="328.60001"
       xlink:href="#linear-gradient-2"
       gradientTransform="matrix(0.89784176,0,0,0.89784176,-91.402285,41.46816)" />
    <linearGradient
       id="linear-gradient-7"
       x1="393.85999"
       y1="157.7"
       x2="441.19"
       y2="155.81"
       xlink:href="#linear-gradient"
       gradientTransform="matrix(0.89784176,0,0,0.89784176,-91.402285,41.46816)" />
    <linearGradient
       id="linear-gradient-8"
       x1="395.89999"
       y1="208.7"
       x2="443.23001"
       y2="206.81"
       xlink:href="#linear-gradient"
       gradientTransform="matrix(0.89784176,0,0,0.89784176,-91.402285,41.46816)" />
    <linearGradient
       id="linear-gradient-9"
       x1="398.19"
       y1="265.75"
       x2="445.51001"
       y2="263.85999"
       xlink:href="#linear-gradient"
       gradientTransform="matrix(0.89784176,0,0,0.89784176,-91.402285,41.46816)" />
    <linearGradient
       id="linear-gradient-10"
       x1="400.51001"
       y1="323.92001"
       x2="447.84"
       y2="322.01999"
       xlink:href="#linear-gradient"
       gradientTransform="matrix(0.89784176,0,0,0.89784176,-91.402285,41.46816)" />
    <linearGradient
       id="linear-gradient-11"
       x1="287.14999"
       y1="232.36"
       x2="335.76999"
       y2="315.51999"
       gradientUnits="userSpaceOnUse">
      <stop
         offset="0"
         stop-color="#183866"
         id="stop22" />
      <stop
         offset="1"
         stop-color="#1a7fc1"
         id="stop24" />
    </linearGradient>
    <linearGradient
       id="linear-gradient-12"
       x1="307.56"
       y1="60.330002"
       x2="318.35001"
       y2="108.87"
       xlink:href="#linear-gradient-11"
       gradientTransform="matrix(0.89784176,0,0,0.89784176,-91.402285,41.46816)" />
    <linearGradient
       id="linear-gradient-13"
       x1="300.63"
       y1="61.869999"
       x2="311.42001"
       y2="110.41"
       xlink:href="#linear-gradient-11"
       gradientTransform="matrix(0.89784176,0,0,0.89784176,-91.402285,41.46816)" />
    <linearGradient
       id="linear-gradient-14"
       x1="293.70001"
       y1="63.41"
       x2="304.48999"
       y2="111.95"
       xlink:href="#linear-gradient-11"
       gradientTransform="matrix(0.89784176,0,0,0.89784176,-91.402285,41.46816)" />
    <linearGradient
       id="linear-gradient-15"
       x1="97.370003"
       y1="236.2"
       x2="97.720001"
       y2="236.2"
       xlink:href="#linear-gradient-11"
       gradientTransform="matrix(0.89784176,0,0,0.89784176,-91.402285,41.46816)" />
    <linearGradient
       inkscape:collect="always"
       xlink:href="#linear-gradient-2"
       id="linearGradient94"
       gradientUnits="userSpaceOnUse"
       x1="476.06"
       y1="421.95999"
       x2="719.78003"
       y2="421.95999"
       gradientTransform="matrix(0.89784176,0,0,0.89784176,-95.415625,40.292022)" />
    <linearGradient
       inkscape:collect="always"
       xlink:href="#linear-gradient-11"
       id="linearGradient96"
       gradientUnits="userSpaceOnUse"
       x1="287.14999"
       y1="232.36"
       x2="335.76999"
       y2="315.51999"
       gradientTransform="matrix(0.89784176,0,0,0.89784176,-91.402285,41.46816)" />
  </defs>
  <title
     id="title33">29. Mobile</title>
  <path
     d="m 330.55321,15.599469 c -62.46745,5.145672 -100.99504,70.540662 -157.19777,98.307311 -25.24876,12.47949 -53.69483,17.05565 -79.593043,28.11634 -44.052943,18.80419 -81.221677,62.31759 -77.245022,110.04744 5.155663,61.86795 71.879535,100.28562 92.851895,158.70649 5.78513,16.12643 7.90335,33.39191 13.86834,49.43841 14.88747,40.05631 55.23353,69.28172 97.91763,70.94032 34.28115,1.32889 66.99364,-13.40872 100.91511,-18.60435 41.52506,-6.37464 83.85946,1.68858 125.8941,0.25978 42.03463,-1.4288 87.92604,-15.71678 108.5387,-52.32599 16.68595,-29.64505 12.60938,-66.57399 3.37715,-99.31644 -9.23223,-32.74247 -23.25044,-64.69559 -25.11887,-98.66701 -2.15819,-39.55672 10.68102,-85.12839 -15.43702,-114.90333 C 499.94073,125.44706 464.14084,120.22146 450.31247,94.243314 435.38503,66.266848 430.14944,62.539983 405.05054,45.953935 380.23142,29.51776 363.27568,12.901738 330.55321,15.599469 Z"
     id="path35"
     inkscape:connector-curvature="0"
     style="opacity:1;fill:#ff0000;stroke-width:0.99915951" />
  <rect
     x="316.173"
     y="93.345451"
     width="175.37544"
     height="333.66495"
     rx="19.851282"
     id="rect37"
     style="fill:#3e3748;stroke-width:0.89784175" />
  <path
     d="m 484.33874,118.37728 v 280.55759 a 18.55839,18.55839 0 0 1 -18.55838,18.54941 H 341.94104 A 18.55839,18.55839 0 0 1 323.40061,398.93487 V 118.38626 a 18.567368,18.567368 0 0 1 18.54941,-18.558386 h 18.85467 v 1.463486 a 10.4419,10.4419 0 0 0 10.44191,10.4419 h 64.26751 a 10.432921,10.432921 0 0 0 10.44189,-10.4419 v -1.463486 h 19.83333 a 18.567368,18.567368 0 0 1 18.54941,18.549406 z"
     id="path39"
     inkscape:connector-curvature="0"
     style="fill:#fd686a;stroke-width:0.89784175" />
  <path
     d="m 484.33874,118.37728 v 280.55759 a 18.55839,18.55839 0 0 1 -18.55838,18.54941 H 341.94104 A 18.55839,18.55839 0 0 1 323.40061,398.93487 V 118.38626 a 18.567368,18.567368 0 0 1 18.54941,-18.558386 h 18.85467 v 1.463486 a 10.4419,10.4419 0 0 0 10.44191,10.4419 h 64.26751 a 10.432921,10.432921 0 0 0 10.44189,-10.4419 v -1.463486 h 19.83333 a 18.567368,18.567368 0 0 1 18.54941,18.549406 z"
     id="path41"
     inkscape:connector-curvature="0"
     style="opacity:1;fill:#b3b3b3;stroke-width:0.89784175" />
  <rect
     x="350.06653"
     y="279.18973"
     width="118.29962"
     height="42.845013"
     rx="9.1579857"
     id="rect43"
     style="opacity:1;fill:#ffcc00;stroke-width:0.89784175;fill-opacity:1" />
  <rect
     x="350.06653"
     y="339.47083"
     width="118.29962"
     height="42.845013"
     rx="9.1579857"
     id="rect45"
     style="opacity:0.17000002;fill:#ffffff;stroke-width:0.89784175" />
  <path
     d="m 510.78917,302.40794 -42.42302,-40.65428 c 0,0 -15.44288,12.2286 -8.85272,34.36041 6.59016,22.1318 28.02164,48.77077 28.02164,48.77077 v 61.05323 c 0,0 0.24242,19.86026 -19.86026,19.86026 H 332.01092 c 0,0 11.83356,31.15512 35.91367,57.60553 24.08012,26.45042 67.28426,59.12288 65.43471,93.13313 h 117.47362 c 0,0 -30.09566,-107.12151 -19.75252,-150.70275 10.34314,-43.58124 6.48241,-97.79292 -20.29123,-123.4263 z"
     id="path47"
     inkscape:connector-curvature="0"
     style="fill:url(#linearGradient94);stroke-width:0.89784175" />
  <path
     d="m 335.23416,220.0399 c -4.29168,-1.05046 -15.04782,-8.46664 -23.81077,-16.39459 -5.56662,-5.0279 -10.33415,-10.26232 -12.13881,-14.21283 -4.65083,-10.16357 -5.46785,-32.42107 12.13881,-30.71517 0,0 7.18274,-1.63407 23.81077,23.15534 16.62803,24.78941 7.02113,39.8911 0,38.16725 z"
     id="path49"
     inkscape:connector-curvature="0"
     style="fill:url(#linear-gradient-3);stroke-width:0.89784175" />
  <path
     d="m 338.66391,261.36757 c -4.4892,-0.26937 -17.05899,-5.9527 -27.26745,-12.40818 -5.99758,-3.7889 -11.22302,-7.84714 -13.59332,-11.24098 -6.41059,-9.15799 -11.21405,-30.90371 6.41957,-32.38516 0,0 1.99321,-0.89784 7.18273,1.79569 4.33657,2.23562 10.8998,6.93134 20.40794,16.69088 20.83891,21.39557 14.08714,37.97871 6.85053,37.54775 z"
     id="path51"
     inkscape:connector-curvature="0"
     style="fill:url(#linear-gradient-4);stroke-width:0.89784175" />
  <path
     d="m 327.7282,315.14828 c -2.98083,-0.80805 -9.79545,-5.97065 -16.30481,-12.18371 -6.28489,-5.97065 -12.21962,-12.91097 -14.23977,-17.87603 -4.13006,-10.14562 -5.38705,-32.56472 9.21187,-31.22693 0,0 1.55326,-0.47586 5.0279,2.40621 3.27713,2.69352 8.26913,8.43971 15.26332,20.39896 14.42832,24.6278 6.87746,40.05272 1.04149,38.4815 z"
     id="path53"
     inkscape:connector-curvature="0"
     style="fill:url(#linear-gradient-5);stroke-width:0.89784175" />
  <path
     d="m 334.42611,359.72613 c -3.77992,-0.28731 -14.7695,-5.81802 -23.00272,-11.72582 -3.87867,-2.7833 -7.18272,-5.64742 -8.7719,-8.08058 -5.02792,-7.58676 -8.97843,-25.49869 4.65979,-26.54917 0,0 1.15822,-0.52076 4.11211,0.81704 3.27713,1.48144 8.7809,5.27034 17.35529,14.63482 16.26889,17.76829 11.21404,31.3257 5.64743,30.90371 z"
     id="path55"
     inkscape:connector-curvature="0"
     style="fill:url(#linear-gradient-6);stroke-width:0.89784175" />
  <rect
     x="350.06653"
     y="158.62753"
     width="118.29962"
     height="42.845013"
     rx="9.1579857"
     id="rect57"
     style="opacity:0.858;fill:#f9f9f9;stroke-width:0.89784175;fill-opacity:1" />
  <rect
     x="350.06653"
     y="218.90865"
     width="118.29962"
     height="42.845013"
     rx="9.1579857"
     id="rect59"
     style="opacity:0.918;fill:#ff0000;stroke-width:0.89784175" />
  <path
     d="m 311.42339,158.71731 v 44.89209 c -5.56662,-5.02792 -10.33415,-10.26232 -12.13881,-14.21284 -4.61491,-10.12765 -5.46785,-32.38515 12.13881,-30.67925 z"
     id="path61"
     inkscape:connector-curvature="0"
     style="opacity:0.81000001;fill:url(#linear-gradient-7);stroke-width:0.89784175" />
  <path
     d="m 311.42339,207.11996 v 41.83943 c -5.99758,-3.7889 -11.22302,-7.84714 -13.59332,-11.24098 -6.41059,-9.15799 -11.21404,-30.90371 6.41957,-32.38516 0,0 1.99321,-0.86192 7.17375,1.78671 z"
     id="path63"
     inkscape:connector-curvature="0"
     style="opacity:0.81000001;fill:url(#linear-gradient-8);stroke-width:0.89784175" />
  <path
     d="m 311.42339,256.26783 v 46.68776 c -6.28489,-5.97065 -12.21962,-12.91096 -14.23977,-17.87603 -4.13006,-10.14561 -5.38705,-32.56472 9.21187,-31.22694 0,0.009 1.55326,-0.49381 5.0279,2.41521 z"
     id="path65"
     inkscape:connector-curvature="0"
     style="opacity:0.81000001;fill:url(#linear-gradient-9);stroke-width:0.89784175" />
  <path
     d="m 311.42339,314.18759 v 33.81272 c -3.87867,-2.7833 -7.18272,-5.64742 -8.7719,-8.08058 -5.02792,-7.58676 -8.97843,-25.49869 4.65979,-26.54917 0,0 1.15822,-0.52076 4.11211,0.81703 z"
     id="path67"
     inkscape:connector-curvature="0"
     style="opacity:0.81000001;fill:url(#linear-gradient-10);stroke-width:0.89784175" />
  <path
     d="M 305.81991,86.260993 V 434.02204 a 19.833324,19.833324 0 0 1 -19.83333,19.84231 H 120.94531 A 19.833324,19.833324 0 0 1 101.11199,434.02204 V 86.260993 a 19.833324,19.833324 0 0 1 19.83332,-19.842302 h 165.04127 a 19.833324,19.833324 0 0 1 19.83333,19.842302 z"
     id="path69"
     inkscape:connector-curvature="0"
     style="fill:#ffcc00;stroke-width:0.89784175" />
  <path
     d="M 143.90408,55.743844 V 443.18949 H 113.11709 A 19.833324,19.833324 0 0 1 93.283763,423.34719 V 75.586146 A 19.833324,19.833324 0 0 1 113.11709,55.743844 Z"
     id="path71"
     inkscape:connector-curvature="0"
     style="opacity:0.17000002;fill:#ffffff;stroke-width:0.89784175" />
  <path
     d="m 267.09695,238.64319 v 62.6873 a 10.064806,10.064806 0 0 1 -10.0648,10.06482 H 93.283763 V 228.58736 H 257.03215 a 10.055828,10.055828 0 0 1 10.0648,10.05583 z"
     id="path73"
     inkscape:connector-curvature="0"
     style="opacity:0.18999999;fill:url(#linearGradient96);stroke-width:0.89784175" />
  <rect
     x="32.769253"
     y="213.49466"
     width="209.91541"
     height="82.816925"
     rx="10.064807"
     id="rect75"
     style="fill:#ff6600;stroke-width:0.89784175" />
  <path
     d="M 258.11854,136.63938 H 127.4646 a 4.7854966,4.7854966 0 0 1 -4.78549,-4.77652 v 0 a 4.7854966,4.7854966 0 0 1 4.78549,-4.78548 h 130.65394 a 4.7854966,4.7854966 0 0 1 4.78549,4.78548 v 0 a 4.7765182,4.7765182 0 0 1 -4.78549,4.77652 z"
     id="path77"
     inkscape:connector-curvature="0"
     style="opacity:0.18999999;fill:url(#linear-gradient-12);stroke-width:0.89784175" />
  <path
     d="M 258.11854,166.03472 H 127.4646 a 4.7854966,4.7854966 0 0 1 -4.78549,-4.7855 v 0 a 4.7854966,4.7854966 0 0 1 4.78549,-4.77651 h 130.65394 a 4.7765182,4.7765182 0 0 1 4.78549,4.77651 v 0 a 4.7854966,4.7854966 0 0 1 -4.78549,4.7855 z"
     id="path79"
     inkscape:connector-curvature="0"
     style="opacity:0.18999999;fill:url(#linear-gradient-13);stroke-width:0.89784175" />
  <path
     d="M 258.11854,195.4121 H 127.4646 a 4.7854966,4.7854966 0 0 1 -4.78549,-4.7765 v 0 a 4.7854966,4.7854966 0 0 1 4.78549,-4.78551 h 130.65394 a 4.7854966,4.7854966 0 0 1 4.78549,4.78551 v 0 a 4.7765182,4.7765182 0 0 1 -4.78549,4.7765 z"
     id="path81"
     inkscape:connector-curvature="0"
     style="opacity:0.18999999;fill:url(#linear-gradient-14);stroke-width:0.89784175" />
  <path
     d="m 109.31922,234.50414 v 38.13133 a 7.3892377,7.3892377 0 0 1 -7.075,7.38027 1.9483166,1.9483166 0 0 1 -0.32322,0 H 63.789661 a 7.3982161,7.3982161 0 0 1 -7.398217,-7.39822 v -38.11338 a 7.3892377,7.3892377 0 0 1 7.398217,-7.38925 H 101.921 a 7.3892377,7.3892377 0 0 1 7.39822,7.38925 z"
     id="path83"
     inkscape:connector-curvature="0"
     style="opacity:0.18999999;fill:url(#linear-gradient-15);stroke-width:0.89784175" />
  <path
     d="m 103.08819,274.22465 a 19.959023,19.959023 0 0 1 -0.84397,5.75517 1.9483166,1.9483166 0 0 1 -0.32322,0 H 64.041056 a 19.985958,19.985958 0 0 1 12.659569,-24.65472 10.827971,10.827971 0 1 1 11.384634,-0.44892 19.950044,19.950044 0 0 1 15.002931,19.34847 z"
     id="path85"
     inkscape:connector-curvature="0"
     style="opacity:0.17000002;fill:#ffffff;stroke-width:0.89784175" />
</svg>
