<?xml version="1.0" encoding="UTF-8" standalone="no"?>
<svg
   xmlns:dc="http://purl.org/dc/elements/1.1/"
   xmlns:cc="http://creativecommons.org/ns#"
   xmlns:rdf="http://www.w3.org/1999/02/22-rdf-syntax-ns#"
   xmlns:svg="http://www.w3.org/2000/svg"
   xmlns="http://www.w3.org/2000/svg"
   xmlns:xlink="http://www.w3.org/1999/xlink"
   xmlns:sodipodi="http://sodipodi.sourceforge.net/DTD/sodipodi-0.dtd"
   xmlns:inkscape="http://www.inkscape.org/namespaces/inkscape"
   id="Layer_1"
   data-name="Layer 1"
   viewBox="0 0 700.00001 650.00002"
   version="1.1"
   sodipodi:docname="arvr.svg"
   width="700"
   height="650"
   inkscape:version="0.92.3 (2405546, 2018-03-11)">
  <metadata
     id="metadata115">
    <rdf:RDF>
      <cc:Work
         rdf:about="">
        <dc:format>image/svg+xml</dc:format>
        <dc:type
           rdf:resource="http://purl.org/dc/dcmitype/StillImage" />
        <dc:title>37. VR</dc:title>
      </cc:Work>
    </rdf:RDF>
  </metadata>
  <sodipodi:namedview
     pagecolor="#ffffff"
     bordercolor="#666666"
     borderopacity="1"
     objecttolerance="10"
     gridtolerance="10"
     guidetolerance="10"
     inkscape:pageopacity="0"
     inkscape:pageshadow="2"
     inkscape:window-width="1920"
     inkscape:window-height="1010"
     id="namedview113"
     showgrid="false"
     inkscape:zoom="1.2538462"
     inkscape:cx="339.98202"
     inkscape:cy="325"
     inkscape:window-x="0"
     inkscape:window-y="0"
     inkscape:window-maximized="1"
     inkscape:current-layer="Layer_1" />
  <defs
     id="defs42">
    <linearGradient
       id="linear-gradient"
       x1="263.07999"
       y1="578.78003"
       x2="216.66"
       y2="148.82001"
       gradientUnits="userSpaceOnUse">
      <stop
         offset="0.01"
         id="stop2" />
      <stop
         offset="0.99"
         stop-opacity="0"
         id="stop4" />
    </linearGradient>
    <linearGradient
       id="linear-gradient-2"
       x1="683.14001"
       y1="479.12"
       x2="636.71002"
       y2="49.16"
       xlink:href="#linear-gradient"
       gradientTransform="matrix(1.0239596,0,0,1.0239596,-92.402373,29.599551)" />
    <linearGradient
       id="linear-gradient-3"
       x1="542.64001"
       y1="336.97"
       x2="384.07999"
       y2="258.69"
       gradientUnits="userSpaceOnUse"
       gradientTransform="matrix(1.0239596,0,0,1.0239596,-92.402373,29.599551)">
      <stop
         offset="0.01"
         id="stop8" />
      <stop
         offset="0.15"
         stop-opacity="0.48"
         id="stop10" />
      <stop
         offset="0.99"
         stop-opacity="0"
         id="stop12" />
    </linearGradient>
    <linearGradient
       id="linear-gradient-4"
       x1="515.81"
       y1="212.89"
       x2="452.03"
       y2="199.88"
       xlink:href="#linear-gradient"
       gradientTransform="matrix(1.0239596,0,0,1.0239596,-92.402373,29.599551)" />
    <linearGradient
       id="linear-gradient-5"
       x1="424.41"
       y1="312.17999"
       x2="421.26999"
       y2="315.42999"
       gradientUnits="userSpaceOnUse">
      <stop
         offset="0"
         stop-color="#ecc4d7"
         id="stop16" />
      <stop
         offset="0.42"
         stop-color="#efd4d1"
         id="stop18" />
      <stop
         offset="1"
         stop-color="#f2eac9"
         id="stop20" />
    </linearGradient>
    <linearGradient
       id="linear-gradient-6"
       x1="476.10001"
       y1="186.03999"
       x2="488.59"
       y2="202.32001"
       gradientUnits="userSpaceOnUse">
      <stop
         offset="0"
         stop-color="#ecc4d7"
         id="stop23" />
      <stop
         offset="0.83"
         stop-color="#f2eac9"
         id="stop25" />
    </linearGradient>
    <linearGradient
       id="linear-gradient-7"
       x1="397.19"
       y1="314.57001"
       x2="541.96002"
       y2="314.57001"
       xlink:href="#linear-gradient-5"
       gradientTransform="matrix(1.0239596,0,0,1.0239596,-92.402373,29.599551)" />
    <linearGradient
       id="linear-gradient-8"
       x1="327.76999"
       y1="150.99001"
       x2="392.85999"
       y2="150.99001"
       xlink:href="#linear-gradient-5"
       gradientTransform="matrix(1.0239596,0,0,1.0239596,-92.402373,29.599551)" />
    <linearGradient
       id="linear-gradient-9"
       x1="327.76999"
       y1="111.11"
       x2="356.60001"
       y2="111.11"
       xlink:href="#linear-gradient-5"
       gradientTransform="matrix(1.0239596,0,0,1.0239596,-92.402373,29.599551)" />
    <linearGradient
       id="linear-gradient-10"
       x1="497.48001"
       y1="125.97"
       x2="430.39999"
       y2="166.31"
       xlink:href="#linear-gradient-6"
       gradientTransform="matrix(1.0239596,0,0,1.0239596,-92.402373,29.599551)" />
    <linearGradient
       id="linear-gradient-11"
       x1="500.32001"
       y1="141.33"
       x2="493.38"
       y2="155.22"
       xlink:href="#linear-gradient"
       gradientTransform="matrix(1.0239596,0,0,1.0239596,-92.402373,29.599551)" />
    <linearGradient
       id="linear-gradient-12"
       x1="399.13"
       y1="138.75"
       x2="532.40997"
       y2="115.5"
       xlink:href="#linear-gradient"
       gradientTransform="matrix(1.0239596,0,0,1.0239596,-92.402373,29.599551)" />
    <linearGradient
       id="linear-gradient-13"
       x1="430.57999"
       y1="156.19"
       x2="448.87"
       y2="106.9"
       xlink:href="#linear-gradient"
       gradientTransform="matrix(1.0239596,0,0,1.0239596,-92.402373,29.599551)" />
    <linearGradient
       id="linear-gradient-14"
       x1="450.14001"
       y1="125.9"
       x2="445.35001"
       y2="146.32001"
       xlink:href="#linear-gradient"
       gradientTransform="matrix(1.0239596,0,0,1.0239596,-92.402373,29.599551)" />
    <linearGradient
       id="linear-gradient-15"
       x1="411.19"
       y1="251.3"
       x2="401.03"
       y2="211.96001"
       xlink:href="#linear-gradient"
       gradientTransform="matrix(1.0239596,0,0,1.0239596,-92.402373,29.599551)" />
    <linearGradient
       id="linear-gradient-16"
       x1="233.63"
       y1="545.64001"
       x2="598.22998"
       y2="545.64001"
       gradientUnits="userSpaceOnUse"
       gradientTransform="matrix(1.0239596,0,0,1.0239596,-92.402373,29.599551)">
      <stop
         offset="0"
         stop-color="#183866"
         id="stop37" />
      <stop
         offset="1"
         stop-color="#1a7fc1"
         id="stop39" />
    </linearGradient>
    <linearGradient
       inkscape:collect="always"
       xlink:href="#linear-gradient-5"
       id="linearGradient128"
       gradientUnits="userSpaceOnUse"
       x1="424.41"
       y1="312.17999"
       x2="421.26999"
       y2="315.42999"
       gradientTransform="matrix(1.0239596,0,0,1.0239596,-92.402373,29.599551)" />
    <linearGradient
       inkscape:collect="always"
       xlink:href="#linear-gradient-6"
       id="linearGradient130"
       gradientUnits="userSpaceOnUse"
       x1="476.10001"
       y1="186.03999"
       x2="488.59"
       y2="202.32001"
       gradientTransform="matrix(1.0239596,0,0,1.0239596,-92.402373,29.599551)" />
  </defs>
  <title
     id="title44">37. VR</title>
  <path
     d="m 284.35333,35.364444 c 49.96923,-14.888373 107.51576,-8.089281 148.60726,24.052812 37.35405,29.275005 57.34174,75.066474 88.35748,111.027934 30.25801,35.12182 70.65321,60.41362 100.57331,95.83239 29.9201,35.41876 47.97251,88.17316 24.08354,127.90279 -17.50971,29.11118 -55.03783,47.56293 -58.4681,81.3536 -1.02396,10.61846 1.60762,21.26764 1.58714,31.9373 -0.1024,43.31349 -44.27602,74.52378 -86.93417,82.03964 -42.65816,7.51587 -86.67819,-0.64509 -129.68449,4.29039 -37.88651,4.34159 -74.10396,18.72822 -111.94951,23.70467 -37.84555,4.97644 -80.89281,-1.82265 -104.94562,-31.45604 -18.18552,-22.40424 -21.94346,-53.2459 -36.33009,-78.22028 C 89.094469,455.43364 12.758279,425.86168 15.25674,365.49926 17.099868,321.70451 61.150611,293.65826 85.060068,256.95954 114.60131,211.53669 116.10653,157.21564 156.57341,119.15506 192.2584,85.517986 236.48322,49.617962 284.35333,35.364444 Z"
     id="path46"
     inkscape:connector-curvature="0"
     style="opacity:0.513;fill:#5500d4;stroke-width:1.02395964" />
  <path
     d="m 126.13109,368.26395 c -13.90537,7.60802 -27.800503,17.40732 -33.862346,32.0397 -8.580782,20.77614 1.617856,45.32045 17.857856,60.8744 32.37761,31.0055 81.78366,33.79067 126.61261,33.87259 q 101.24913,0.19455 202.39586,-5.82633 c 20.60207,-1.22876 41.51132,-2.7135 60.94608,-9.6969 26.62295,-9.57402 48.52544,-28.74255 69.5371,-47.6858 10.43414,-9.39995 21.17548,-19.37332 26.03929,-32.54144 9.70714,-26.25432 -7.32131,-55.06855 -28.11793,-73.79677 A 178.4864,178.4864 0 0 0 447.0298,280.13175 c -1.92505,6.14376 4.80237,11.26356 10.6287,13.95657 18.59511,8.58078 38.54184,14.49927 55.81604,25.51707 17.2742,11.01781 32.07041,28.79375 32.33664,49.27294 0.36863,27.38068 -24.31904,48.28994 -48.76095,60.62865 -56.67617,28.60943 -122.09695,33.84187 -185.58245,34.25145 -38.30633,0.27647 -77.5035,-1.17755 -113.26017,-14.94981 -7.55682,-2.90805 -15.66658,-7.16772 -18.13433,-14.88837 -1.83288,-5.70346 -0.0512,-11.93937 2.43703,-17.40732 a 69.629255,69.629255 0 0 1 41.20413,-36.71919 c 12.28752,-4.00368 26.0393,-4.72045 36.42225,-12.40015 8.19167,-6.06184 13.54698,-21.11405 4.41326,-28.15889 -8.28383,-6.38951 -32.56191,-1.48474 -41.98234,-0.57342 a 252.36509,252.36509 0 0 0 -96.43652,29.60267 z"
     id="path48"
     inkscape:connector-curvature="0"
     style="opacity:0.56999966;fill:#ffffff;stroke-width:1.02395964" />
  <path
     d="M 77.441808,49.710118 216.772,105.88454 a 11.345473,11.345473 0 0 1 7.09604,10.51607 v 237.70198 a 11.335233,11.335233 0 0 1 -15.82018,10.41367 L 65.717471,303.3142 A 11.335233,11.335233 0 0 1 58.908139,292.75717 L 61.867383,60.082829 A 11.335233,11.335233 0 0 1 77.441808,49.710118 Z"
     id="path50"
     inkscape:connector-curvature="0"
     style="fill:#6872fd;stroke-width:1.02395964" />
  <path
     d="M 68.359287,53.293977 207.6178,109.4684 a 11.355712,11.355712 0 0 1 7.16772,10.50582 v 237.71223 a 11.345473,11.345473 0 0 1 -15.82018,10.41367 L 56.634949,306.88781 a 11.355712,11.355712 0 0 1 -6.86053,-10.55702 L 52.733663,63.656448 A 11.335233,11.335233 0 0 1 68.359287,53.293977 Z"
     id="path52"
     inkscape:connector-curvature="0"
     style="fill:#6872fd;stroke-width:1.02395964" />
  <path
     d="M 518.90153,48.849992 656.5217,104.3486 a 12.205599,12.205599 0 0 1 7.64898,11.26356 v 235.8179 a 12.215838,12.215838 0 0 1 -17.03869,11.26355 L 506.61401,302.20832 a 12.226078,12.226078 0 0 1 -7.39299,-11.37619 l 2.93877,-230.800499 a 12.226078,12.226078 0 0 1 16.74174,-11.181639 z"
     id="path54"
     inkscape:connector-curvature="0"
     style="fill:#ff5555;stroke-width:1.02395964" />
  <path
     d="m 510.70985,53.785478 137.53826,55.478132 a 12.205599,12.205599 0 0 1 7.64897,11.32499 V 356.36554 A 12.215838,12.215838 0 0 1 638.8584,367.6291 L 498.33018,307.21548 a 12.205599,12.205599 0 0 1 -7.38275,-11.37619 l 2.92852,-230.800496 a 12.226078,12.226078 0 0 1 16.8339,-11.253316 z"
     id="path56"
     inkscape:connector-curvature="0"
     style="fill:#6872fd;stroke-width:1.02395964" />
  <path
     d="M 68.359287,53.293977 207.6178,109.4684 a 11.355712,11.355712 0 0 1 7.16772,10.50582 v 237.71223 a 11.345473,11.345473 0 0 1 -15.82018,10.41367 L 56.634949,306.88781 a 11.355712,11.355712 0 0 1 -6.86053,-10.55702 L 52.733663,63.656448 A 11.335233,11.335233 0 0 1 68.359287,53.293977 Z"
     id="path58"
     inkscape:connector-curvature="0"
     style="fill:#ff5555;stroke-width:1.02395964;fill-opacity:1" />
  <path
     d="m 510.70985,53.785478 137.53826,55.478132 a 12.205599,12.205599 0 0 1 7.64897,11.32499 V 356.36554 A 12.215838,12.215838 0 0 1 638.8584,367.6291 L 498.33018,307.21548 a 12.205599,12.205599 0 0 1 -7.38275,-11.37619 l 2.92852,-230.800496 a 12.226078,12.226078 0 0 1 16.8339,-11.253316 z"
     id="path60"
     inkscape:connector-curvature="0"
     style="fill:url(#linear-gradient-2);stroke-width:1.02395964" />
  <path
     d="m 462.51207,323.41452 -27.64691,2.10936 -3.25619,-16.58815 c -2.27319,-4.98668 3.25619,16.58815 -11.77554,97.94174 l -8.6627,-1.966 -91.36791,-20.70446 22.16872,-116.7314 -38.634,-2.6111 6.53287,-36.30961 19.21972,1.63834 c 0,0 34.53816,-3.60434 60.26002,0 25.72187,3.60434 43.86643,4.51566 56.06179,17.06941 12.19536,12.55374 17.10013,76.15187 17.10013,76.15187 z"
     id="path62"
     inkscape:connector-curvature="0"
     style="fill:#ff6600;stroke-width:1.02395964" />
  <path
     d="m 431.60897,308.93573 c -2.27319,-4.98668 3.25619,16.58815 -11.77554,97.94174 l -8.6627,-1.966 -9.09276,-2.04792 c 0,0 9.5945,-22.52711 4.20848,-26.62295 -5.38603,-4.09584 -31.87587,5.82633 -55.61125,7.97665 -23.73539,2.15031 -20.71471,-4.47471 -20.71471,-4.47471 0,0 21.70795,-19.74194 58.45786,-30.44232 36.74991,-10.70038 38.49064,-65.82012 38.49064,-65.82012 z"
     id="path64"
     inkscape:connector-curvature="0"
     style="fill:url(#linear-gradient-3);stroke-width:1.02395964" />
  <path
     d="m 375.01472,235.58951 c 0,0 23.18244,0.96252 31.82466,-5.94921 l 7.2394,4.0344 c 0,0 -1.97624,13.86441 -13.31148,15.70754 -11.33523,1.84313 -25.77306,1.21851 -25.75258,-13.79273 z"
     id="path66"
     inkscape:connector-curvature="0"
     style="fill:#6872fd;stroke-width:1.02395964" />
  <path
     d="m 375.01472,235.58951 c 0,0 23.18244,0.96252 31.82466,-5.94921 l 7.2394,4.0344 c 0,0 -1.97624,13.86441 -13.31148,15.70754 -11.33523,1.84313 -25.77306,1.21851 -25.75258,-13.79273 z"
     id="path68"
     inkscape:connector-curvature="0"
     style="fill:url(#linear-gradient-4);stroke-width:1.02395964" />
  <path
     d="m 354.68912,352.62809 -23.80706,-7.95617 c 0,0 -2.80565,1.85337 1.36186,4.92525 a 58.273542,58.273542 0 0 1 5.05837,4.31087 z"
     id="path70"
     inkscape:connector-curvature="0"
     style="fill:url(#linearGradient128);stroke-width:1.02395964" />
  <path
     d="m 376.65305,225.7083 c 0.52222,-4.09584 0.72701,-8.63198 3.35859,-11.8677 a 18.76918,18.76918 0 0 1 5.73418,-4.20847 l 17.33563,-9.62522 c 2.10936,-1.16732 4.40303,-2.37559 6.78885,-2.04792 a 3.0718789,3.0718789 0 0 1 1.59738,0.61437 c 1.15708,0.95229 0.97276,2.75446 0.68605,4.2392 q -2.64181,13.42411 -5.31435,26.84822 a 29.008776,29.008776 0 0 1 -2.16055,7.36227 16.096645,16.096645 0 0 1 -14.79622,8.41695 19.117326,19.117326 0 0 1 -12.89165,-6.04136 c -3.89105,-4.0856 -0.97276,-8.62174 -0.33791,-13.69034 z"
     id="path72"
     inkscape:connector-curvature="0"
     style="fill:url(#linearGradient130);stroke-width:1.02395964" />
  <path
     d="m 433.07323,360.51258 a 29.049735,29.049735 0 0 0 9.65594,-3.17427 c 6.0004,-3.21524 15.61538,-8.94941 17.48923,-13.51627 2.75445,-6.7479 2.29367,-20.40752 2.29367,-20.40752 l -27.64691,2.10936 c 0,0 0.23551,8.73438 -2.04792,9.04156 -2.28343,0.30719 -75.70134,18.68727 -75.70134,18.68727 0,0 -11.35571,-3.67602 -21.31884,0.15359 -9.96312,3.82961 -24.6467,12.73806 -20.90925,17.40731 a 6.2154349,6.2154349 0 0 0 4.66925,2.25272 c 3.23572,0.10239 1.96601,3.8808 3.91153,5.31435 2.60086,1.9148 28.4456,3.89104 37.29261,-5.29388 2.26295,-2.33462 55.83652,-10.19863 72.31203,-12.57422 z"
     id="path74"
     inkscape:connector-curvature="0"
     style="fill:url(#linear-gradient-7);stroke-width:1.02395964" />
  <path
     d="m 309.87041,228.54466 -4.58734,25.4454 a 113.49569,113.49569 0 0 0 -13.89513,-8.52958 c -8.13024,-4.21872 -27.1247,-57.34174 -27.1247,-57.34174 0,0 -1.99672,-9.49211 -7.9664,-12.71758 -5.96969,-3.22547 -5.67274,-13.64938 -5.67274,-17.02845 v 0 c 0,-3.36883 -3.07188,-8.57054 -6.07208,-12.6971 -3.0002,-4.12656 0,-6.28711 0,-6.28711 0,0 7.75138,7.35203 7.89473,6.4407 0.14335,-0.91132 -3.87057,-10.97684 -6.14376,-13.50602 -2.27319,-2.52918 -2.14007,-6.71718 -0.91132,-7.33155 1.22875,-0.61438 13.31147,15.16484 13.31147,15.16484 a 38.849028,38.849028 0 0 0 -2.91828,-11.49907 c -2.44726,-5.35531 -1.83289,-11.33523 0,-10.41367 1.83289,0.92157 9.50234,18.43128 9.50234,15.08293 0,-3.34835 -6.14375,-20.59183 -1.22875,-18.75894 1.83289,0.68605 3.82961,4.23919 5.82633,9.68666 3.32787,9.12348 6.62502,23.55107 9.01085,38.75687 3.83985,24.21664 30.97478,65.53341 30.97478,65.53341 z"
     id="path76"
     inkscape:connector-curvature="0"
     style="fill:url(#linear-gradient-8);stroke-width:1.02395964" />
  <path
     d="m 272.69043,147.49826 c 0,0 -5.20171,-6.02088 -9.04156,-5.23244 -3.83985,0.78845 0.76797,7.06533 0.76797,7.06533 0,0 3.21523,5.51914 1.68953,9.34875 -1.5257,3.82961 -2.60086,12.41039 -2.15031,12.71758 0.45054,0.30718 -3.36883,3.83985 -7.50563,-5.20172 a 22.926456,22.926456 0 0 0 -5.81609,-7.83329 c 0,-3.36883 -3.07188,-8.57054 -6.07208,-12.6971 -3.0002,-4.12656 0,-6.28711 0,-6.28711 0,0 7.75138,7.35203 7.89473,6.4407 0.14335,-0.91132 -3.87057,-10.97684 -6.14376,-13.50602 -2.27319,-2.52918 -2.14007,-6.71718 -0.91132,-7.33155 1.22875,-0.61438 13.31147,15.16484 13.31147,15.16484 a 38.849028,38.849028 0 0 0 -2.91828,-11.49907 c -2.44726,-5.35531 -1.83289,-11.33523 0,-10.41367 1.83289,0.92157 9.50234,18.43128 9.50234,15.08293 0,-3.34835 -6.14375,-20.59183 -1.22875,-18.75894 1.83289,0.68605 3.82961,4.23919 5.82633,9.68666 0.041,0 3.25619,16.50622 2.79541,23.25412 z"
     id="path78"
     inkscape:connector-curvature="0"
     style="fill:url(#linear-gradient-9);stroke-width:1.02395964" />
  <path
     d="m 457.15676,580.6127 -37.32333,25.71163 c -5.60106,-10.83349 15.03173,-31.23077 15.03173,-31.23077 0,0 -31.74275,-50.02043 -44.12242,-83.44247 -9.43067,-25.35324 -13.31148,-51.65876 -28.10769,-51.44373 -4.69998,0.0717 -10.49559,2.81589 -17.92954,9.11324 -30.86214,26.11097 -21.14476,114.78587 -21.14476,114.78587 l -9.21564,5.2222 v 0 l -37.03662,20.88877 -1.56666,-8.91868 c -1.4745,-19.9877 25.66043,-29.4798 25.66043,-29.4798 0,0 -3.16403,-43.48757 0,-87.03657 3.16404,-43.549 18.43127,-80.57538 18.43127,-80.57538 l 82.27516,18.6463 12.00081,2.71349 c -0.67582,85.35728 42.33049,173.66356 43.03702,175.02542 z"
     id="path80"
     inkscape:connector-curvature="0"
     style="fill:#3f3d56;stroke-width:1.02395964" />
  <path
     d="m 420.38637,179.97826 a 49.231979,49.231979 0 0 1 -2.69301,10.10648 1.8124085,1.8124085 0 0 1 1.68953,0.92156 c 1.94552,3.24596 -2.60086,14.11017 -8.53982,12.88142 -3.30739,5.49866 -7.08581,10.86421 -12.21584,14.7143 -11.48883,8.62174 -29.22381,7.44418 -39.46341,-2.59062 -7.54658,-7.38275 -10.77205,-18.34936 -10.71061,-28.90638 0.0717,-12.28752 3.37906,-31.81443 11.1202,-41.90043 7.74113,-10.086 24.2576,-6.2052 34.41528,-2.73397 7.85377,2.68277 15.77922,6.35879 20.8683,12.91213 5.29387,6.81957 6.76837,16.05568 5.52938,24.59551 z"
     id="path82"
     inkscape:connector-curvature="0"
     style="fill:url(#linear-gradient-10);stroke-width:1.02395964" />
  <path
     d="m 350.6752,131.99551 c 2.39606,-3.27667 1.39258,-7.79233 1.69977,-11.83697 0.36863,-4.80237 3.42003,-9.84025 8.19168,-10.60822 1.99672,-0.32767 4.0344,0.12287 6.06184,0.10239 4.09584,0 7.94593,-2.04792 11.80625,-3.4917 3.86033,-1.44378 8.37599,-2.38583 12.00081,-0.40958 2.24247,1.21851 3.80913,3.37906 5.72393,5.11979 a 16.813417,16.813417 0 0 0 10.42391,4.09584 c 3.07188,0.1024 6.2052,-0.66557 9.31804,-0.68605 3.11283,-0.0205 6.5431,0.92156 8.19167,3.5429 1.81241,2.79541 1.0854,6.46118 1.69978,9.73785 0.46078,2.42679 2.34486,3.93201 4.46446,5.2222 2.1196,1.29019 4.4747,2.36535 5.94921,4.35183 a 9.4921058,9.4921058 0 0 1 1.11611,8.04832 24.503354,24.503354 0 0 1 -3.87057,7.40323 c -1.02396,1.50522 -2.18103,3.19475 -1.90456,5.00716 0.35839,2.41655 2.93876,3.72721 4.48494,5.6113 a 7.761614,7.761614 0 0 1 -2.5599,11.41715 c -1.26971,0.5939 -2.72373,0.84989 -3.78865,1.76121 -2.5087,2.17079 -1.45402,6.73765 -3.95248,8.91869 -2.04792,1.82265 -5.60106,0.72701 -7.30083,-1.4745 -1.69978,-2.20152 -5.62154,-7.80258 -6.02089,-10.55703 -0.71677,-4.44398 1.7305,-6.43046 -1.33114,-9.72761 -3.58386,-3.83985 -9.04157,-5.1198 -13.90538,-7.06533 -6.01064,-2.44726 -13.39339,-1.94552 -19.34259,-4.53614 -5.25292,-2.29367 -12.88141,-4.60781 -18.20601,-6.73765 -5.32459,-2.12984 -5.80585,-8.42719 -8.9494,-13.20908 z"
     id="path84"
     inkscape:connector-curvature="0"
     style="fill:#3f3d56;stroke-width:1.02395964" />
  <path
     d="m 413.57704,172.32928 13.31147,8.26335 c 0,0 -3.932,11.08949 -7.06532,12.28752 l -16.32191,-7.0346 z"
     id="path86"
     inkscape:connector-curvature="0"
     style="fill:#6872fd;stroke-width:1.02395964" />
  <path
     d="m 413.57704,172.32928 13.31147,8.26335 c 0,0 -3.932,11.08949 -7.06532,12.28752 l -16.32191,-7.0346 z"
     id="path88"
     inkscape:connector-curvature="0"
     style="fill:url(#linear-gradient-11);stroke-width:1.02395964" />
  <path
     d="m 351.49437,132.32318 c 0,0 -17.63259,0.30718 -21.94346,6.4407 -4.31087,6.13352 -8.46815,26.46936 -8.46815,26.46936 l 60.22931,26.46936 c 0,0 7.96641,3.48146 14.85765,-1.44379 6.89125,-4.92524 18.78966,-8.92893 18.29816,-15.2058 -0.4915,-6.27687 4.38255,-12.6971 -5.42698,-17.59162 -9.80954,-4.89453 -51.04439,-11.67314 -57.54653,-25.13821 z"
     id="path90"
     inkscape:connector-curvature="0"
     style="fill:#6872fd;stroke-width:1.02395964" />
  <path
     d="m 351.49437,132.32318 c 0,0 -17.63259,0.30718 -21.94346,6.4407 -4.31087,6.13352 -8.46815,26.46936 -8.46815,26.46936 l 60.22931,26.46936 c 0,0 7.96641,3.48146 14.85765,-1.44379 6.89125,-4.92524 18.78966,-8.92893 18.29816,-15.2058 -0.4915,-6.27687 4.38255,-12.6971 -5.42698,-17.59162 -9.80954,-4.89453 -51.04439,-11.67314 -57.54653,-25.13821 z"
     id="path92"
     inkscape:connector-curvature="0"
     style="fill:url(#linear-gradient-12);stroke-width:1.02395964" />
  <path
     d="m 329.55091,138.76388 c 0,0 60.03475,22.11753 62.56393,24.23713 2.52918,2.11959 -1.38234,17.74522 -5.05836,25.32252 -3.67601,7.5773 -9.99384,4.56686 -9.99384,4.56686 L 322.6187,171.55107 c 0,0 -3.53266,-2.29367 0,-14.24328 3.53266,-11.94961 5.46795,-15.71778 6.93221,-18.54391 z"
     id="path94"
     inkscape:connector-curvature="0"
     style="fill:#6872fd;stroke-width:1.02395964" />
  <path
     d="m 329.55091,138.76388 c 0,0 60.03475,22.11753 62.56393,24.23713 2.52918,2.11959 -1.38234,17.74522 -5.05836,25.32252 -3.67601,7.5773 -9.99384,4.56686 -9.99384,4.56686 L 322.6187,171.55107 c 0,0 -3.53266,-2.29367 0,-14.24328 3.53266,-11.94961 5.46795,-15.71778 6.93221,-18.54391 z"
     id="path96"
     inkscape:connector-curvature="0"
     style="fill:url(#linear-gradient-13);stroke-width:1.02395964" />
  <path
     d="m 320.25336,152.22895 c 0.47102,-1.65881 3.22547,-3.25619 4.84333,-2.65205 13.05548,4.88428 63.57765,24.72862 69.15823,24.72862 6.39975,0 20.25392,-2.81589 20.25392,-2.81589 a 7.5363429,7.5363429 0 0 1 0,3.56338 c -0.52222,1.38235 -16.72126,7.6797 -23.73538,6.51239 -6.14376,-1.02396 -56.53281,-18.29816 -68.52338,-22.80359 -1.42331,-0.53245 -2.74421,-3.85008 -2.33463,-5.32459 z"
     id="path98"
     inkscape:connector-curvature="0"
     style="fill:#6872fd;stroke-width:1.02395964" />
  <path
     d="m 320.25336,152.22895 c 0.47102,-1.65881 3.22547,-3.25619 4.84333,-2.65205 13.05548,4.88428 63.57765,24.72862 69.15823,24.72862 6.39975,0 20.25392,-2.81589 20.25392,-2.81589 a 7.5363429,7.5363429 0 0 1 0,3.56338 c -0.52222,1.38235 -16.72126,7.6797 -23.73538,6.51239 -6.14376,-1.02396 -56.53281,-18.29816 -68.52338,-22.80359 -1.42331,-0.53245 -2.74421,-3.85008 -2.33463,-5.32459 z"
     id="path100"
     inkscape:connector-curvature="0"
     style="fill:url(#linear-gradient-14);stroke-width:1.02395964" />
  <path
     d="m 305.28307,253.99006 h 25.8857 a 11.058764,11.058764 0 0 1 10.86421,13.16812 l -0.0614,0.33791 -38.634,-2.6111 z"
     id="path102"
     inkscape:connector-curvature="0"
     style="fill:url(#linear-gradient-15);stroke-width:1.02395964" />
  <path
     d="M 457.14652,580.59222 C 403.82894,524.50995 402.07797,402.85331 402.07797,402.85331 l 12.00081,2.71349 c -0.6451,85.35728 42.36121,173.66356 43.06774,175.02542 z"
     id="path104"
     inkscape:connector-curvature="0"
     style="fill:#25233a;stroke-width:1.02395964" />
  <path
     d="m 362.63505,440.20736 c -4.69998,0.0717 -10.49559,2.81589 -17.92954,9.11324 -30.86214,26.11097 -21.14476,114.78587 -21.14476,114.78587 l -9.21564,5.2222 v 0 c -7.72066,-46.46729 -8.19168,-86.4222 15.53347,-118.28782 9.34875,-12.6459 31.33316,-10.98709 32.75647,-10.83349 z"
     id="path106"
     inkscape:connector-curvature="0"
     style="fill:#25233a;stroke-width:1.02395964" />
  <path
     d="m 179.48963,570.34239 c -3.40979,6.46118 -4.66926,14.41735 -10.2396,19.14804 -5.57034,4.7307 -14.51975,5.0174 -19.45523,10.60822 -6.14376,6.98341 -2.20152,18.77942 5.46794,24.0221 7.66946,5.24267 17.50971,5.75465 26.78679,6.08232 l 251.9555,9.0006 c 17.56091,0.62462 36.68848,0.77821 50.66552,-9.86073 17.08989,-12.99405 19.45524,-41.29629 4.71022,-56.92191 7.48514,-0.63486 15.27748,-1.38235 21.6977,-5.29388 6.42023,-3.91152 10.93589,-12.03152 8.26336,-19.05588 -3.38931,-8.87773 -15.00101,-10.63895 -24.50336,-10.81302 -63.01447,-1.15707 -123.19258,12.6971 -185.53124,15.89186 -34.31289,1.74073 -109.56368,-21.19597 -129.8176,17.19228 z"
     id="path108"
     inkscape:connector-curvature="0"
     style="opacity:0.18999999;fill:url(#linear-gradient-16);stroke-width:1.02395964" />
  <path
     d="m 249.60014,274.00847 c 4.17776,16.49599 23.55107,23.23364 40.06754,27.13493 41.51133,9.79929 75.59894,7.55682 117.53009,-0.28671 18.84086,-3.52242 47.79843,-4.59758 70.58154,1.71001 2.04792,0.58366 7.29059,-17.23324 5.97992,-18.97397 -0.91132,-1.20827 -18.23672,-3.20499 -19.72146,-3.48146 -13.09645,-2.37559 -45.76076,-1.49498 -58.99032,0 -31.8349,3.62482 -68.83056,-36.93422 -80.56514,-7.25987 -1.72025,4.36206 -78.33291,-12.51279 -74.88217,1.15707 z"
     id="path110"
     inkscape:connector-curvature="0"
     style="opacity:0.56999966;fill:#ffffff;stroke-width:1.02395964" />
</svg>
