<?xml version="1.0" standalone="no"?>
<!DOCTYPE svg PUBLIC "-//W3C//DTD SVG 20010904//EN"
 "http://www.w3.org/TR/2001/REC-SVG-20010904/DTD/svg10.dtd">
<svg version="1.0" xmlns="http://www.w3.org/2000/svg"
 width="1024.000000pt" height="1024.000000pt" viewBox="0 0 1024.000000 1024.000000"
 preserveAspectRatio="xMidYMid meet">

<g transform="translate(0.000000,1024.000000) scale(0.100000,-0.100000)"
fill="#000000" stroke="none">
<path d="M0 5120 l0 -5120 5120 0 5120 0 0 5120 0 5120 -5120 0 -5120 0 0
-5120z m4637 4508 c25 -29 83 -117 83 -127 0 -4 12 -18 26 -32 14 -13 34 -38
45 -55 l19 -31 82 24 c181 54 381 53 566 0 l83 -24 17 23 c9 12 48 68 86 124
38 55 78 106 88 111 31 16 68 3 68 -24 0 -31 -22 -77 -37 -77 -7 0 -13 -6 -13
-12 0 -7 -25 -49 -55 -92 -30 -44 -55 -84 -55 -90 1 -6 26 -27 56 -46 31 -19
84 -60 119 -90 63 -55 155 -160 155 -178 0 -5 7 -16 16 -23 32 -26 120 -266
112 -305 -3 -16 -15 -18 -121 -15 -119 3 -152 -5 -141 -34 3 -7 1 -16 -5 -20
-6 -3 -11 -19 -11 -35 0 -56 -46 -200 -71 -220 -8 -6 -40 -69 -37 -72 7 -9
-139 -141 -192 -173 -36 -21 -67 -43 -68 -47 -2 -4 -7 -6 -12 -3 -4 3 -25 -2
-45 -11 -48 -20 -165 -42 -230 -44 -84 -3 -266 43 -306 77 -8 7 -20 13 -25 13
-14 0 -133 97 -163 133 -14 17 -29 39 -34 50 -4 12 -13 17 -22 13 -10 -3 -15
1 -15 12 0 10 -13 44 -29 75 -16 31 -27 57 -26 57 2 0 -3 19 -11 43 -9 23 -17
60 -20 82 -2 22 -8 41 -14 43 -6 2 -6 10 1 23 18 35 2 40 -118 38 -73 -1 -118
3 -122 9 -12 20 1 90 19 110 11 11 17 28 14 40 -6 22 47 133 100 207 39 55
145 165 158 165 5 0 24 15 42 34 19 18 53 44 77 57 51 29 55 38 29 67 -40 43
-150 211 -150 230 0 44 54 56 87 20z m-443 -769 c-10 -16 -13 -268 -4 -274 5
-3 6 -13 3 -21 -8 -22 29 -174 43 -174 6 0 11 -12 11 -27 0 -16 3 -40 7 -54 6
-25 2 -28 -80 -59 -48 -18 -98 -39 -113 -46 -14 -8 -31 -14 -38 -14 -7 0 -35
-13 -63 -30 -27 -16 -71 -39 -98 -51 -26 -12 -60 -31 -77 -43 -37 -26 -64 -42
-92 -55 -12 -5 -25 -17 -30 -25 -4 -8 -12 -16 -18 -17 -5 -1 -24 -12 -41 -25
-17 -13 -36 -24 -42 -24 -7 0 -12 -4 -12 -10 0 -5 -5 -10 -12 -10 -6 0 -28
-17 -49 -37 -20 -21 -43 -39 -50 -41 -18 -5 -83 -72 -92 -94 -6 -17 39 -18
796 -20 441 -2 1235 -1 1765 2 l963 5 -63 55 c-34 30 -62 54 -63 52 0 -2 -22
17 -50 42 -27 25 -53 46 -58 46 -5 0 -26 15 -47 33 -21 18 -60 44 -85 57 -59
31 -69 37 -133 78 -28 19 -55 31 -61 28 -5 -3 -12 1 -15 10 -3 8 -23 22 -43
30 -21 8 -55 24 -77 36 -31 17 -40 18 -47 7 -8 -12 -13 -6 -11 12 1 4 -17 13
-39 22 -39 15 -40 17 -25 39 18 28 38 81 67 178 18 61 23 103 24 223 2 81 4
149 6 151 8 7 167 -44 204 -66 11 -6 45 -24 75 -38 150 -74 210 -105 263 -136
32 -18 59 -32 60 -31 1 1 9 -4 17 -10 47 -39 84 -66 160 -116 47 -31 111 -77
143 -102 31 -25 64 -45 72 -45 9 0 19 -10 24 -22 5 -13 31 -42 58 -65 79 -68
123 -110 123 -118 0 -12 154 -161 173 -168 10 -4 17 -13 14 -20 -2 -6 12 -32
31 -57 50 -64 66 -77 81 -72 9 3 11 -2 7 -15 -4 -12 0 -25 9 -33 8 -7 15 -18
15 -24 1 -6 14 -27 30 -46 17 -19 30 -40 30 -46 0 -7 3 -14 8 -16 21 -9 94
-134 204 -348 18 -36 36 -67 40 -70 3 -3 10 -19 14 -35 4 -17 16 -48 27 -70
11 -22 20 -42 20 -45 0 -3 4 -16 10 -30 5 -14 11 -29 12 -35 0 -5 5 -19 9 -30
9 -22 18 -47 21 -55 1 -3 4 -12 7 -20 3 -8 12 -37 18 -65 7 -27 17 -54 21 -59
5 -6 9 -21 9 -35 1 -15 7 -37 14 -50 8 -14 12 -31 9 -38 -3 -8 3 -21 13 -29
12 -9 15 -17 8 -20 -10 -4 5 -102 23 -154 3 -8 7 -35 9 -60 4 -43 11 -85 14
-85 2 0 9 -62 15 -135 9 -102 11 -501 3 -540 -4 -19 -15 -91 -23 -160 -16
-124 -31 -211 -59 -331 -8 -34 -13 -66 -10 -71 3 -5 0 -17 -8 -26 -8 -9 -20
-44 -27 -77 -7 -33 -21 -78 -32 -101 -10 -23 -19 -48 -19 -55 0 -8 -7 -25 -16
-37 -8 -12 -13 -26 -10 -30 2 -4 -15 -47 -40 -96 -24 -48 -44 -93 -44 -100 0
-8 -7 -19 -15 -26 -8 -7 -12 -16 -10 -20 5 -8 -23 -66 -45 -95 -19 -26 -80
-145 -73 -145 4 0 0 -6 -9 -13 -9 -6 -26 -31 -38 -54 -12 -24 -25 -43 -29 -43
-4 0 -20 -22 -36 -50 -17 -27 -33 -50 -37 -50 -5 0 -8 -7 -8 -15 0 -9 -7 -18
-15 -21 -8 -4 -15 -11 -15 -18 0 -13 -18 -38 -67 -94 -18 -20 -33 -40 -33 -44
0 -5 -16 -22 -35 -39 -19 -17 -32 -35 -29 -40 3 -5 1 -9 -5 -9 -12 0 -131
-118 -131 -130 0 -5 -9 -11 -20 -15 -11 -4 -23 -20 -28 -38 -5 -18 -16 -34
-28 -37 -31 -8 -74 -41 -74 -56 0 -8 -6 -14 -13 -14 -7 0 -26 -13 -42 -30 -16
-17 -35 -30 -42 -30 -7 0 -20 -11 -28 -24 -9 -13 -29 -29 -45 -36 -17 -7 -30
-16 -30 -20 0 -4 -25 -24 -55 -44 -30 -20 -55 -40 -55 -45 0 -5 -13 -14 -30
-21 -16 -7 -30 -16 -30 -21 0 -5 -6 -6 -13 -3 -7 2 -22 -3 -33 -13 -11 -10
-31 -24 -45 -32 -40 -24 -111 -63 -151 -83 -21 -10 -38 -23 -38 -29 0 -6 -4
-8 -9 -5 -8 5 -149 -61 -161 -75 -3 -3 -23 -12 -45 -18 -22 -7 -58 -19 -80
-28 -65 -25 -76 -29 -175 -62 -52 -17 -111 -34 -130 -37 -19 -4 -37 -10 -38
-15 -2 -5 -8 -7 -13 -3 -5 3 -9 1 -9 -3 0 -5 -12 -8 -27 -8 -16 1 -39 -3 -53
-8 -14 -5 -36 -11 -50 -13 -14 -2 -34 -6 -45 -8 -11 -2 -65 -11 -119 -19 -55
-9 -103 -22 -108 -29 -7 -10 -11 -10 -14 -1 -3 7 -17 10 -32 8 -49 -9 -117
-16 -144 -15 -16 0 -28 -4 -28 -10 0 -5 -5 -10 -11 -10 -5 0 -8 4 -5 9 7 11
-166 13 -217 1 -21 -4 -39 -4 -43 1 -8 14 -54 11 -54 -3 0 -9 -2 -10 -8 -2 -4
6 -29 12 -55 12 -26 1 -53 4 -58 8 -6 4 -15 1 -19 -7 -7 -10 -12 -10 -22 -1
-8 6 -74 20 -147 31 -73 12 -136 23 -141 26 -5 3 -10 0 -12 -6 -3 -8 -12 -7
-31 6 -15 9 -33 15 -42 12 -8 -4 -17 -2 -20 3 -4 6 -21 10 -39 10 -17 0 -36 4
-42 10 -5 5 -25 12 -44 14 -20 2 -55 12 -80 21 -25 9 -79 27 -120 41 -41 13
-82 27 -90 31 -8 3 -19 7 -25 8 -5 2 -34 14 -64 29 -30 14 -60 26 -65 26 -6 0
-24 7 -39 15 -15 8 -34 12 -42 8 -9 -3 -15 1 -15 11 0 9 -15 19 -39 26 -22 6
-41 14 -43 18 -2 4 -28 20 -58 36 -109 57 -121 64 -135 76 -8 7 -15 10 -15 6
0 -4 -23 12 -51 34 -28 22 -55 40 -60 40 -5 0 -46 29 -92 65 -47 35 -87 62
-91 58 -3 -3 -6 -1 -6 5 0 7 -7 12 -15 12 -8 0 -15 6 -15 13 -1 6 -26 32 -56
57 -31 25 -86 74 -124 110 -37 36 -81 77 -97 91 -31 28 -73 74 -147 161 -26
32 -53 55 -58 52 -5 -3 -8 0 -6 7 3 13 -34 67 -73 109 -9 9 -27 36 -39 59 -13
22 -27 41 -32 41 -4 0 -8 5 -8 11 0 6 -10 24 -22 39 -23 27 -37 51 -88 140
-42 75 -54 90 -68 90 -8 0 -12 6 -9 15 3 7 -23 72 -57 142 -35 70 -67 139 -71
153 -3 14 -10 34 -15 45 -20 44 -100 288 -100 303 -1 9 -9 35 -19 56 -11 22
-17 46 -14 53 3 7 0 19 -6 27 -6 7 -9 21 -5 30 3 9 1 16 -6 16 -6 0 -8 4 -5
10 3 5 -1 38 -10 72 -9 35 -19 86 -21 113 -3 28 -9 77 -15 110 -11 74 -18 205
-19 395 -1 174 6 283 26 411 8 52 14 100 13 105 -1 5 1 17 6 27 4 9 5 29 2 44
-3 15 1 36 9 48 7 11 21 57 29 100 9 44 20 89 24 100 5 11 28 81 52 155 23 74
46 140 49 145 4 6 13 28 20 50 18 56 68 163 80 170 6 3 10 14 10 24 0 10 13
43 29 73 17 31 27 59 23 63 -4 5 -2 5 4 2 7 -4 19 11 30 36 10 23 37 68 59
101 22 32 49 75 60 95 25 43 101 147 114 155 5 4 12 19 16 35 4 19 12 28 23
27 12 -1 18 8 20 27 2 18 11 31 25 36 12 5 36 25 52 46 90 111 193 214 315
316 41 34 77 65 80 69 7 10 85 68 135 101 22 14 58 42 80 62 22 20 48 37 57
37 9 0 20 5 23 10 4 6 24 19 46 30 21 11 38 26 36 33 -1 6 5 12 13 12 13 0 44
15 195 94 22 12 43 21 47 21 5 0 41 16 82 35 88 43 388 154 399 148 4 -3 5 -9
1 -14z m3326 -6588 c0 -6 -9 -25 -19 -43 -53 -89 -111 -298 -111 -397 0 -103
62 -322 115 -402 13 -20 21 -40 18 -43 -4 -3 -34 -6 -67 -6 l-61 1 -38 49
c-149 193 -179 459 -78 676 18 38 50 92 73 121 l40 53 64 0 c35 0 64 -4 64 -9z
m226 -34 c100 -133 138 -246 138 -407 0 -128 -31 -241 -95 -341 -67 -105 -73
-109 -146 -109 -35 0 -63 2 -63 4 0 3 16 35 35 73 65 128 87 221 88 368 2 166
-23 257 -121 448 -2 4 27 7 65 7 l68 -1 31 -42z m-3634 -26 c95 -37 147 -109
165 -228 l6 -43 -110 0 -110 0 -13 46 c-22 77 -98 106 -167 64 -49 -29 -57
-54 -57 -165 0 -111 8 -136 57 -165 38 -23 75 -25 121 -6 31 13 50 43 58 91 3
18 12 20 106 23 122 3 124 1 99 -95 -27 -102 -81 -158 -187 -189 -77 -23 -248
-16 -311 13 -88 39 -143 106 -169 204 -15 54 -15 193 -1 245 17 61 62 135 104
168 83 66 284 84 409 37z m2258 -66 l0 -75 60 0 60 0 0 -70 0 -70 -60 0 -60 0
0 -108 c0 -133 10 -152 76 -152 l44 0 0 -59 c0 -37 -5 -63 -12 -67 -22 -14
-184 -17 -221 -4 -20 6 -48 25 -62 41 -24 30 -25 34 -25 190 l0 159 -40 0 -40
0 0 70 0 70 43 0 44 0 11 48 c24 103 22 102 107 102 l75 0 0 -75z m-3652 -93
c51 -27 87 -63 115 -117 30 -58 29 -203 -1 -262 -50 -97 -116 -135 -248 -141
-157 -7 -246 34 -298 140 -37 75 -37 191 0 266 53 106 130 143 289 139 81 -2
108 -7 143 -25z m688 12 c18 -9 44 -33 56 -53 22 -34 23 -48 26 -253 l3 -218
-105 0 -106 0 0 179 c0 171 -1 181 -21 195 -27 18 -69 11 -91 -15 -16 -18 -18
-44 -18 -190 l0 -169 -105 0 -105 0 0 265 0 265 84 0 c89 0 96 -4 96 -53 0
-20 1 -20 28 6 15 14 43 33 62 41 47 20 153 20 196 0z m1338 10 c13 -5 16 -23
16 -89 l0 -83 -65 -4 c-104 -6 -109 -15 -115 -201 l-5 -152 -102 -3 -103 -3 0
266 0 265 85 0 86 0 5 -30 6 -30 21 26 c11 14 29 30 41 34 25 10 108 13 130 4z
m470 -4 c103 -23 174 -119 178 -240 l3 -65 -192 -3 c-209 -3 -206 -2 -181 -56
27 -61 168 -48 168 16 0 16 10 18 106 18 l106 0 -7 -37 c-22 -117 -113 -173
-285 -173 -120 0 -183 20 -241 79 -29 28 -51 61 -58 86 -14 51 -14 168 0 220
14 53 101 138 155 153 49 13 197 14 248 2z m666 -1 c52 -11 101 -44 123 -83 7
-12 14 -78 17 -161 l5 -140 30 -5 c29 -5 30 -7 33 -66 3 -61 3 -62 -29 -73
-70 -24 -185 -7 -218 33 -12 14 -16 14 -40 -4 -40 -28 -112 -43 -183 -38 -77
5 -115 23 -145 67 -44 65 -19 185 45 223 46 28 140 48 219 48 71 0 73 1 73 25
0 47 -98 67 -132 25 -14 -17 -28 -20 -110 -20 -52 0 -97 2 -100 6 -3 3 -2 21
2 41 12 51 67 103 126 119 61 16 216 18 284 3z m1120 -13 c88 -46 140 -136
140 -241 l0 -55 -196 0 -196 0 7 -27 c9 -39 22 -51 62 -62 49 -14 105 6 113
39 6 24 8 25 108 28 l102 3 0 -26 c0 -68 -63 -142 -144 -169 -65 -21 -205 -21
-276 0 -113 34 -171 109 -178 233 -7 123 23 197 104 254 56 39 91 46 214 44
78 -2 114 -8 140 -21z"/>
<path d="M2929 7253 c-12 -21 -31 -46 -41 -56 -10 -10 -18 -27 -18 -37 0 -11
-4 -20 -9 -20 -6 0 -16 -11 -23 -24 -35 -63 -156 -313 -161 -331 -3 -11 -21
-65 -41 -120 -20 -55 -36 -113 -36 -128 0 -15 -7 -38 -15 -51 -9 -13 -18 -37
-21 -52 -2 -16 -9 -49 -14 -74 -21 -101 -41 -245 -46 -332 -9 -142 -10 -279
-4 -283 4 -2 5 -30 3 -62 -4 -72 25 -327 38 -331 5 -2 6 -8 3 -13 -3 -6 1 -40
10 -77 9 -37 18 -76 20 -87 1 -11 8 -33 14 -48 7 -16 12 -32 12 -36 0 -13 56
-191 76 -241 10 -25 28 -61 40 -81 13 -20 21 -39 18 -42 -3 -2 9 -28 26 -56
16 -29 30 -56 30 -60 0 -15 53 -106 67 -114 7 -4 13 -13 13 -19 0 -6 20 -40
44 -77 24 -36 49 -77 56 -91 57 -113 472 -540 525 -540 3 0 16 -9 28 -21 31
-29 104 -79 115 -79 6 0 12 -3 14 -7 4 -10 94 -73 103 -73 4 0 20 -9 36 -21
34 -24 283 -149 297 -149 5 0 27 -8 48 -17 22 -9 42 -17 46 -17 3 -1 10 -4 14
-8 4 -5 18 -8 31 -8 13 0 40 -9 60 -20 20 -10 62 -24 92 -31 31 -6 63 -14 71
-18 8 -4 35 -8 60 -10 25 -2 50 -6 55 -11 12 -9 53 -18 115 -25 25 -2 72 -9
105 -14 36 -5 61 -5 63 1 2 5 11 3 20 -4 20 -17 467 -16 500 1 12 6 22 8 22 3
0 -11 117 13 135 28 7 6 16 7 19 2 3 -5 24 -6 48 -2 24 5 46 6 50 4 4 -2 10 1
13 7 4 5 13 8 20 5 7 -2 16 -2 19 2 4 3 14 7 24 8 9 1 46 12 82 24 36 12 78
24 94 26 16 2 34 8 40 12 6 5 35 17 65 26 60 19 100 36 238 103 51 24 95 48
98 53 4 6 14 10 24 10 10 0 26 9 36 20 10 11 20 18 23 15 5 -5 125 75 130 88
2 4 8 5 13 1 5 -3 12 2 15 10 3 9 10 16 16 16 8 0 32 17 108 80 l25 21 -690
-2 c-379 -2 -908 1 -1174 6 l-484 8 -149 151 c-81 83 -153 156 -159 161 -5 6
-20 21 -32 34 -12 13 -28 29 -35 35 -7 6 -30 27 -51 46 -22 19 -45 40 -53 47
-7 7 -24 26 -38 44 -14 17 -31 37 -38 43 -7 6 -21 19 -30 30 -9 10 -23 24 -30
30 -7 6 -22 19 -32 29 -10 11 -23 24 -30 30 -37 37 -111 112 -147 151 -24 25
-46 46 -50 46 -5 0 -21 17 -38 37 -16 19 -38 43 -49 52 -21 18 -242 238 -268
267 -9 11 -32 34 -50 51 -18 18 -37 37 -43 43 -28 29 -67 60 -75 60 -5 0 -11
-51 -12 -112 -2 -62 -5 406 -6 1041 -1 635 -4 1156 -6 1158 -2 2 -14 -13 -27
-34z"/>
<path d="M7240 6488 l0 -773 -249 -250 -248 -250 -7 -55 c-17 -134 -70 -312
-129 -435 l-34 -70 21 -14 c11 -8 24 -20 29 -27 4 -7 34 -39 67 -71 33 -32 83
-82 112 -110 29 -29 59 -59 66 -65 20 -20 45 -45 68 -70 12 -13 39 -40 60 -60
22 -20 44 -43 50 -50 12 -15 7 -41 -7 -32 -5 3 -9 -1 -9 -9 0 -8 -11 -26 -25
-41 -14 -15 -23 -32 -20 -37 4 -5 -6 -14 -22 -21 -24 -10 -25 -12 -9 -16 20
-4 105 76 168 158 109 142 118 155 189 280 9 16 24 41 34 56 39 60 116 218
111 230 -3 7 1 15 9 18 7 2 22 31 32 63 9 32 21 60 24 63 4 3 11 19 15 35 4
17 12 36 18 44 6 8 10 16 8 18 -4 5 10 57 18 68 4 6 7 17 7 27 0 9 7 40 16 70
10 29 24 87 31 128 8 41 16 84 19 96 9 38 11 89 4 101 -4 7 -1 26 8 42 8 16
15 40 15 53 0 13 2 100 4 193 5 187 -8 364 -33 475 -5 19 -9 44 -9 55 0 36
-10 89 -26 135 -9 25 -16 55 -16 67 0 12 -4 25 -10 28 -5 3 -10 19 -10 34 0
15 -4 31 -8 37 -4 5 -16 34 -26 64 -10 30 -27 74 -37 97 -10 24 -19 47 -19 52
0 17 -81 186 -93 193 -7 4 -8 8 -3 8 5 0 2 8 -6 18 -9 9 -19 27 -22 39 -9 27
-100 168 -115 177 -8 5 -11 -207 -11 -766z"/>
<path d="M6550 4620 c0 -5 4 -10 10 -10 5 0 19 -10 31 -22 l21 -23 -12 25
c-18 35 -50 54 -50 30z"/>
<path d="M6620 4562 c0 -13 80 -92 93 -92 5 0 -3 12 -19 27 -16 14 -39 37 -51
50 -13 13 -23 20 -23 15z"/>
<path d="M6730 4447 c8 -7 21 -19 29 -27 11 -13 12 -12 3 6 -7 12 -19 24 -29
28 -16 5 -16 4 -3 -7z"/>
<path d="M6780 4403 c0 -9 38 -45 60 -58 8 -4 6 1 -5 12 -11 10 -28 27 -37 37
-10 10 -18 14 -18 9z"/>
<path d="M6850 4325 c0 -5 36 -41 74 -72 40 -35 31 -18 -18 32 -41 41 -56 52
-56 40z"/>
<path d="M6976 4197 c2 -7 14 -18 25 -25 19 -12 20 -12 3 13 -17 26 -37 35
-28 12z"/>
<path d="M6934 4012 c-11 -7 -34 -46 -34 -57 0 -10 26 18 39 43 13 24 12 26
-5 14z"/>
<path d="M6816 3895 c-24 -25 -19 -39 6 -15 12 11 19 22 16 25 -3 3 -13 -1
-22 -10z"/>
<path d="M6747 3843 c-4 -3 -7 -13 -7 -21 0 -12 3 -12 15 -2 8 7 15 16 15 21
0 11 -14 12 -23 2z"/>
<path d="M2513 1925 c-39 -16 -58 -74 -50 -147 7 -57 23 -84 59 -99 93 -38
156 70 116 202 -9 32 -17 41 -47 49 -44 12 -39 12 -78 -5z"/>
<path d="M5078 1942 c-25 -3 -68 -43 -68 -63 0 -5 38 -9 85 -9 76 0 85 2 85
18 0 36 -47 61 -102 54z"/>
<path d="M5755 1759 c-63 -7 -83 -16 -90 -40 -13 -39 32 -64 89 -48 39 11 59
37 54 72 -3 20 -7 22 -53 16z"/>
<path d="M6810 1937 c-19 -7 -40 -23 -47 -37 l-12 -25 86 -3 c47 -2 87 -1 90
1 12 12 -20 56 -48 66 -17 6 -32 11 -33 10 -1 0 -17 -5 -36 -12z"/>
</g>
</svg>
