<?xml version="1.0" encoding="UTF-8" standalone="no"?>
<svg
   xmlns:dc="http://purl.org/dc/elements/1.1/"
   xmlns:cc="http://creativecommons.org/ns#"
   xmlns:rdf="http://www.w3.org/1999/02/22-rdf-syntax-ns#"
   xmlns:svg="http://www.w3.org/2000/svg"
   xmlns="http://www.w3.org/2000/svg"
   xmlns:xlink="http://www.w3.org/1999/xlink"
   xmlns:sodipodi="http://sodipodi.sourceforge.net/DTD/sodipodi-0.dtd"
   xmlns:inkscape="http://www.inkscape.org/namespaces/inkscape"
   id="Layer_1"
   data-name="Layer 1"
   viewBox="0 0 450.00001 349.99999"
   version="1.1"
   sodipodi:docname="people.svg"
   width="450"
   height="350"
   inkscape:version="0.92.3 (2405546, 2018-03-11)">
  <metadata
     id="metadata95">
    <rdf:RDF>
      <cc:Work
         rdf:about="">
        <dc:format>image/svg+xml</dc:format>
        <dc:type
           rdf:resource="http://purl.org/dc/dcmitype/StillImage" />
        <dc:title>User Group</dc:title>
      </cc:Work>
    </rdf:RDF>
  </metadata>
  <sodipodi:namedview
     pagecolor="#ffffff"
     bordercolor="#666666"
     borderopacity="1"
     objecttolerance="10"
     gridtolerance="10"
     guidetolerance="10"
     inkscape:pageopacity="0"
     inkscape:pageshadow="2"
     inkscape:window-width="1920"
     inkscape:window-height="1010"
     id="namedview93"
     showgrid="false"
     inkscape:zoom="2.3285714"
     inkscape:cx="225"
     inkscape:cy="175"
     inkscape:window-x="0"
     inkscape:window-y="0"
     inkscape:window-maximized="1"
     inkscape:current-layer="Layer_1" />
  <defs
     id="defs26">
    <linearGradient
       id="linear-gradient"
       x1="216.42"
       y1="248.78"
       x2="434.88"
       y2="361.14001"
       gradientUnits="userSpaceOnUse">
      <stop
         offset="0"
         stop-opacity="0"
         id="stop2" />
      <stop
         offset="0.99"
         id="stop4" />
    </linearGradient>
    <linearGradient
       id="linear-gradient-2"
       x1="128.89999"
       y1="187.45"
       x2="162.69"
       y2="157.98"
       gradientUnits="userSpaceOnUse">
      <stop
         offset="0"
         stop-opacity="0"
         id="stop7" />
      <stop
         offset="0.6"
         stop-opacity="0.36"
         id="stop9" />
      <stop
         offset="0.99"
         id="stop11" />
    </linearGradient>
    <linearGradient
       id="linear-gradient-3"
       x1="64.779999"
       y1="202.49001"
       x2="67.690002"
       y2="164.66"
       xlink:href="#linear-gradient"
       gradientTransform="translate(12.682751,-18.39735)" />
    <linearGradient
       id="linear-gradient-4"
       x1="106.57"
       y1="178.66"
       x2="105.37"
       y2="232.8"
       xlink:href="#linear-gradient"
       gradientTransform="translate(12.682751,-18.39735)" />
    <linearGradient
       id="linear-gradient-5"
       x1="83.75"
       y1="260.82001"
       x2="214.75999"
       y2="328.20001"
       xlink:href="#linear-gradient"
       gradientTransform="translate(12.682751,-18.39735)" />
    <linearGradient
       id="linear-gradient-6"
       x1="192.00999"
       y1="259.67001"
       x2="232.94"
       y2="201.62"
       xlink:href="#linear-gradient"
       gradientTransform="translate(12.682751,-18.39735)" />
    <linearGradient
       id="linear-gradient-7"
       x1="105.52"
       y1="239.12"
       x2="113.54"
       y2="201.83"
       xlink:href="#linear-gradient"
       gradientTransform="translate(12.682751,-18.39735)" />
    <linearGradient
       id="linear-gradient-8"
       x1="275.13"
       y1="181.84"
       x2="293.17999"
       y2="182.74001"
       xlink:href="#linear-gradient"
       gradientTransform="translate(12.682751,-18.39735)" />
    <linearGradient
       id="linear-gradient-9"
       x1="-1863.28"
       y1="182.03999"
       x2="-1845.23"
       y2="182.94"
       gradientTransform="matrix(-1,0,0,1,-1491.4472,-18.39735)"
       xlink:href="#linear-gradient" />
    <linearGradient
       id="linear-gradient-10"
       x1="256.48999"
       y1="206.62"
       x2="228.55"
       y2="194.17999"
       xlink:href="#linear-gradient"
       gradientTransform="translate(12.682751,-18.39735)" />
    <linearGradient
       id="linear-gradient-11"
       x1="162.85001"
       y1="204.17999"
       x2="178.78999"
       y2="196.16"
       xlink:href="#linear-gradient"
       gradientTransform="translate(12.682751,-18.39735)" />
    <linearGradient
       id="linear-gradient-12"
       x1="177.53999"
       y1="193.69"
       x2="170.32001"
       y2="162.41"
       xlink:href="#linear-gradient-2"
       gradientTransform="translate(12.682751,-18.39735)" />
    <linearGradient
       id="linear-gradient-13"
       x1="259.07001"
       y1="150.25"
       x2="230.39999"
       y2="182.34"
       xlink:href="#linear-gradient-2"
       gradientTransform="translate(12.682751,-18.39735)" />
    <linearGradient
       id="linear-gradient-14"
       x1="318.76001"
       y1="247.55"
       x2="300.34"
       y2="164.31"
       xlink:href="#linear-gradient"
       gradientTransform="translate(12.682751,-18.39735)" />
    <linearGradient
       inkscape:collect="always"
       xlink:href="#linear-gradient"
       id="linearGradient902"
       gradientUnits="userSpaceOnUse"
       x1="216.42"
       y1="248.78"
       x2="434.88"
       y2="361.14001"
       gradientTransform="translate(12.682751,-18.39735)" />
    <linearGradient
       inkscape:collect="always"
       xlink:href="#linear-gradient-2"
       id="linearGradient904"
       gradientUnits="userSpaceOnUse"
       x1="128.89999"
       y1="187.45"
       x2="162.69"
       y2="157.98"
       gradientTransform="translate(12.682751,-18.39735)" />
  </defs>
  <title
     id="title28">User Group</title>
  <path
     d="m 40.232751,287.17265 c -35.18,-25.48 -26.45,-86.33 -24.16,-105.92999 1.27,-10.79 3.92,-21.58001 9.38,-30.82 15.73,-26.64 49.23,-33.37 73.99,-50.820005 C 126.99275,80.29265 144.53275,46.98265 174.18275,31.48265 c 16.32,-8.53 34.91,-10.84 53.12,-11.86 33.06,-1.86 69.24,1.27 93.81,24.61 17.77,16.88 26.63,41.790005 42.42,60.72001 13.92,16.7 32.72,28.15 47.29,44.22999 21.64,23.86 32.7,60.37001 21,90.95001 -10.87,28.32999 -27.51,46.92 -36.14,49.71999 -27.7,9 -88.24,10.09 -117.21,12.15 -31.05,2.2 -59,-2.62 -90.11,-2.52 -48,0.16 -113.489999,2.81 -148.089999,-12.35"
     style="opacity:1;isolation:isolate;fill:#ff2a2a"
     id="path30"
     inkscape:connector-curvature="0" />
  <path
     d="m 309.27275,196.77266 c 0,0 4.5,11.33 -19.13,18.34999 -23.63,7.02001 -36.6,34.79 -36.09,58.15 v 15.06 c 0,0 73.48,27 135.79,2.08 0,0 6,-63.09 -36.6,-77.88999 0,0 -8.83,-2.6 -6.24,-13 0,0 20.26,-11.43001 16.62,-41.55001 -3.64,-30.11999 -15.21,-39.46999 -27.17,-40.15 -48.3,-2.75 -48.47,60.6 -27.18,78.95001 z"
     id="path32"
     inkscape:connector-curvature="0"
     style="fill:#f7af87" />
  <path
     d="m 395.68275,289.89265 c 0,0 0.9,-43.99999 -6.41,-58.93999 -6.17,-12.63 -22.09,-15.87 -35.53,-20 a 5.39,5.39 0 0 0 -2.34,-0.32 6.25,6.25 0 0 0 -2.64,1.42 37.26,37.26 0 0 1 -49.42,-4.11001 c -16.12,4.91 -28.73,4.81 -37.19,19.39001 -8.46,14.57999 -12.65,43.04999 -11.06,59.82999 -0.04,0.01 72.59,29.44 144.59,2.73 z"
     id="path34"
     inkscape:connector-curvature="0"
     style="fill:#68e1fd" />
  <path
     d="m 268.12275,227.74266 c 0,0 12.2,-12.51 17.11,-12.57 4.91,-0.06 35,85.28999 35,85.28999 l -44.91,-2.14 z"
     id="path36"
     inkscape:connector-curvature="0"
     style="fill:url(#linearGradient902)" />
  <path
     d="m 294.43275,122.48265 c 2.81,-9.34 9.79,-18 19.3,-20.17 2.84,-0.65 5.77,-0.7 8.63,-1.25 1.74,-0.34 3.44,-0.85 5.16,-1.279995 a 40.7,40.7 0 0 1 21.49,0.2 29.68,29.68 0 0 1 16.95,12.849995 c 3.52,6 4.51,13.16 4,20.08 -0.51,6.92 -4.52,19.18 -6.41,25.85 -3.36,-4.4 -1.12,-16.88 -5.82,-19.82 -3.34,-2.09 -7.64,-1.13999 -11.53,-0.48 a 66.1,66.1 0 0 1 -27.15,-1 c -4.21,-1.06 -8.53,-2.53999 -12.78,-1.68 -3.69,0.74001 -5,3.57 -7,6.71001 -1.42,2.16999 -2.27,13 -3.48,15.10999 -2.82,-1 -3.37,-18.16 -3.34,-20.63 a 52.27,52.27 0 0 1 1.98,-14.49 z"
     id="path38"
     inkscape:connector-curvature="0"
     style="fill:#1a1a1a" />
  <path
     d="m 366.17275,155.88265 a 4.56,4.56 0 0 1 3.37,-1.25 3.22,3.22 0 0 1 2.2,1.71 6.66,6.66 0 0 1 0.68,2.78 15.08,15.08 0 0 1 -3.52,10.61 c -1.37,1.6 -3.41,3 -5.46,2.51 a 2,2 0 0 1 -1.08,-0.57 2.59,2.59 0 0 1 -0.48,-0.95 19.42,19.42 0 0 1 -0.16,-9.25 c 0.23,-1.33 0.36,-2.63 1.48,-3.49 0.93,-0.72 2.01,-1.38 2.97,-2.1 z"
     id="path40"
     inkscape:connector-curvature="0"
     style="fill:#f7af87" />
  <path
     d="m 161.68275,201.65265 c 1.58,-0.25999 3.3,-0.61 4.33,-1.83 a 6.92,6.92 0 0 0 1.23,-3.68 c 1.93,-14.51 7.3,-57.26 -7,-81.76 -2,-3.5 -7.16,-4.31 -9.94,-7 -6.52,-6.4 -14.87,-14.159995 -26.41,-14.079995 -27.659999,0.19 -40.249999,13.879995 -51.579999,39.119995 -6.88,15.31 -9,61.68 -3.3,66.17 6,4.73 21.8,4.35 29.24,5.09 a 244.23,244.23 0 0 0 63.429999,-2.03 z"
     id="path42"
     inkscape:connector-curvature="0"
     style="fill:#1a1a1a" />
  <path
     d="m 149.93275,130.42266 a 5.87,5.87 0 0 1 2,-1.73 c 2.33,-1.14 5.15,0.2 7,2 a 18.79,18.79 0 0 1 4.7,8.82 44.46,44.46 0 0 1 1,10 q 0.09,6.19 -0.38,12.38 a 58.19,58.19 0 0 1 -3.76,17.72999 c -2.33,5.61001 -6.14,10.74001 -11.36,13.83001 -3.88,-13.88 -4.24,-28.46 -4.57,-42.86001 -0.06,-2.28999 -0.11,-4.56999 -0.06,-6.84999 0,-0.90001 -0.25,-2.64 0.18,-3.44 0.43,-0.80001 1.2,-0.64 1.9,-1.17 1.11,-0.83 0.92,-2.37 1.17,-3.63 a 14.19,14.19 0 0 1 2.18,-5.08 z"
     id="path44"
     inkscape:connector-curvature="0"
     style="fill:url(#linearGradient904)" />
  <path
     d="m 76.682751,160.00265 a 6.47,6.47 0 0 0 -2.83,1.11001 6.22,6.22 0 0 0 -1.63,2.34 24.08,24.08 0 0 0 1,21.9 c 0,0 4.71,-5.05 5.12,-5.57 a 46.53,46.53 0 0 0 4.3,-6.7 c 1.13,-2.15 7.06,-12.12 4.07,-13.35 -1.89,-0.77 -7.75,-0.21 -10.03,0.26999 z"
     id="path46"
     inkscape:connector-curvature="0"
     style="fill:url(#linear-gradient-3)" />
  <path
     d="m 83.452751,196.77266 c -2.19,-5.07 -1.75,-10.86001 -1,-16.33 0.67,-4.76 1.64,-9.66 4.43,-13.57 a 21.4,21.4 0 0 1 10.25,-7.37 46,46 0 0 1 12.549999,-2.3 108.84,108.84 0 0 1 18.41,0.3 38.49,38.49 0 0 1 12.5,3 25.69,25.69 0 0 1 12.16,12.58 31.79,31.79 0 0 1 2.37,17.47 13.56,13.56 0 0 1 -2.64,7.05 14,14 0 0 1 -6.53,3.78 c -9,2.88 -18.54,2.66 -27.86,2.29 -7.73,-0.3 -15.54,0.14 -23.149999,-1.36 -4.46,-0.87 -9.45,-0.8 -11.49,-5.54 z"
     id="path48"
     inkscape:connector-curvature="0"
     style="fill:url(#linear-gradient-4)" />
  <path
     d="m 179.03275,290.40265 c -62.35,24.93 -135.789999,-2.08 -135.789999,-2.08 v -15 c -0.56,-23.42 12.44,-51.19999 36.09,-58.19999 23.649999,-7 21.999999,-15.19 21.999999,-15.19 -21.279999,-18.34 -23.999999,-84.85 24.33,-82.09 12,0.68 23.55,10 27.17,40.16 3.62,30.16 -20,43.33 -20,43.33 a 7.91,7.91 0 0 0 3,8 18.1,18.1 0 0 0 6.6,3.21 c 42.55,14.77 36.6,77.85999 36.6,77.85999 z"
     id="path50"
     inkscape:connector-curvature="0"
     style="fill:#f7af87" />
  <path
     d="m 99.392751,161.82265 c 9.419999,0 18.939999,-1.35 27.569999,-5.11 8.63,-3.76 16.32,-10.11 20.72,-18.42 a 19.39,19.39 0 0 0 2.51,-8.52 c 0.11,-5.66 -3.48,-10.95 -8.25,-14 -4.77,-3.05 -10.54,-4.15 -16.19,-4.38999 -12.17,-0.51 -24.74,2.91999 -33.999999,10.83 a 37,37 0 0 0 -13,26.22999 c -0.45,10.98 11.66,13.37 20.64,13.38 z"
     id="path52"
     inkscape:connector-curvature="0"
     style="fill:#1a1a1a" />
  <path
     d="m 184.82275,289.89265 c 0,0 -4.75,-35.91 -12.06,-50.87999 -6.17,-12.63 -16.45,-23.93 -29.89,-28.05001 a 5.37,5.37 0 0 0 -2.34,-0.31999 6.16,6.16 0 0 0 -2.63,1.41999 37.26,37.26 0 0 1 -49.419999,-4.11 66.75,66.75 0 0 0 -38.13,30.51 c -8.46,14.57 -11.67,31.93 -10.12,48.71 0,0 72.579999,29.43 144.589999,2.72 z"
     id="path54"
     style="fill:#660080"
     inkscape:connector-curvature="0" />
  <path
     d="m 132.98275,299.39265 c 0,0 -27.67,3.07 -33.289999,0.26 0,0 13.999999,-75.25 47.319999,-86.07999 0,0 14.44,2.4 25.75,25.44 3.29,6.69 -39.78,60.37999 -39.78,60.37999 z"
     id="path56"
     inkscape:connector-curvature="0"
     style="fill:url(#linear-gradient-5)" />
  <path
     d="m 133.06275,315.16265 v -45.56 c 0,0 10.91,-41 48.82,-45.7 37.91,-4.69999 78.93,1.56 78.93,1.56 0,0 40,5.19 47.25,54.52 v 38.95 c 0,0 -100.74,29.12 -175,-3.77 z"
     id="path58"
     style="fill:#483e37"
     inkscape:connector-curvature="0" />
  <path
     d="m 183.26275,171.00265 c -1.62,-1 -3.61,-1.69 -5.39,-1 a 5.15,5.15 0 0 0 -1.93,1.33001 c -2.81,3 -2.65,7.66999 -1.76,11.66999 a 44.46,44.46 0 0 0 2,6.59 10,10 0 0 0 1.49,2.76 c 2,2.37 5.5,2.69 8.58,2.33 1.82,-0.21 3.85,-0.75999 4.68,-2.4 a 5.44,5.44 0 0 0 0.48,-2 c 0.83,-8.09 -1.07,-15 -8.15,-19.28 z"
     id="path60"
     inkscape:connector-curvature="0"
     style="fill:#f7af87" />
  <path
     d="m 259.52275,174.28265 c 2.27,-1.58 5.22,-2.8 7.77,-1.69999 a 6.42,6.42 0 0 1 3.51,5.31999 14.85,14.85 0 0 1 -1.14,6.52001 21.92,21.92 0 0 1 -4.05,7.22999 10.88,10.88 0 0 1 -7.2,3.76 7.33,7.33 0 0 1 -6.95,-3.7 12,12 0 0 1 -0.92,-5.12999 9.93,9.93 0 0 1 0.45,-4 c 1.1,-2.75 6.2,-6.68001 8.53,-8.30001 z"
     id="path62"
     inkscape:connector-curvature="0"
     style="fill:#f7af87" />
  <path
     d="m 197.19275,228.31265 a 11.37,11.37 0 0 0 -1.52,5 8.71,8.71 0 0 0 0.74,3 c 3.66,9.00001 11.24,13.54 18.55,15.64001 a 24.65,24.65 0 0 0 6.77,1.11 c 6.9,0 13.72,-4.74 17.87,-12.39 a 3.15,3.15 0 0 0 0.45,-1.29 3.65,3.65 0 0 0 -0.49,-1.69 c -2.58,-5.56 -2.11,-12.73 -1.43,-19.26 a 3.26,3.26 0 0 0 -0.1,-1.62 1.66,1.66 0 0 0 -1,-0.83 c -4.47,-1.88 -9.27,-0.71 -14,-0.89 -6.5,-0.24 -12.8,-3.23 -19.31,-3.24 -2.9,0 -3.12,1.08 -3.53,4.71 a 37.78,37.78 0 0 1 -3,11.74999 z"
     id="path64"
     inkscape:connector-curvature="0"
     style="fill:#f7af87" />
  <path
     d="m 197.27275,209.60265 c 0,0 3.75,14.7 12.84,24.33 9.09,9.63 30.61,7.79 28.07,-0.81 -2.14,-7.21 1.87,-23.52 1.87,-23.52 z"
     id="path66"
     inkscape:connector-curvature="0"
     style="fill:url(#linear-gradient-6)" />
  <path
     d="m 294.37275,155.33266 c -1,-1 -2.17,-2 -3.58,-2.09 a 3.69,3.69 0 0 0 -2.87,1.37999 6.61,6.61 0 0 0 -1.33,3 15.91,15.91 0 0 0 0.61,7.94 c 1,3.12 2.79,6.28 5.83,7.47 a 3.38,3.38 0 0 0 3.31,-0.21 4,4 0 0 0 1.15,-2.44 c 1.19,-5.88999 1.38,-10.67 -3.12,-15.04999 z"
     id="path68"
     inkscape:connector-curvature="0"
     style="fill:#f7af87" />
  <path
     d="m 257.17275,181.88265 c -2.87,24.11 -16.27,44 -36.35,44 -20.08,0 -36.35,-19.69 -36.35,-44 0,-24.31 12.91,-51.72 33,-51.72 20.09,0 45.57,2.44 39.7,51.72 z"
     id="path70"
     inkscape:connector-curvature="0"
     style="fill:#f7af87" />
  <path
     d="m 178.99275,173.93265 q -2,-14.31 -2.63,-28.78 c -0.18,-4.25 -0.11,-9 2.74,-12.12999 a 13.46,13.46 0 0 0 2,-2.29 9.08,9.08 0 0 0 0.77,-3.4 c 1.08,-9.11 7.67,-16.72 15.23,-21.91 a 58.47,58.47 0 0 1 27.89,-10.000005 32.11,32.11 0 0 1 9.64,0.41 34.62,34.62 0 0 1 9.1,3.65 c 4.52,2.450005 8.87,5.410005 12.08,9.420005 3.21,4.01 5.18,9.22 4.5,14.31 a 17,17 0 0 1 9.43,10.21999 35.37,35.37 0 0 1 1.38,14.59001 c -1,11.68 -5.44,23.67 -14.76,30.77 a 51.07,51.07 0 0 0 -5.28,-23.57 85.28,85.28 0 0 1 -3.77,-7.68 23.56,23.56 0 0 1 -1.52,-8.79 c -3.9,2.08 -6.19,6.34 -9.87,8.8 a 21.21,21.21 0 0 1 -7.68,2.81 57.93,57.93 0 0 1 -26.38,-0.92 c -3.4,-0.92 -7.73,-1.88 -9.87,0.92 -1.33,1.73 -1.1,4.13 -1.28,6.31 a 30.58,30.58 0 0 1 -1.71,6.95 l -5.3,16 c -1.8,-1.53 -4.37,-3.34 -4.71,-5.69001 z"
     id="path72"
     inkscape:connector-curvature="0"
     style="fill:#1a1a1a" />
  <path
     d="m 135.99275,209.76265 c -16.81,10.77 -28.52,-7.49 -29.06,-8.4 a 26.46,26.46 0 0 0 25.84,0 7.91,7.91 0 0 0 3,8 z"
     id="path74"
     inkscape:connector-curvature="0"
     style="fill:url(#linear-gradient-7)" />
  <path
     d="m 294.22275,166.16265 c -0.7,-0.91 -1.44,-2 -1.1,-3.12 0.34,-1.12 1.52,-1.7 1.53,-2.78 a 2.18,2.18 0 0 0 -0.85,-1.57 3.48,3.48 0 0 0 -2.09,-0.91 1.37,1.37 0 0 0 -0.77,0.17 1.58,1.58 0 0 0 -0.57,0.77 c -1.17,2.62 -0.78,5.7 0.25,8.38 a 4.25,4.25 0 0 0 0.79,1.39 4,4 0 0 0 1.74,0.93 c 1,0.32 2.18,0.33 2.41,-0.92 0.17,-0.9 -0.88,-1.69999 -1.34,-2.34 z"
     id="path76"
     inkscape:connector-curvature="0"
     style="fill:url(#linear-gradient-8)" />
  <path
     d="m 365.43275,166.36266 c 0.7,-0.91 1.44,-2 1.1,-3.12 -0.34,-1.12001 -1.52,-1.7 -1.54,-2.78001 a 2.2,2.2 0 0 1 0.86,-1.56999 3.43,3.43 0 0 1 2.09,-0.91 1.33,1.33 0 0 1 0.76,0.16999 1.6,1.6 0 0 1 0.58,0.77001 c 1.16,2.62 0.77,5.69999 -0.26,8.38 a 3.18,3.18 0 0 1 -2.52,2.31999 c -1,0.32 -2.18,0.33001 -2.42,-0.91999 -0.16,-0.88 0.85,-1.7 1.35,-2.34 z"
     id="path78"
     inkscape:connector-curvature="0"
     style="fill:url(#linear-gradient-9)" />
  <path
     d="m 257.23275,185.35265 a 4.71,4.71 0 0 0 3.15,-0.76 3.31,3.31 0 0 0 1.23,-1 c 0.82,-1.28999 -0.08,-3.08 0.51,-4.47999 a 3.79,3.79 0 0 1 2.81,-1.88 2,2 0 0 1 1.26,0 2.09,2.09 0 0 1 0.92,1.88 12.44,12.44 0 0 1 -2.84,8.74 11.61,11.61 0 0 1 -8.18,4.1 0.84,0.84 0 0 1 -0.47,-0.07 0.77,0.77 0 0 1 -0.32,-0.46 5.48,5.48 0 0 1 1,-5.37"
     id="path80"
     inkscape:connector-curvature="0"
     style="fill:url(#linear-gradient-10)" />
  <path
     d="m 178.84275,181.22265 c 0.46,0.77001 1.39,1.07 2.16,1.52001 a 5.33,5.33 0 0 1 2.58,4.44999 2.78,2.78 0 0 1 -1.7,2.84 c -1.11,0.31 -2.22,-0.47999 -3,-1.33 a 11.48,11.48 0 0 1 -2.92,-8.29 c 0.06,-1 0.49,-3.52 2.09,-3 1.28,0.45 0.17,2.77 0.79,3.81 z"
     id="path82"
     inkscape:connector-curvature="0"
     style="fill:url(#linear-gradient-11)" />
  <path
     d="m 182.45275,150.65265 a 9.8,9.8 0 0 0 -1.83,5.06 35.42,35.42 0 0 0 0.28,7.90001 l 1.51,13.59 c 1.88,-6.5 6.32,-12.17 7.33,-18.86001 0.32,-2.13 0.26,-4.34999 0.94,-6.41 0.3,-0.9 2.08,-3.12 1.42,-4 -0.66,-0.87999 -4.45,-0.18 -5.44,0.1 a 8.17,8.17 0 0 0 -4.21,2.62 z"
     id="path84"
     inkscape:connector-curvature="0"
     style="fill:url(#linear-gradient-12)" />
  <path
     d="m 257.12275,127.96266 a 0.81,0.81 0 0 1 0.5,-0.1 c 0.22,0.05 0.35,0.25999 0.47,0.46 2.3,3.93 4.64,7.94 5.65,12.38999 a 29.88,29.88 0 0 1 0.63,7.49001 45.36,45.36 0 0 1 -7.55,23.71 c -0.94,-3.11 -0.84,-6.45 -1.59,-9.62 -1,-4.3 -3.51,-8.07 -5.7,-11.91 -2,-3.5 -5.49,-9.41 -2.95,-13.23 a 24,24 0 0 1 10.54,-9.19 z"
     id="path86"
     inkscape:connector-curvature="0"
     style="fill:url(#linear-gradient-13)" />
  <path
     d="m 309.27275,196.77266 c 0,0 5.69,6.93999 18.07,7.31 13.36,0.4 19.66,-4.54 19.66,-4.54 0,0 -5.89,13 -20.6,15.9 -9.31,1.86 -19.78,-2.14 -21.65,-7 0,0.05 6.1,-5.62 4.52,-11.67 z"
     id="path88"
     inkscape:connector-curvature="0"
     style="fill:url(#linear-gradient-14)" />
  <path
     d="m 197.54275,224.53265 c 0,0 3.61,17.24001 16.44,21.25 12.83,4.01 23.66,-8.82 24.06,-17.24 0.4,-8.42 2.41,-6 2.41,-6 l 3.21,2 v 31.68 l -24.46,-3.62 -24.06,6.82 c 0,0 -6.42,-28.88 -2.81,-36.9"
     id="path90"
     inkscape:connector-curvature="0"
     style="fill:#68e1fd" />
</svg>
