<?xml version="1.0" encoding="UTF-8" standalone="no"?>
<!-- Created with Inkscape (http://www.inkscape.org/) -->

<svg
   xmlns:dc="http://purl.org/dc/elements/1.1/"
   xmlns:cc="http://creativecommons.org/ns#"
   xmlns:rdf="http://www.w3.org/1999/02/22-rdf-syntax-ns#"
   xmlns:svg="http://www.w3.org/2000/svg"
   xmlns="http://www.w3.org/2000/svg"
   xmlns:xlink="http://www.w3.org/1999/xlink"
   xmlns:sodipodi="http://sodipodi.sourceforge.net/DTD/sodipodi-0.dtd"
   xmlns:inkscape="http://www.inkscape.org/namespaces/inkscape"
   width="1440"
   height="340"
   viewBox="0 0 380.99999 89.958339"
   version="1.1"
   id="svg8"
   sodipodi:docname="techwarts.svg"
   inkscape:version="0.92.3 (2405546, 2018-03-11)">
  <defs
     id="defs2">
    <linearGradient
       gradientTransform="matrix(0.43519467,0,0,0.43519467,-114.37125,140.24097)"
       id="linear-gradient-15"
       x1="286.63"
       y1="178.92999"
       x2="290.17999"
       y2="231.47"
       xlink:href="#linear-gradient-4" />
    <linearGradient
       id="linear-gradient-4"
       x1="228.82001"
       y1="182.34"
       x2="245.12"
       y2="200.89"
       gradientUnits="userSpaceOnUse">
      <stop
         offset="0.01"
         id="stop13" />
      <stop
         offset="0.13"
         stop-opacity="0.69"
         id="stop15" />
      <stop
         offset="1"
         stop-opacity="0"
         id="stop17" />
    </linearGradient>
    <linearGradient
       gradientTransform="matrix(0.43519467,0,0,0.43519467,-114.37125,140.24097)"
       id="linear-gradient-14"
       x1="168"
       y1="178.92999"
       x2="171.55"
       y2="231.47"
       xlink:href="#linear-gradient-4" />
    <linearGradient
       id="linear-gradient-13"
       x1="168.17"
       y1="225.64"
       x2="181.00999"
       y2="240.72"
       xlink:href="#linear-gradient-4" />
    <linearGradient
       id="linear-gradient-12"
       x1="168.64"
       y1="174.8"
       x2="179.44"
       y2="156.66"
       xlink:href="#linear-gradient-4" />
    <linearGradient
       gradientTransform="matrix(0.37378972,-0.22288034,0.22288034,0.37378972,-57.309778,160.22015)"
       id="linear-gradient-11"
       x1="281.10999"
       y1="308.42001"
       x2="281.64999"
       y2="244.28"
       xlink:href="#linear-gradient-4" />
    <linearGradient
       gradientTransform="matrix(0.73676994,0,0,0.73676994,605.64774,-296.61945)"
       id="linear-gradient-10"
       x1="257.75"
       y1="161.59"
       x2="293.42001"
       y2="148.35001"
       xlink:href="#linear-gradient-4" />
    <linearGradient
       gradientTransform="matrix(0.37378972,-0.22288034,0.22288034,0.37378972,-57.309778,160.22015)"
       id="linear-gradient-9"
       x1="151.46001"
       y1="224.2"
       x2="174.3"
       y2="224.2"
       xlink:href="#linear-gradient-4" />
    <linearGradient
       gradientTransform="matrix(0.37378972,-0.22288034,0.22288034,0.37378972,-57.309778,160.22015)"
       id="linear-gradient-8"
       x1="250.58"
       y1="249.57001"
       x2="276.67999"
       y2="249.57001"
       xlink:href="#linear-gradient-4" />
    <linearGradient
       gradientTransform="matrix(0.73676994,0,0,0.73676994,605.64774,-296.61945)"
       id="linear-gradient-7"
       x1="245.36"
       y1="166.11"
       x2="233.94"
       y2="122.49"
       xlink:href="#linear-gradient-4" />
    <linearGradient
       gradientTransform="matrix(0.37378972,-0.22288034,0.22288034,0.37378972,-57.309778,160.22015)"
       id="linear-gradient-6"
       x1="292.17999"
       y1="122.56"
       x2="290"
       y2="92.400002"
       xlink:href="#linear-gradient-4" />
    <linearGradient
       gradientTransform="matrix(0.37378972,-0.22288034,0.22288034,0.37378972,-57.309778,160.22015)"
       id="linear-gradient-5"
       x1="219.37"
       y1="157.03"
       x2="221.21001"
       y2="173.34"
       xlink:href="#linear-gradient-4" />
    <linearGradient
       gradientTransform="matrix(0.37378972,-0.22288034,0.22288034,0.37378972,-57.309778,160.22015)"
       id="linear-gradient-3"
       x1="175.28"
       y1="253.53999"
       x2="172.59"
       y2="272.39001"
       xlink:href="#linear-gradient" />
    <linearGradient
       id="linear-gradient"
       x1="128.96001"
       y1="247.10001"
       x2="121.62"
       y2="298.45999"
       gradientUnits="userSpaceOnUse">
      <stop
         offset="0.02"
         stop-color="#fff"
         stop-opacity="0"
         id="stop2" />
      <stop
         offset="0.58"
         stop-color="#fff"
         stop-opacity="0.39"
         id="stop4" />
      <stop
         offset="0.68"
         stop-color="#fff"
         stop-opacity="0.68"
         id="stop6" />
      <stop
         offset="1"
         stop-color="#fff"
         id="stop8" />
    </linearGradient>
    <linearGradient
       gradientTransform="matrix(0.37378972,-0.22288034,0.22288034,0.37378972,-57.309778,160.22015)"
       id="linear-gradient-2"
       x1="161.7"
       y1="259.98001"
       x2="157.78999"
       y2="287.41"
       xlink:href="#linear-gradient" />
    <linearGradient
       gradientTransform="matrix(0.37378972,-0.22288034,0.22288034,0.37378972,-57.309778,160.22015)"
       y2="200.89"
       x2="245.12"
       y1="182.34"
       x1="228.82001"
       gradientUnits="userSpaceOnUse"
       id="linearGradient1083"
       xlink:href="#linear-gradient-4"
       inkscape:collect="always" />
    <linearGradient
       gradientTransform="matrix(0.33138791,0,0,0.33138791,641.29915,-121.9184)"
       id="linear-gradient-11-3"
       x1="241.5"
       y1="248.75"
       x2="312.72"
       y2="218.8"
       xlink:href="#linear-gradient-78" />
    <linearGradient
       id="linear-gradient-78"
       x1="258.91"
       y1="124.54"
       x2="299.95001"
       y2="123.91"
       gradientUnits="userSpaceOnUse">
      <stop
         offset="0.01"
         id="stop2-8" />
      <stop
         offset="0.13"
         stop-opacity="0.69"
         id="stop4-6" />
      <stop
         offset="1"
         stop-opacity="0"
         id="stop6-0" />
    </linearGradient>
    <linearGradient
       gradientTransform="matrix(0.33138791,0,0,0.33138791,693.74397,-86.144777)"
       id="linear-gradient-10-4"
       x1="188.44"
       y1="144.75999"
       x2="251.94"
       y2="142.56"
       xlink:href="#linear-gradient-78" />
    <linearGradient
       gradientTransform="matrix(0.33138791,0,0,0.33138791,693.74397,-86.144777)"
       id="linear-gradient-9-6"
       x1="274.89001"
       y1="85.379997"
       x2="223.64"
       y2="105.68"
       xlink:href="#linear-gradient-78" />
    <linearGradient
       id="linear-gradient-8-7"
       x1="200.19"
       y1="81.050003"
       x2="227.92"
       y2="104.12"
       xlink:href="#linear-gradient-78" />
    <linearGradient
       gradientTransform="matrix(0.33138791,0,0,0.33138791,693.74397,-86.144777)"
       id="linear-gradient-7-6"
       x1="300.39999"
       y1="335.06"
       x2="327.29999"
       y2="335.06"
       xlink:href="#linear-gradient-78" />
    <linearGradient
       gradientTransform="matrix(0.33138791,0,0,0.33138791,693.74397,-86.144777)"
       id="linear-gradient-6-0"
       x1="311.60999"
       y1="323.82001"
       x2="285.66"
       y2="317.16"
       xlink:href="#linear-gradient-78" />
    <linearGradient
       gradientTransform="matrix(0.33138791,0,0,0.33138791,641.29915,-121.9184)"
       id="linear-gradient-5-9"
       x1="226.75999"
       y1="234.44"
       x2="321.06"
       y2="234.44"
       xlink:href="#linear-gradient-78" />
    <linearGradient
       gradientTransform="matrix(0.33138791,0,0,0.33138791,693.74397,-86.144777)"
       id="linear-gradient-4-7"
       x1="169.25"
       y1="193.08"
       x2="290.38"
       y2="268.95001"
       xlink:href="#linear-gradient-78" />
    <linearGradient
       gradientTransform="matrix(0.33138791,0,0,0.33138791,693.74397,-86.144777)"
       id="linear-gradient-3-5"
       x1="299.88"
       y1="206.77"
       x2="210.25"
       y2="300.39999"
       xlink:href="#linear-gradient-78" />
    <linearGradient
       gradientTransform="matrix(0.33138791,0,0,0.33138791,693.74397,-86.144777)"
       y2="123.91"
       x2="299.95001"
       y1="124.54"
       x1="258.91"
       gradientUnits="userSpaceOnUse"
       id="linearGradient1022"
       xlink:href="#linear-gradient-78"
       inkscape:collect="always" />
  </defs>
  <sodipodi:namedview
     id="base"
     pagecolor="#ffffff"
     bordercolor="#666666"
     borderopacity="1.0"
     inkscape:pageopacity="0.0"
     inkscape:pageshadow="2"
     inkscape:zoom="0.53033009"
     inkscape:cx="927.41876"
     inkscape:cy="204.21073"
     inkscape:document-units="px"
     inkscape:current-layer="flowRoot823"
     showgrid="false"
     units="px"
     inkscape:window-width="1920"
     inkscape:window-height="1010"
     inkscape:window-x="0"
     inkscape:window-y="0"
     inkscape:window-maximized="1" />
  <metadata
     id="metadata5">
    <rdf:RDF>
      <cc:Work
         rdf:about="">
        <dc:format>image/svg+xml</dc:format>
        <dc:type
           rdf:resource="http://purl.org/dc/dcmitype/StillImage" />
        <dc:title></dc:title>
      </cc:Work>
    </rdf:RDF>
  </metadata>
  <g
     inkscape:label="Layer 1"
     inkscape:groupmode="layer"
     id="layer1"
     transform="translate(0,-207.04165)">
    <flowRoot
       xml:space="preserve"
       id="flowRoot815"
       style="font-style:normal;font-variant:normal;font-weight:normal;font-stretch:normal;font-size:192px;line-height:1.25;font-family:Sarai;-inkscape-font-specification:Sarai;letter-spacing:0px;word-spacing:0px;fill:#000000;fill-opacity:1;stroke:none"
       transform="matrix(0.26458334,0,0,0.26458334,0,138.24998)"><flowRegion
         id="flowRegion817"
         style="font-style:normal;font-variant:normal;font-weight:normal;font-stretch:normal;font-size:192px;font-family:Sarai;-inkscape-font-specification:Sarai"><rect
           id="rect819"
           width="1394.6666"
           height="485.33334"
           x="21.333334"
           y="60"
           style="font-style:normal;font-variant:normal;font-weight:normal;font-stretch:normal;font-size:192px;font-family:Sarai;-inkscape-font-specification:Sarai" /></flowRegion><flowPara
         id="flowPara821" /></flowRoot>    <g
       aria-label="TECHWARTS"
       transform="matrix(0.35911256,0,0,0.35911256,-4.7372895,203.06703)"
       style="font-style:normal;font-weight:normal;font-size:192px;line-height:1.25;font-family:sans-serif;letter-spacing:0px;word-spacing:0px;fill:#000000;fill-opacity:1;stroke:none"
       id="flowRoot823">
      <path
         transform="rotate(-26.450782)"
         style="opacity:1;fill:#ff0000;fill-opacity:1;stroke:none;stroke-width:0.58920413;stroke-miterlimit:4;stroke-dasharray:none;stroke-opacity:1"
         d="m -7.6953483,104.93997 c 0,0 313.1699083,309.26206 468.8480483,250.17558 82.09111,-31.15706 538.914,386.43253 298.60016,266.95328 L -24.383267,230.45885 Z"
         id="rect1160"
         inkscape:connector-curvature="0"
         sodipodi:nodetypes="csccc" />
      <path
         d="M 136.88477,97.382305 H 96.103516 V 217.19481 H 80.822266 V 97.382305 h -40.96875 v -12.46875 h 97.031254 z"
         style="font-style:normal;font-variant:normal;font-weight:normal;font-stretch:normal;font-family:'Andale Mono';-inkscape-font-specification:'Andale Mono'"
         id="path1141"
         inkscape:connector-curvature="0" />
      <path
         d="M 238.88477,217.19481 H 169.79102 V 84.913555 h 68.53125 v 13.40625 h -53.15625 v 40.968755 h 51.09375 v 13.40625 h -51.09375 v 51.09375 h 53.71875 z"
         style="font-style:normal;font-variant:normal;font-weight:normal;font-stretch:normal;font-family:'Andale Mono';-inkscape-font-specification:'Andale Mono'"
         id="path1143"
         inkscape:connector-curvature="0" />
      <path
         d="m 361.32227,208.94481 q -15.5625,10.78125 -36.09375,10.78125 -25.6875,0 -39.09375,-17.625 -13.3125,-17.625 -13.3125,-51 0,-32.25 12.9375,-50.4375 12.9375,-18.281255 39.46875,-18.281255 9.5625,0 18.9375,2.4375 9.375,2.4375 15.09375,6.46875 l -5.0625,12.093755 q -13.21875,-7.500005 -28.96875,-7.500005 -18.28125,0 -27.1875,13.312505 -8.90625,13.21875 -8.90625,41.90625 0,55.125 36.09375,55.125 15.28125,0 31.3125,-9.375 z"
         style="font-style:normal;font-variant:normal;font-weight:normal;font-stretch:normal;font-family:'Andale Mono';-inkscape-font-specification:'Andale Mono'"
         id="path1145"
         inkscape:connector-curvature="0" />
      <path
         d="m 471.66602,217.19481 h -15.375 v -65.625 h -45.28125 v 65.625 h -15.375 V 84.913555 h 15.375 v 53.156255 h 45.28125 V 84.913555 h 15.375 z"
         style="font-style:normal;font-variant:normal;font-weight:normal;font-stretch:normal;font-family:'Andale Mono';-inkscape-font-specification:'Andale Mono'"
         id="path1147"
         inkscape:connector-curvature="0" />
      <path
         d="m 602.35352,84.913555 -16.875,132.281255 h -14.25 l -22.5,-74.53125 -22.40625,74.53125 h -14.625 l -16.5,-132.281255 h 15.1875 l 11.15625,107.531255 19.5,-65.0625 h 15.375 l 19.59375,65.25 11.34375,-107.718755 z"
         style="font-style:normal;font-variant:normal;font-weight:normal;font-stretch:normal;font-family:'Andale Mono';-inkscape-font-specification:'Andale Mono'"
         id="path1149"
         inkscape:connector-curvature="0" />
      <path
         d="m 716.54102,217.19481 h -16.125 l -14.625,-46.3125 h -43.40625 l -14.8125,46.3125 h -15.9375 L 654.85352,84.913555 h 18.46875 z m -35.15625,-59.71875 -17.34375,-54.75 -17.25,54.75 z"
         style="font-style:normal;font-variant:normal;font-weight:normal;font-stretch:normal;font-family:'Andale Mono';-inkscape-font-specification:'Andale Mono'"
         id="path1151"
         inkscape:connector-curvature="0" />
      <path
         d="m 831.47852,217.19481 h -19.21875 l -38.8125,-60.09375 h -17.0625 v 60.09375 h -15.375 V 84.913555 h 37.40625 q 18.84375,0 29.71875,9.1875 10.96875,9.093755 10.96875,25.406255 0,12.09375 -7.96875,21.5625 -7.96875,9.375 -21.9375,12.75 z m -75.09375,-73.5 h 19.40625 q 12.1875,0 19.78125,-6.5625 7.59375,-6.65625 7.59375,-16.6875 0,-22.125005 -27,-22.125005 h -19.78125 z"
         style="font-style:normal;font-variant:normal;font-weight:normal;font-stretch:normal;font-family:'Andale Mono';-inkscape-font-specification:'Andale Mono'"
         id="path1153"
         inkscape:connector-curvature="0" />
      <path
         d="M 942.75977,97.382305 H 901.97852 V 217.19481 H 886.69727 V 97.382305 h -40.96875 v -12.46875 h 97.03125 z"
         style="font-style:normal;font-variant:normal;font-weight:normal;font-stretch:normal;font-family:'Andale Mono';-inkscape-font-specification:'Andale Mono'"
         id="path1155"
         inkscape:connector-curvature="0" />
      <path
         d="m 1037.4473,99.538555 q -11.8125,-4.03125 -22.4063,-4.03125 -12,0 -19.59373,5.531255 -7.5,5.4375 -7.5,15.5625 0,12 19.78123,21.09375 14.625,6.75 19.3125,9.375 4.7813,2.625 9.6563,7.21875 4.875,4.59375 7.7812,10.875 3,6.1875 3,13.96875 0,19.3125 -13.0312,30 -12.9375,10.59375 -30.5625,10.59375 -17.06253,0 -29.90628,-6.75 l 3.1875,-13.21875 q 15.09375,6.84375 26.34378,6.84375 13.125,0 21,-6.75 7.9687,-6.84375 7.9687,-18.75 0,-8.8125 -5.1562,-14.90625 -5.1563,-6.1875 -19.0313,-12.5625 -14.24998,-6.5625 -18.46873,-8.90625 -4.125,-2.4375 -8.25,-6.65625 -4.125,-4.21875 -6.375,-9.46875 -2.25,-5.25 -2.25,-11.4375 0,-16.40625 11.8125,-25.593755 11.8125,-9.1875 29.90623,-9.1875 13.2188,0 26.25,4.03125 z"
         style="font-style:normal;font-variant:normal;font-weight:normal;font-stretch:normal;font-family:'Andale Mono';-inkscape-font-specification:'Andale Mono'"
         id="path1157"
         inkscape:connector-curvature="0" />
      <path
         id="path1162"
         style="font-style:normal;font-variant:normal;font-weight:normal;font-stretch:normal;font-family:'Andale Mono';-inkscape-font-specification:'Andale Mono'"
         d="M 136.88477,97.382305 H 96.103516 V 217.19481 H 80.822266 V 97.382305 h -40.96875 v -12.46875 h 97.031254 z"
         inkscape:connector-curvature="0" />
      <g
         id="g1549"
         transform="rotate(25.267751,353.03346,160.14658)">
        <path
           id="path45"
           d="m 59.75022,194.97542 a 70.553758,70.553758 0 0 0 -6.611323,9.00902 3.6904508,3.6904508 0 0 0 -0.652946,1.59019 1.305584,1.305584 45 0 0 0.817969,1.3718 c 0.505656,0.13424 1.016241,-0.16514 1.451413,-0.45502 a 76.63343,76.63343 0 0 0 14.737537,-12.7752 1.2054892,1.2054892 0 0 0 0.335875,-0.5499 c 0.08479,-0.43563 -0.314934,-0.82558 -0.686742,-1.04977 -3.765614,-2.35538 -6.88952,-0.0316 -9.391778,2.85888 z"
           style="fill:#f3bd8d;stroke-width:0.43519464"
           inkscape:connector-curvature="0" />
        <path
           id="path47"
           d="m 92.975463,195.07187 a 0.48741802,0.48741802 0 0 0 0.783517,0.32831 l 1.642261,-0.64482 a 0.71371925,0.71371925 0 0 0 0.567396,-0.87541 c -0.09714,-1.86242 -0.250203,-3.74217 -0.168202,-5.61006 0.172415,-3.80669 1.395658,-7.60154 0.788754,-11.36409 a 16.707123,16.707123 0 0 0 -0.915107,-3.23423 c -0.646188,-1.68705 -1.677915,-3.49382 -3.441253,-3.87632 a 0.94437244,0.94437244 0 0 0 -0.745817,0.0748 1.0749308,1.0749308 0 0 0 -0.328189,0.4693 c -0.657775,1.44613 -1.910602,3.23692 -2.13662,4.82082 -0.169899,1.26162 0.184709,2.85904 0.305879,4.12445 a 59.260456,59.260456 0 0 0 1.848741,10.32344 q 0.771582,2.77259 1.79864,5.46378 z"
           style="fill:#f3bd8d;stroke-width:0.43519464"
           inkscape:connector-curvature="0" />
        <path
           id="path49"
           d="m 65.27305,183.63105 c -0.139347,1.27887 -0.277184,2.55178 -0.513509,3.81247 a 24.131544,24.131544 45 0 1 -0.95391,3.55825 1.0357633,1.0357633 0 0 0 -0.07866,0.64985 1.0009478,1.0009478 0 0 0 0.709135,0.50947 c 1.244603,0.3878 2.497537,0.73008 3.767075,1.00673 a 1.8930968,1.8930968 0 0 0 2.525424,-0.99915 c 2.684301,-4.22521 4.222393,-9.06409 6.68987,-13.4235 a 1.5797566,1.5797566 0 0 1 0.389511,-0.51093 1.6102203,1.6102203 0 0 1 0.64257,-0.25647 88.518598,88.518598 0 0 1 10.379372,-1.83142 2.0236552,2.0236552 0 0 0 0.898555,-0.25204 1.875689,1.875689 0 0 0 0.61002,-0.9059 32.430707,32.430707 0 0 0 1.64173,-5.07294 1.3621593,1.3621593 0 0 0 0.0016,-0.84712 1.3360476,1.3360476 0 0 0 -0.787275,-0.58953 27.212722,27.212722 45 0 0 -11.242916,-1.97066 20.066826,20.066826 0 0 0 -8.902785,2.26836 c -2.01373,1.10953 -4.83359,3.05948 -5.324717,5.51588 -0.239203,1.22187 -0.08173,2.58217 -0.09851,3.80316 a 55.147868,55.147868 0 0 1 -0.352551,5.53549 z"
           style="fill:#3f3d56;stroke-width:0.43519464"
           inkscape:connector-curvature="0" />
        <path
           id="path51"
           d="m 65.27305,183.63105 c -0.139347,1.27887 -0.277184,2.55178 -0.513509,3.81247 a 24.131544,24.131544 45 0 1 -0.95391,3.55825 1.0357633,1.0357633 0 0 0 -0.07866,0.64985 1.0009478,1.0009478 0 0 0 0.709135,0.50947 c 1.244603,0.3878 2.497537,0.73008 3.767075,1.00673 a 1.8930968,1.8930968 0 0 0 2.525424,-0.99915 c 2.684301,-4.22521 4.222393,-9.06409 6.68987,-13.4235 a 1.5797566,1.5797566 0 0 1 0.389511,-0.51093 1.6102203,1.6102203 0 0 1 0.64257,-0.25647 88.518598,88.518598 0 0 1 10.379372,-1.83142 2.0236552,2.0236552 0 0 0 0.898555,-0.25204 1.875689,1.875689 0 0 0 0.61002,-0.9059 32.430707,32.430707 0 0 0 1.64173,-5.07294 1.3621593,1.3621593 0 0 0 0.0016,-0.84712 1.3360476,1.3360476 0 0 0 -0.787275,-0.58953 27.212722,27.212722 45 0 0 -11.242916,-1.97066 20.066826,20.066826 0 0 0 -8.902785,2.26836 c -2.01373,1.10953 -4.83359,3.05948 -5.324717,5.51588 -0.239203,1.22187 -0.08173,2.58217 -0.09851,3.80316 a 55.147868,55.147868 0 0 1 -0.352551,5.53549 z"
           style="fill:url(#linearGradient1083);stroke-width:0.43519464"
           inkscape:connector-curvature="0" />
        <path
           id="path53"
           d="m 58.588398,177.7568 c 0.912093,-0.83267 1.665664,-1.82923 2.603782,-2.62675 2.628835,-2.23632 6.364014,-2.6597 9.255336,-4.54079 a 0.66584783,0.66584783 0 0 0 0.357956,-0.43638 0.67455173,0.67455173 0 0 0 -0.151863,-0.41613 l -1.763678,-2.70292 a 7.0980252,7.0980252 0 0 0 -1.815311,-2.10971 c -1.575557,-1.08729 -3.768634,-0.71192 -5.336671,0.35479 -1.568037,1.06672 -2.64353,2.69604 -3.677117,4.28518 l -2.573767,3.92623 c -0.588384,0.90819 -1.47062,2.01187 -1.490937,3.15896 -0.008,0.73439 0.609645,2.22059 1.300717,2.51282 0.984735,0.43633 2.612996,-0.8183 3.291553,-1.4053 z"
           style="fill:#3f3d56;stroke-width:0.43519464"
           inkscape:connector-curvature="0" />
        <path
           id="path55"
           d="m 58.588398,177.7568 c 0.912093,-0.83267 1.665664,-1.82923 2.603782,-2.62675 2.628835,-2.23632 6.364014,-2.6597 9.255336,-4.54079 a 0.66584783,0.66584783 0 0 0 0.357956,-0.43638 0.67455173,0.67455173 0 0 0 -0.151863,-0.41613 l -1.763678,-2.70292 a 7.0980252,7.0980252 0 0 0 -1.815311,-2.10971 c -1.575557,-1.08729 -3.768634,-0.71192 -5.336671,0.35479 -1.568037,1.06672 -2.64353,2.69604 -3.677117,4.28518 l -2.573767,3.92623 c -0.588384,0.90819 -1.47062,2.01187 -1.490937,3.15896 -0.008,0.73439 0.609645,2.22059 1.300717,2.51282 0.984735,0.43633 2.612996,-0.8183 3.291553,-1.4053 z"
           style="fill:url(#linear-gradient-5);stroke-width:0.43519464"
           inkscape:connector-curvature="0" />
        <path
           id="path57"
           d="m 85.689014,137.63623 a 1.0401152,1.0401152 0 0 1 0.511509,0.44996 0.61362447,0.61362447 0 0 1 -0.197922,0.5943 c -0.156416,0.15406 -0.353733,0.25652 -0.522797,0.39787 -0.631401,0.53862 -0.697384,1.46467 -0.766827,2.29145 -0.06944,0.82676 -0.284012,1.77554 -1.0321,2.13547 a 4.9220517,4.9220517 0 0 1 -1.232113,0.22799 3.916752,3.916752 0 0 0 -2.516997,2.0075 c -0.244521,0.43967 -0.524401,0.98151 -1.033054,1.12267 a 1.5014216,1.5014216 0 0 1 -1.313324,-0.36709 5.6575307,5.6575307 0 0 1 -1.449747,-1.78553 1.9931916,1.9931916 0 0 1 -0.291136,-0.79417 c -0.05094,-0.47632 0.203939,-0.88163 0.295477,-1.33144 a 4.2605558,4.2605558 0 0 0 0.03887,-1.10748 26.11168,26.11168 0 0 1 0.07541,-3.27256 c 0.116823,-1.50359 0.448941,-3.13048 1.563878,-4.1753 a 4.8393647,4.8393647 0 0 1 3.484095,-1.12489 c 1.107485,0.0389 2.103179,0.83348 2.723926,1.73006 0.620743,0.89659 0.580256,2.32426 1.662852,3.00119 z"
           style="fill:#f3bd8d;stroke-width:0.43519464"
           inkscape:connector-curvature="0" />
        <path
           id="path59"
           d="m 83.725114,132.28618 c 0.551816,0.17766 1.175091,0.42418 1.275064,0.98272 a 1.1750256,1.1750256 0 0 1 -0.692744,1.13256 c -0.825945,0.4418 -1.842852,0.30841 -2.758826,0.37829 a 5.7271618,5.7271618 0 0 0 -2.899584,1.08545 0.7833504,0.7833504 0 0 0 -0.249995,0.26054 0.87038934,0.87038934 0 0 0 -0.04008,0.45965 l 0.266201,2.53684 c -0.278276,-0.0418 -0.416252,-0.34969 -0.528995,-0.60675 -0.112761,-0.25704 -0.352287,-0.53983 -0.623437,-0.45922 a 0.50917776,0.50917776 0 0 0 -0.251363,0.21576 1.2707684,1.2707684 0 0 0 0.198548,1.62462 c 0.116924,0.10255 0.265068,0.23209 0.222881,0.37379 a 0.40908298,0.40908298 0 0 1 -0.207243,0.17927 c -0.396219,0.23626 -0.486463,0.75622 -0.575778,1.20975 -0.08932,0.45355 -0.273588,0.96877 -0.7128,1.09893 a 0.3916752,0.3916752 45 0 1 -0.295528,-0.0113 0.54834528,0.54834528 0 0 1 -0.200591,-0.33641 l -0.360811,-0.9705 a 1.4796619,1.4796619 0 0 0 -0.53066,-0.8135 1.8060578,1.8060578 0 0 0 -1.011737,-0.11622 c -0.348577,0.0102 -0.753665,-0.0573 -0.923773,-0.35108 a 0.87038934,0.87038934 0 0 1 0.16073,-0.91161 9.6178023,9.6178023 0 0 0 0.640156,-0.73639 2.1063422,2.1063422 0 0 1 -0.795197,-1.51206 2.1759733,2.1759733 0 0 1 0.61302,-1.18129 16.45471,16.45471 0 0 1 2.418558,-2.30855 6.0927252,6.0927252 45 0 1 2.428357,-1.25542 7.7247051,7.7247051 0 0 1 1.250452,-0.11225 c 0.09138,0.15325 1.945168,-0.0603 2.190734,-0.0649 a 5.6966982,5.6966982 0 0 1 1.994432,0.20923 z"
           style="fill:#3f3d56;stroke-width:0.43519464"
           inkscape:connector-curvature="0" />
        <path
           id="path61"
           d="m 83.226698,131.14438 -0.616879,-0.94955 a 2.4980174,2.4980174 0 0 0 -2.429956,-1.42401 10.070404,10.070404 0 0 0 -2.778697,0.005 5.3441905,5.3441905 0 0 0 -3.735041,2.81993 7.6202588,7.6202588 0 0 0 -0.676284,3.56497 1.9235604,1.9235604 0 0 1 -0.160427,1.07356 1.8669851,1.8669851 0 0 1 -0.574612,0.51491 c -1.27189,0.84959 -2.660297,1.7332 -4.182641,1.65289 a 1.218545,1.218545 0 0 0 -0.728703,0.095 0.67455173,0.67455173 0 0 0 0.05465,1.02639 1.5797566,1.5797566 0 0 0 1.150992,0.2308 c 1.584153,-0.13895 2.997865,-0.99711 4.401596,-1.75305 2.335046,-1.25045 4.79556,-2.25649 7.233781,-3.29992 a 26.433724,26.433724 0 0 0 3.035776,-1.48587 c 0.845472,-0.49402 0.482098,-1.34137 0.0064,-2.07112 z"
           style="fill:#27585d;stroke-width:0.43519464"
           inkscape:connector-curvature="0" />
        <path
           id="path63"
           d="m 83.226698,131.14438 -0.616879,-0.94955 a 2.4980174,2.4980174 0 0 0 -2.429956,-1.42401 10.070404,10.070404 0 0 0 -2.778697,0.005 5.3441905,5.3441905 0 0 0 -3.735041,2.81993 7.6202588,7.6202588 0 0 0 -0.676284,3.56497 1.9235604,1.9235604 0 0 1 -0.160427,1.07356 1.8669851,1.8669851 0 0 1 -0.574612,0.51491 c -1.27189,0.84959 -2.660297,1.7332 -4.182641,1.65289 a 1.218545,1.218545 0 0 0 -0.728703,0.095 0.67455173,0.67455173 0 0 0 0.05465,1.02639 1.5797566,1.5797566 0 0 0 1.150992,0.2308 c 1.584153,-0.13895 2.997865,-0.99711 4.401596,-1.75305 2.335046,-1.25045 4.79556,-2.25649 7.233781,-3.29992 a 26.433724,26.433724 0 0 0 3.035776,-1.48587 c 0.845472,-0.49402 0.482098,-1.34137 0.0064,-2.07112 z"
           style="fill:url(#linear-gradient-6);stroke-width:0.43519464"
           inkscape:connector-curvature="0" />
        <path
           id="path65"
           d="m 78.900246,146.30517 c 0.750386,2.8815 -1.105104,5.88794 -0.691501,8.83345 0.09884,0.7011 0.314911,1.37789 0.474995,2.06274 0.577256,2.59965 0.130937,5.31814 0.521507,7.95311 0.142993,0.92811 0.375482,1.87886 0.04768,2.74821 a 3.0463627,3.0463627 0 0 1 -1.505161,1.54605 c -2.42685,1.24945 -5.51454,0.16697 -8.022994,1.23707 -1.490722,0.63553 -2.570553,1.94317 -3.589076,3.20918 a 45.991372,45.991372 0 0 1 -2.877008,-7.13635 15.975996,15.975996 0 0 1 -0.438098,-7.61776 c 0.260842,-1.21957 0.71039,-2.39459 0.919758,-3.62401 0.128972,-0.76093 3.424588,-0.92728 3.646798,-1.6678 0.188285,-0.61895 -2.755059,-1.80777 -2.410266,-2.34271 a 24.988878,24.988878 0 0 1 4.249869,-4.66723 c 1.67971,-1.50825 3.571552,-3.07712 5.831799,-3.17839 a 4.40417,4.40417 0 0 1 3.206225,1.12834 3.4119262,3.4119262 0 0 1 0.989078,3.20533"
           style="fill:#ffffff;stroke-width:0.43519464"
           inkscape:connector-curvature="0" />
        <path
           id="path67"
           d="m 100.19595,158.01425 c 0.25462,-0.0404 0.50629,-0.0941 0.76241,-0.14046 a 6.9239473,6.9239473 0 0 1 2.59417,0.0594 10.32717,10.32717 0 0 1 2.16557,0.67467 4.0560143,4.0560143 0 0 1 2.33453,3.55832 0.9313166,0.9313166 45 0 1 -0.19734,0.65476 1.0662269,1.0662269 0 0 1 -0.99159,0.15551 10.405504,10.405504 0 0 1 -3.22838,-1.21647 c -0.77943,-0.45742 -1.72946,-1.03099 -2.51809,-0.58608 a 3.6208196,3.6208196 0 0 1 -0.52704,0.31425 1.4230866,1.4230866 0 0 1 -0.659054,0.008 c -2.776071,-0.40692 -5.570204,-1.03109 -8.347648,-0.66703 -1.326001,0.1725 -2.710788,0.55232 -3.948284,0.0235 a 0.47871413,0.47871413 0 0 1 -0.302376,-0.23518 c -0.461108,-1.13871 -0.116172,-3.35594 1.044523,-3.94163 0.922264,-0.45871 1.743462,0.009 2.651401,0.14685 1.081759,0.16568 9.126078,1.21625 9.167198,1.19173 z"
           style="fill:#f3bd8d;stroke-width:0.43519464"
           inkscape:connector-curvature="0" />
        <path
           id="path71"
           d="m 69.16793,164.72985 c -2.762517,1.72321 -5.751718,3.10024 -8.227297,5.24518 a 17.181485,17.181485 0 0 0 -5.18015,8.04418 1.305584,1.305584 45 0 1 -0.341402,0.65959 c -0.33813,0.28268 -0.848968,0.13127 -1.237244,-0.078 -1.788613,-0.96025 -2.899281,-2.83143 -3.792126,-4.66021 -1.053897,-2.15837 -1.955054,-4.49395 -1.814868,-6.8931 a 5.7750332,5.7750332 0 0 1 0.587109,-2.34642 7.4548846,7.4548846 45 0 1 2.391442,-2.49 c 3.159566,-2.26397 6.850311,-3.62863 10.28776,-5.43507 a 8.3644413,8.3644413 0 0 0 2.672063,-1.94289 c 1.043176,-1.27564 1.324819,-3.00417 2.087117,-4.46196 0.965633,-1.84756 2.655348,-3.19457 4.34544,-4.40499 a 9.1042723,9.1042723 0 0 1 3.083927,-1.62606 c 1.129238,-0.27305 2.443048,-0.0836 3.245304,0.7605 0.802249,0.84408 0.917523,2.0826 0.959893,3.23286 a 10.113924,10.113924 0 0 1 -0.187526,2.78712 c -0.356214,1.43352 -1.223851,2.65516 -1.870066,3.96772 -0.547174,1.12176 -0.60301,2.15829 -0.903252,3.32029 -0.720275,2.73491 -3.85124,4.91089 -6.106124,6.32129 z"
           style="fill:#55d400;stroke-width:0.43519464"
           inkscape:connector-curvature="0" />
        <path
           id="path73"
           d="m 91.888291,194.70168 a 15.257925,15.257925 0 0 0 0.873783,4.15064 c 0.17336,0.46919 0.442836,0.9976 0.932965,1.0803 a 1.5014216,1.5014216 0 0 0 0.964329,-0.28619 l 8.056772,-4.57095 a 0.9313166,0.9313166 45 0 0 0.4527,-0.42194 0.7180712,0.7180712 0 0 0 -0.10809,-0.58917 c -0.46359,-0.77748 -1.44042,-1.10707 -2.35539,-1.12899 -0.914968,-0.0219 -1.800875,0.24285 -2.707069,0.28663 a 1.2054892,1.2054892 0 0 1 -0.454398,-0.0483 c -0.589777,-0.21583 -0.537517,-1.03742 -0.64108,-1.64449 a 0.47436218,0.47436218 0 0 0 -0.08074,-0.22041 0.43519467,0.43519467 0 0 0 -0.536492,-0.05 c -0.556075,0.29107 -0.582972,1.1127 -1.060262,1.5189 a 1.9627279,1.9627279 0 0 1 -0.740544,0.3301 c -0.4661,0.13605 -3.251739,0.49486 -2.596472,1.5938 z"
           style="fill:#3f3d56;stroke-width:0.43519464"
           inkscape:connector-curvature="0" />
        <path
           id="path75"
           d="m 51.446791,203.48347 a 3.3118314,3.3118314 0 0 0 -1.154758,1.1395 3.3945184,3.3945184 45 0 0 -0.23414,1.55327 41.887486,41.887486 0 0 0 0.441205,5.39661 c 0.12019,0.8049 0.335642,1.71008 1.04584,2.10237 a 1.8495773,1.8495773 0 0 0 1.953205,-0.2678 5.0134426,5.0134426 0 0 0 1.247944,-1.64602 9.9485502,9.9485502 0 0 0 1.099924,-2.64206 c 0.165559,-0.76755 0.187335,-1.63177 0.706161,-2.21474 0.390088,-0.45047 1.014687,-0.6861 1.310168,-1.20177 a 0.40037909,0.40037909 0 0 0 0.06575,-0.29761 c -0.05251,-0.1815 -0.285983,-0.22469 -0.473321,-0.22446 l -0.837264,-0.053 a 2.2281967,2.2281967 0 0 1 -0.916781,-0.17792 c -1.059865,-0.52834 -0.658378,-2.14086 -1.524084,-2.70897 -0.748741,-0.49092 -2.106203,0.80998 -2.72985,1.24265 z"
           style="fill:#3f3d56;stroke-width:0.43519464"
           inkscape:connector-curvature="0" />
        <path
           id="path77"
           d="m 91.888291,194.70168 a 15.257925,15.257925 0 0 0 0.873783,4.15064 c 0.17336,0.46919 0.442836,0.9976 0.932965,1.0803 a 1.5014216,1.5014216 0 0 0 0.964329,-0.28619 l 8.056772,-4.57095 a 0.9313166,0.9313166 45 0 0 0.4527,-0.42194 0.7180712,0.7180712 0 0 0 -0.10809,-0.58917 c -0.46359,-0.77748 -1.44042,-1.10707 -2.35539,-1.12899 -0.914968,-0.0219 -1.800875,0.24285 -2.707069,0.28663 a 1.2054892,1.2054892 0 0 1 -0.454398,-0.0483 c -0.589777,-0.21583 -0.537517,-1.03742 -0.64108,-1.64449 a 0.47436218,0.47436218 0 0 0 -0.08074,-0.22041 0.43519467,0.43519467 0 0 0 -0.536492,-0.05 c -0.556075,0.29107 -0.582972,1.1127 -1.060262,1.5189 a 1.9627279,1.9627279 0 0 1 -0.740544,0.3301 c -0.4661,0.13605 -3.251739,0.49486 -2.596472,1.5938 z"
           style="fill:url(#linear-gradient-8);stroke-width:0.43519464"
           inkscape:connector-curvature="0" />
        <path
           id="path79"
           d="m 51.446791,203.48347 a 3.3118314,3.3118314 0 0 0 -1.154758,1.1395 3.3945184,3.3945184 45 0 0 -0.23414,1.55327 41.887486,41.887486 0 0 0 0.441205,5.39661 c 0.12019,0.8049 0.335642,1.71008 1.04584,2.10237 a 1.8495773,1.8495773 0 0 0 1.953205,-0.2678 5.0134426,5.0134426 0 0 0 1.247944,-1.64602 9.9485502,9.9485502 0 0 0 1.099924,-2.64206 c 0.165559,-0.76755 0.187335,-1.63177 0.706161,-2.21474 0.390088,-0.45047 1.014687,-0.6861 1.310168,-1.20177 a 0.40037909,0.40037909 0 0 0 0.06575,-0.29761 c -0.05251,-0.1815 -0.285983,-0.22469 -0.473321,-0.22446 l -0.837264,-0.053 a 2.2281967,2.2281967 0 0 1 -0.916781,-0.17792 c -1.059865,-0.52834 -0.658378,-2.14086 -1.524084,-2.70897 -0.748741,-0.49092 -2.106203,0.80998 -2.72985,1.24265 z"
           style="fill:url(#linear-gradient-9);stroke-width:0.43519464"
           inkscape:connector-curvature="0" />
        <path
           id="path81"
           d="m 75.367864,147.62099 c -0.08776,-0.10474 0.145264,-0.17275 0.271993,-0.12167 2.317632,1.01469 4.266977,2.69486 6.284674,4.21774 2.017692,1.52288 4.237165,2.95078 6.74323,3.29576 1.029567,0.14613 2.242295,0.18305 2.824288,1.05713 0.444442,0.67744 0.286032,1.56739 0.112206,2.35506 -0.414839,1.85356 -0.974291,3.91495 -2.6322,4.82245 -0.550839,-0.53292 -1.391124,-0.57404 -2.145366,-0.6918 -2.951337,-0.45442 -5.429001,-2.4428 -8.275348,-3.34997 -1.413109,-0.44946 -2.960486,-0.65671 -4.144744,-1.54663 -1.596126,-1.20677 -2.128344,-3.35699 -2.307229,-5.34801 a 7.9771182,7.9771182 45 0 1 0.161197,-2.98423 3.4510937,3.4510937 0 0 1 1.835497,-2.2497 2.2281967,2.2281967 0 0 1 2.681273,0.68132"
           style="fill:#27585d;stroke-width:0.43519464"
           inkscape:connector-curvature="0" />
        <path
           id="path83"
           d="m 75.367864,147.62099 c -0.08776,-0.10474 0.145264,-0.17275 0.271993,-0.12167 2.317632,1.01469 4.266977,2.69486 6.284674,4.21774 2.017692,1.52288 4.237165,2.95078 6.74323,3.29576 1.029567,0.14613 2.242295,0.18305 2.824288,1.05713 0.444442,0.67744 0.286032,1.56739 0.112206,2.35506 -0.414839,1.85356 -0.974291,3.91495 -2.6322,4.82245 -0.550839,-0.53292 -1.391124,-0.57404 -2.145366,-0.6918 -2.951337,-0.45442 -5.429001,-2.4428 -8.275348,-3.34997 -1.413109,-0.44946 -2.960486,-0.65671 -4.144744,-1.54663 -1.596126,-1.20677 -2.128344,-3.35699 -2.307229,-5.34801 a 7.9771182,7.9771182 45 0 1 0.161197,-2.98423 3.4510937,3.4510937 0 0 1 1.835497,-2.2497 2.2281967,2.2281967 0 0 1 2.681273,0.68132"
           style="fill:#55d400;stroke-width:0.43519464"
           inkscape:connector-curvature="0" />
      </g>
      <g
         id="g1958"
         transform="translate(20.144367,101.06915)">
        <path
           id="path25"
           d="m 793.62098,-41.798448 a 1.8889111,1.8889111 0 0 1 -0.3811,0.536848 9.1628759,9.1628759 0 0 1 -4.69245,2.651103 8.5696916,8.5696916 0 0 1 -1.93199,0.218715 c -0.3811,-2.458897 -0.76882,-4.921109 -1.06707,-7.389948 v 0 c -0.23529,-1.928678 -0.41092,-3.854042 -0.49377,-5.789347 -0.0563,-1.21288 -2.68424,-5.44139 -2.14739,-6.574737 0.59318,-1.246018 4.86477,3.018944 5.34528,3.830845 2.66767,4.473737 3.62538,7.933426 5.45465,11.780839 a 0.97428045,0.97428045 0 0 1 -0.0862,0.735682 z"
           style="fill:#660080;stroke-width:0.33138791"
           inkscape:connector-curvature="0" />
        <path
           id="path27"
           d="m 788.97823,-39.061184 a 3.1382435,3.1382435 0 0 1 -0.4308,0.457315 8.5696916,8.5696916 0 0 1 -1.93199,0.218717 c -0.3811,-2.458899 -0.76882,-4.921111 -1.06707,-7.389951 v 0 q 0.16901,-2.909586 0.61306,-5.795974 c -0.12592,0.805272 0.86493,2.561628 1.13335,3.350331 l 1.16317,3.436493 c 0.60644,1.792808 1.90217,3.973341 0.52028,5.723069 z"
           style="fill:url(#linearGradient1022);stroke-width:0.33138791"
           inkscape:connector-curvature="0" />
        <path
           id="path29"
           d="m 787.54995,-34.855871 c 0.26511,1.617175 0.60313,3.254229 1.40177,4.685822 0.41092,0.735682 1.02399,1.458108 1.85577,1.587349 a 2.8665055,2.8665055 0 0 0 1.35869,-0.202146 9.4511834,9.4511834 0 0 0 2.49204,-1.299042 18.783067,18.783067 0 0 0 2.05129,-1.825946 25.281584,25.281584 0 0 0 2.62791,-2.896331 c 0.36783,-0.497079 0.70254,-1.020674 1.10352,-1.494558 1.65694,-1.971758 4.30804,-2.856564 6.18701,-4.616233 0.50702,-0.470571 1.53432,-2.624592 1.4581,-3.31388 -0.68928,-0.397665 -2.10431,1.202939 -2.8665,1.43491 -0.76219,0.231972 -1.47467,0.609754 -2.24018,0.825156 a 5.4811562,5.4811562 0 0 1 -2.80686,0.03646 c -0.3115,-0.07953 -0.68266,-4.994015 -0.99416,-4.881343 a 1.1532299,1.1532299 0 0 0 -0.41092,0.291621 c -0.64289,0.662776 -0.99417,6.319567 -1.5277,7.055248 -0.73237,0.994164 -1.74641,1.749732 -2.75052,2.472154 -0.0895,0.06297 -0.20214,0.129241 -0.30156,0.07954 a 0.301563,0.301563 0 0 1 -0.1193,-0.205462 c -0.2618,-0.970964 -0.55673,-1.935307 -0.87818,-2.88639 -0.22534,-0.662776 -0.54347,-1.391829 -1.20956,-1.590662 -0.59319,-0.175636 -1.20957,0.159066 -1.73979,0.480512 -0.68266,0.417549 -1.37195,0.82847 -2.05129,1.249333 -0.37778,0.231971 -0.8351,0.457315 -1.01405,0.884805 -0.21871,0.513652 -0.0331,1.222826 0.0298,1.749731 0.0994,0.798647 0.21541,1.590664 0.34465,2.379366 z"
           style="fill:#c87137;stroke-width:0.33138791"
           inkscape:connector-curvature="0" />
        <path
           id="path35"
           d="m 775.61667,-2.76758 c 1.32555,0.477199 2.76709,0.818527 3.85404,1.723215 0.96434,0.798647 1.5509,1.955192 2.02478,3.111733 a 24.784502,24.784502 0 0 1 1.65694,12.261353 c -0.13255,1.106835 -0.33139,2.24681 -0.0431,3.31388 0.28831,1.067069 1.27253,2.067863 2.37937,1.935307 1.53432,-3.048772 1.56746,-6.607874 1.57078,-10.021174 0,-2.492037 0,-5.037095 -0.8351,-7.386635 -0.68266,-1.935303 -1.88891,-3.645268 -3.13493,-5.272382 -4.54332,-5.964983 -10.04104,-11.528983 -17.03996,-14.209912 a 1.3818876,1.3818876 0 0 0 -0.94114,-0.115986 c -1.44154,0.526905 -1.20625,3.091848 -0.6462,4.122467 a 38.258734,38.258734 0 0 0 2.6511,4.105896 18.19651,18.19651 0 0 0 8.50341,6.432238 z"
           style="fill:url(#linear-gradient-3-5);stroke-width:0.33138791"
           inkscape:connector-curvature="0" />
        <path
           id="path39"
           d="m 780.38534,-15.443168 c 3.00569,1.017359 6.21021,1.444853 9.10654,2.740579 a 0.70585627,0.70585627 0 0 1 0.43081,0.367839 0.72573954,0.72573954 0 0 1 -0.053,0.424178 79.490016,79.490016 0 0 0 -4.09595,22.534376 16.900784,16.900784 0 0 0 5.24918,0.115986 1.1963104,1.1963104 0 0 0 0.55342,-0.175632 1.2228214,1.2228214 0 0 0 0.35128,-0.523595 q 4.2053,-9.441243 7.54901,-19.23707 c 0.39435,-1.156541 0.78538,-2.366107 0.62632,-3.578987 -0.22866,-1.766296 -1.55752,-3.158128 -2.82011,-4.414089 l -9.8389,-9.815708 a 2.6676727,2.6676727 0 0 0 -0.90138,-0.662776 2.5649424,2.5649424 0 0 0 -1.21951,-0.05965 c -3.88055,0.480514 -9.17944,0.629636 -16.31091,0.331388 -0.92457,-0.03976 3.64527,5.225986 4.02636,6.23672 0.30488,0.801957 1.26922,1.835887 1.85909,2.458897 1.47799,1.550899 3.47294,2.574883 5.48778,3.257544 z"
           style="fill:#525263;stroke-width:0.33138791"
           inkscape:connector-curvature="0" />
        <path
           id="path41"
           d="m 780.38534,-15.443168 c 3.00569,1.017359 6.21021,1.444853 9.10654,2.740579 a 0.70585627,0.70585627 0 0 1 0.43081,0.367839 0.72573954,0.72573954 0 0 1 -0.053,0.424178 79.490016,79.490016 0 0 0 -4.09595,22.534376 16.900784,16.900784 0 0 0 5.24918,0.115986 1.1963104,1.1963104 0 0 0 0.55342,-0.175632 1.2228214,1.2228214 0 0 0 0.35128,-0.523595 q 4.2053,-9.441243 7.54901,-19.23707 c 0.39435,-1.156541 0.78538,-2.366107 0.62632,-3.578987 -0.22866,-1.766296 -1.55752,-3.158128 -2.82011,-4.414089 l -9.8389,-9.815708 a 2.6676727,2.6676727 0 0 0 -0.90138,-0.662776 2.5649424,2.5649424 0 0 0 -1.21951,-0.05965 c -3.88055,0.480514 -9.17944,0.629636 -16.31091,0.331388 -0.92457,-0.03976 3.64527,5.225986 4.02636,6.23672 0.30488,0.801957 1.26922,1.835887 1.85909,2.458897 1.47799,1.550899 3.47294,2.574883 5.48778,3.257544 z"
           style="fill:#373748;stroke-width:0.33138791"
           inkscape:connector-curvature="0" />
        <path
           id="path43"
           d="m 785.27,14.974927 a 3.3304485,3.3304485 0 0 0 -0.48051,1.236081 19.863391,19.863391 0 0 0 -0.39104,2.336281 c -0.0663,0.609755 -0.0895,1.272531 0.25849,1.772926 0.34795,0.500394 0.92125,0.682661 1.4581,0.891433 a 32.963156,32.963156 0 0 1 3.93026,1.931992 c 0.85498,0.470574 1.74641,0.957713 2.72069,0.994164 0.97429,0.03643 2.05129,-0.49708 2.27332,-1.444849 a 2.7670891,2.7670891 0 0 0 -0.11267,-1.362006 10.799932,10.799932 0 0 0 -3.01562,-4.97082 4.3511233,4.3511233 0 0 0 -0.83842,-0.639576 5.4712146,5.4712146 0 0 0 -0.91132,-0.371157 19.816997,19.816997 0 0 0 -2.71406,-0.778762 c -0.80527,-0.129241 -1.62049,-0.367839 -2.17722,0.404293 z"
           style="fill:#2e2e3f;stroke-width:0.33138791"
           inkscape:connector-curvature="0" />
        <path
           id="path45-9"
           d="m 785.27,14.974927 a 3.3304485,3.3304485 0 0 0 -0.48051,1.236081 19.863391,19.863391 0 0 0 -0.39104,2.336281 c -0.0663,0.609755 -0.0895,1.272531 0.25849,1.772926 0.34795,0.500394 0.92125,0.682661 1.4581,0.891433 a 32.963156,32.963156 0 0 1 3.93026,1.931992 c 0.85498,0.470574 1.74641,0.957713 2.72069,0.994164 0.97429,0.03643 2.05129,-0.49708 2.27332,-1.444849 a 2.7670891,2.7670891 0 0 0 -0.11267,-1.362006 10.799932,10.799932 0 0 0 -3.01562,-4.97082 4.3511233,4.3511233 0 0 0 -0.83842,-0.639576 5.4712146,5.4712146 0 0 0 -0.91132,-0.371157 19.816997,19.816997 0 0 0 -2.71406,-0.778762 c -0.80527,-0.129241 -1.62049,-0.367839 -2.17722,0.404293 z"
           style="fill:url(#linear-gradient-6-0);stroke-width:0.33138791"
           inkscape:connector-curvature="0" />
        <path
           id="path47-7"
           d="m 786.25422,10.872346 a 21.908055,21.908055 0 0 0 -0.39103,3.976655 c 0,0.586555 0.0398,1.236076 0.46063,1.65694 a 1.918736,1.918736 0 0 0 1.41171,0.404293 5.4679006,5.4679006 0 0 0 1.77955,-0.367838 0.77876161,0.77876161 0 0 0 0.33139,-0.205462 0.81190036,0.81190036 0 0 0 0.13587,-0.314818 23.724061,23.724061 0 0 0 0.79864,-5.812546 1.5011872,1.5011872 0 0 0 -0.18226,-0.888118 C 790.2839,8.880703 789.63107,8.900588 789.10085,9.006634 a 12.2249,12.2249 0 0 0 -1.98833,0.60644 c -0.60976,0.212087 -0.73568,0.629636 -0.8583,1.259272 z"
           style="fill:#c87137;fill-opacity:1;stroke-width:0.33138791"
           inkscape:connector-curvature="0" />
        <path
           id="path49-8"
           d="m 792.78919,17.102441 a 12.682215,12.682215 0 0 1 0.58324,1.812691 c 0.10273,0.48051 0.16238,0.994164 0.47058,1.378572 0.39103,0.480514 1.07038,0.603126 1.69007,0.613071 a 3.4199232,3.4199232 0 0 0 1.49456,-0.251857 1.1598577,1.1598577 0 0 0 0.58325,-0.50371 1.4183402,1.4183402 0 0 0 0.0928,-0.715796 11.432883,11.432883 0 0 0 -1.22945,-4.838263 18.607431,18.607431 0 0 0 -1.47136,-2.22693 1.3818876,1.3818876 0 0 0 -0.80527,-0.662776 1.3255516,1.3255516 0 0 0 -0.96434,0.367843 c -0.54679,0.410919 -1.74973,1.09689 -1.6238,1.875652 0.15907,1.037244 0.80859,2.167279 1.17974,3.151503 z"
           style="fill:#c87137;fill-opacity:1;stroke-width:0.33138791"
           inkscape:connector-curvature="0" />
        <path
           id="path51-5"
           d="m 796.80561,18.325262 a 12.50658,12.50658 0 0 0 -1.09027,0.685971 c -0.54679,0.301563 -1.18968,0.361213 -1.78949,0.533535 a 0.80195872,0.80195872 0 0 0 -0.41755,0.222031 0.78207549,0.78207549 0 0 0 -0.14912,0.381094 8.3112088,8.3112088 0 0 0 0.10936,2.714069 q 0.45731,2.896331 1.06706,5.769462 c 0.16901,0.788702 0.37116,1.620489 0.94446,2.187159 0.5733,0.566675 1.44485,0.762192 2.26007,0.785392 a 4.7156499,4.7156499 0 0 0 2.22029,-0.414234 4.1688599,4.1688599 0 0 0 2.13414,-2.929471 6.4587504,6.4587504 0 0 0 -0.43743,-3.675093 18.044072,18.044072 0 0 0 -1.18637,-2.28989 q -0.89475,-1.537639 -1.78286,-3.075277 c -0.45069,-0.782077 -0.86161,-1.328867 -1.88229,-0.894748 z"
           style="fill:#2e2e3f;stroke-width:0.33138791"
           inkscape:connector-curvature="0" />
        <path
           id="path53-3"
           d="m 796.80561,18.325262 a 12.50658,12.50658 0 0 0 -1.09027,0.685971 c -0.54679,0.301563 -1.18968,0.361213 -1.78949,0.533535 a 0.80195872,0.80195872 0 0 0 -0.41755,0.222031 0.78207549,0.78207549 0 0 0 -0.14912,0.381094 8.3112088,8.3112088 0 0 0 0.10936,2.714069 q 0.45731,2.896331 1.06706,5.769462 c 0.16901,0.788702 0.37116,1.620489 0.94446,2.187159 0.5733,0.566675 1.44485,0.762192 2.26007,0.785392 a 4.7156499,4.7156499 0 0 0 2.22029,-0.414234 4.1688599,4.1688599 0 0 0 2.13414,-2.929471 6.4587504,6.4587504 0 0 0 -0.43743,-3.675093 18.044072,18.044072 0 0 0 -1.18637,-2.28989 q -0.89475,-1.537639 -1.78286,-3.075277 c -0.45069,-0.782077 -0.86161,-1.328867 -1.88229,-0.894748 z"
           style="fill:url(#linear-gradient-7-6);stroke-width:0.33138791"
           inkscape:connector-curvature="0" />
        <path
           id="path55-3"
           d="m 756.65466,-42.331983 a 9.0535179,9.0535179 0 0 0 -0.57662,2.273321 54.437093,54.437093 0 0 0 -0.60312,6.094224 c -0.1657,3.89712 0.0862,7.80087 -0.0232,11.697994 -0.11268,4.052872 -0.58987,8.254874 0.86823,12.036007 a 4.6626279,4.6626279 0 0 0 1.1201,1.822636 2.1208826,2.1208826 0 0 0 1.98832,0.543475 2.2070435,2.2070435 0 0 0 1.32555,-1.441538 6.5714224,6.5714224 0 0 0 0.2386,-2.008212 l 0.053,-3.704913 c 0,-0.07622 0,-0.165697 0.0762,-0.198837 a 0.19220499,0.19220499 0 0 1 0.18889,0.03648 10.057623,10.057623 0 0 1 0.8119,0.785387 c 0.29494,0.238602 0.76551,0.354588 1.02731,0.07953 a 0.85829467,0.85829467 0 0 0 0.15575,-0.68266 c -0.15907,-1.603915 -1.55753,-2.76046 -2.38931,-4.142347 -1.19962,-1.988328 -1.19962,-4.49362 -0.89806,-6.806711 0.37447,-2.89633 1.15654,-5.723066 1.93531,-8.539866 l 0.66277,-2.382676 c 0.5004,-1.809379 0.99417,-3.784451 0.26511,-5.51761 a 4.6162335,4.6162335 0 0 0 -3.23766,-2.651103 c -1.3852,-0.255169 -2.48872,1.58072 -2.98912,2.707439 z"
           style="fill:#c87137;stroke-width:0.33138791"
           inkscape:connector-curvature="0" />
        <path
           id="path57-8"
           d="m 787.42071,-27.263773 c -0.42749,1.149915 -2.84,-0.192207 -4.21857,0.497079 -2.63122,1.325552 -5.63359,-0.03643 -8.56638,0 -3.12167,0.05634 -5.27569,3.131618 -8.37417,3.522656 a 1.6900784,1.6900784 0 0 1 -0.68266,0 c -0.42749,-0.12593 -0.67934,-0.553419 -0.86161,-0.954398 a 8.334406,8.334406 0 0 1 -0.56998,-1.931992 c -0.38441,-2.200415 0,-4.559896 0.41092,-6.796765 q 0.51696,-2.84331 1.03061,-5.689931 0.5965,-3.313879 1.20294,-6.667525 a 34.219116,34.219116 0 0 1 0.99417,-4.364378 c 0.0795,-0.248541 0.16238,-0.490455 0.25185,-0.729054 a 37.996938,37.996938 0 0 1 2.78034,-5.610397 c 0.66278,-1.149916 1.32555,-2.319716 2.34954,-3.191266 1.14329,-0.964339 2.61797,-1.444851 4.09927,-1.676823 a 8.2846976,8.2846976 0 0 1 3.99986,0.231972 c 0.73899,0.258482 1.01735,1.040558 1.60391,1.52107 a 10.011229,10.011229 0 0 1 1.97176,1.935306 8.7983491,8.7983491 0 0 1 1.20957,2.89633 c 2.0778,8.079237 -0.92789,16.79474 1.04718,24.897172 0.22534,0.951084 0.66278,1.202941 0.32145,2.110944 z"
           style="fill:#660080;stroke-width:0.33138791"
           inkscape:connector-curvature="0" />
        <polygon
           id="polygon59"
           points="215.5,90.14 215.5,103.68 212.08,88.64 215.39,83.82 217.72,86.7 218.5,91.81 "
           style="fill:url(#linear-gradient-8-7)"
           transform="matrix(0.33138791,0,0,0.33138791,712.4475,-84.375167)" />
        <path
           id="path61-3"
           d="m 776.18003,-55.753193 0.62633,0.331388 0.99416,0.864923 -2.6511,7.111584 c 0,0 3.85072,-5.925216 3.97665,-8.947474 a 16.77817,16.77817 0 0 0 -0.68597,-5.501039 z"
           style="fill:url(#linear-gradient-9-6);stroke-width:0.33138791"
           inkscape:connector-curvature="0" />
        <path
           id="path63-7"
           d="m 767.68987,-35.369525 a 19.131024,19.131024 0 0 0 0,4.904544 c 0.13587,1.023989 0.35459,2.044663 0.285,3.071967 a 0.89806123,0.89806123 0 0 1 -0.18227,0.55673 0.97096657,0.97096657 0 0 1 -0.54679,0.215402 q -1.55421,0.245227 -3.11173,0.500394 c -0.38441,-2.200414 0,-4.559895 0.41092,-6.796765 q 0.51697,-2.843306 1.03062,-5.68993 0.5965,-3.313879 1.20294,-6.667524 a 34.219116,34.219116 0 0 1 0.99416,-4.364379 c 0.0795,-0.248541 0.16238,-0.490454 0.25185,-0.729053 1.02731,-0.569987 2.45559,-0.994164 3.09186,-0.07291 0.66277,0.994164 -0.20878,3.31388 -0.46726,4.308043 -0.94115,3.602186 -2.48541,7.045307 -2.9593,10.763477 z"
           style="fill:url(#linear-gradient-10-4);stroke-width:0.33138791"
           inkscape:connector-curvature="0" />
        <path
           id="path65-9"
           d="m 791.5266,-64.100854 a 5.4910978,5.4910978 0 0 1 -0.0364,1.236077 0.91131674,0.91131674 0 0 1 -0.84504,0.762192 c -1.03393,-0.07622 -1.77955,0.91463 -2.60139,1.550895 a 4.3842621,4.3842621 0 0 1 -4.54664,0.434118 0.59649825,0.59649825 0 0 0 -0.75225,0.331388 1.7298449,1.7298449 0 0 0 -0.0663,0.911317 l 0.38109,3.625384 c 0.0729,0.699228 0.0795,1.554209 -0.51365,1.931991 -0.59318,0.377782 -1.29572,0.04971 -1.78618,-0.377782 a 5.9649825,5.9649825 0 0 1 -1.61386,-2.707439 12.592741,12.592741 0 0 1 2.68756,-12.178504 7.7511633,7.7511633 0 0 1 1.91211,-1.5509 8.2482452,8.2482452 0 0 1 2.38599,-0.80527 6.4852616,6.4852616 0 0 1 2.27332,-0.12593 4.5996643,4.5996643 0 0 1 2.63122,1.48793 c 0.50371,0.55011 0.99416,2.19048 1.52438,2.4589 -0.39435,1.00079 -1.01736,1.8856 -1.03393,3.015633 z"
           style="fill:#c87137;stroke-width:0.33138791"
           inkscape:connector-curvature="0" />
        <path
           id="path67-3"
           d="m 783.63957,-78.330647 a 2.8731332,2.8731332 0 0 0 -1.47136,0.0431 c -0.93451,0.33138 -1.4581,1.30898 -1.79612,2.24018 -0.33802,0.9312 -0.61638,1.94856 -1.35206,2.60802 -0.63296,0.56999 -1.53102,0.79865 -2.101,1.42828 -0.66278,0.73237 -0.72574,1.81601 -0.66278,2.80023 a 3.9335745,3.9335745 0 0 0 0.59981,2.08774 c 0.35127,0.4772 0.89143,0.80859 1.16649,1.32556 0.3115,0.59318 0.41755,1.51113 1.08695,1.55089 a 1.1167773,1.1167773 0 0 0 0.73899,-0.33139 5.070235,5.070235 0 0 0 1.478,-2.18384 c 0.16238,-0.47057 0.26842,-0.99417 0.62632,-1.32555 0.3579,-0.33139 1.08695,-0.35128 1.24933,0.1193 a 1.4978734,1.4978734 0 0 1 -0.13255,0.87817 c -0.0862,0.29162 -0.0497,0.68598 0.23528,0.78539 0.53685,-0.82847 0.83841,-1.80275 1.47468,-2.555 a 3.645267,3.645267 0 0 1 5.7562,0.27174 c 0.33139,0.47389 0.55673,1.03724 1.02068,1.37526 a 2.9095858,2.9095858 0 0 0 1.44816,0.42418 c 1.13998,0.11267 2.34623,0.15575 3.37353,-0.35127 1.0273,-0.50703 1.78618,-1.73648 1.39183,-2.81349 -0.31151,-0.84504 -1.19962,-1.32555 -2.06123,-1.59729 -0.86161,-0.27174 -1.78287,-0.4076 -2.54175,-0.89143 -1.03061,-0.66278 -1.58072,-1.84252 -2.18053,-2.9129 -0.59981,-1.07038 -1.41171,-2.17059 -2.61133,-2.42245 a 4.8051247,4.8051247 0 0 0 -1.47799,0 5.5540613,5.5540613 0 0 1 -1.4548,0.11268 c -0.59649,-0.12262 -1.17311,-0.52691 -1.80275,-0.66609 z"
           style="fill:#cccccc;stroke-width:0.33138791"
           inkscape:connector-curvature="0" />
        <path
           id="path69"
           d="m 783.63957,-51.100507 a 42.384514,42.384514 0 0 1 0.66278,11.648285 c -0.2618,3.240974 -0.88481,6.458748 -0.86161,9.709667 a 16.443468,16.443468 0 0 1 -0.0829,2.740579 c -0.14581,0.901373 -6.19032,0.55673 -7.07181,0.54679 -1.48462,-0.01988 0.39766,1.988328 -0.71912,1.020674 -1.75304,-1.527698 -2.53511,-3.910379 -2.75051,-6.223465 -0.3082,-3.297309 0.36783,-6.597934 1.10352,-9.828967 0.51033,-2.236868 1.05381,-4.480364 1.96844,-6.584677 1.13335,-2.601395 2.92615,-5.91196 3.50277,-8.692305 0.0828,-0.407607 -1.32555,-1.888911 -0.71911,-1.869028 0.39435,0 0.20877,0.613068 0.27836,0.917945 a 2.8930164,2.8930164 0 0 0 0.69261,1.239391 3.2542293,3.2542293 0 0 0 1.78286,1.063754 c 0.44738,0.08285 0.95771,0.06296 1.28247,0.381097 0.39436,0.38441 0.33139,1.133346 0.44406,1.65694 0.16238,0.748936 0.33471,1.507815 0.48714,2.27332 z"
           style="fill:#f2f2f2;stroke-width:0.33138791"
           inkscape:connector-curvature="0" />
        <path
           id="path71-7"
           d="m 770.22168,-60.959297 c -1.60392,0.735681 -2.98249,1.875656 -4.28485,3.068652 a 35.909194,35.909194 0 0 0 -3.04877,3.101791 c -0.84172,0.994164 -1.61054,2.02478 -2.49866,2.962608 -1.22614,1.289099 -2.75715,2.535117 -2.99906,4.308043 a 5.4778421,5.4778421 0 0 0 0.47057,2.697497 7.7809881,7.7809881 0 0 0 1.37526,2.362796 5.4215062,5.4215062 0 0 0 2.84662,1.656939 2.5185481,2.5185481 0 0 0 1.05381,0.0464 3.2873681,3.2873681 0 0 0 1.32556,-0.742309 23.80028,23.80028 0 0 0 2.44895,-2.130824 c 0.78208,-0.811901 1.44485,-1.736473 2.20704,-2.568257 0.66278,-0.715797 1.36864,-1.362004 2.03141,-2.064546 0.79202,-0.841725 1.49787,-1.75967 2.20373,-2.677614 a 36.286976,36.286976 0 0 0 2.74058,-3.92032 17.984422,17.984422 0 0 0 1.63374,-3.817588 c 0.25517,-0.868237 0.66278,-1.968444 -0.21871,-2.594768 -1.87234,-1.318923 -5.42151,-0.560045 -7.28722,0.311505 z"
           style="fill:#27585d;stroke-width:0.33138791"
           inkscape:connector-curvature="0" />
        <path
           id="path73-8"
           d="m 770.22168,-60.959297 c -1.60392,0.735681 -2.98249,1.875656 -4.28485,3.068652 a 35.909194,35.909194 0 0 0 -3.04877,3.101791 c -0.84172,0.994164 -1.61054,2.02478 -2.49866,2.962608 -1.22614,1.289099 -2.75715,2.535117 -2.99906,4.308043 a 5.4778421,5.4778421 0 0 0 0.47057,2.697497 7.7809881,7.7809881 0 0 0 1.37526,2.362796 5.4215062,5.4215062 0 0 0 2.84662,1.656939 2.5185481,2.5185481 0 0 0 1.05381,0.0464 3.2873681,3.2873681 0 0 0 1.32556,-0.742309 23.80028,23.80028 0 0 0 2.44895,-2.130824 c 0.78208,-0.811901 1.44485,-1.736473 2.20704,-2.568257 0.66278,-0.715797 1.36864,-1.362004 2.03141,-2.064546 0.79202,-0.841725 1.49787,-1.75967 2.20373,-2.677614 a 36.286976,36.286976 0 0 0 2.74058,-3.92032 17.984422,17.984422 0 0 0 1.63374,-3.817588 c 0.25517,-0.868237 0.66278,-1.968444 -0.21871,-2.594768 -1.87234,-1.318923 -5.42151,-0.560045 -7.28722,0.311505 z"
           style="fill:#660080;stroke-width:0.33138791"
           inkscape:connector-curvature="0" />
        <path
           id="path75-7"
           d="m 798.00192,-45.828125 a 1.6304285,1.6304285 0 0 0 -0.53353,2.207043 8.2846976,8.2846976 0 0 0 2.19378,2.48541 c 0.53022,0.569987 1.72322,0.662775 2.78366,0.03977 1.06044,-0.623009 6.12074,-3.376843 8.64923,-5.176279 a 1.6569396,1.6569396 0 0 0 0.37446,-2.376051 l -2.11756,-2.651103 a 1.6304285,1.6304285 0 0 0 -2.1474,-0.357899 z"
           style="fill:#3d3d54;stroke-width:0.33138791"
           inkscape:connector-curvature="0" />
        <path
           id="path77-4"
           d="m 764.82668,-23.181077 -0.0762,-0.07622"
           style="fill:none;stroke-width:0.33138791"
           inkscape:connector-curvature="0" />
        <path
           id="path79-1"
           d="m 764.36937,-17.265799 a 9.9714621,9.9714621 0 0 0 1.94524,3.744683 c 0.99417,1.159855 2.34623,1.988327 3.64527,2.77703 l 5.47121,3.330449 a 18.991841,18.991841 0 0 1 2.29652,1.554209 c 1.79281,1.477988 2.9825,3.539222 4.13904,5.554059 l 7.97982,13.908354 c 0.40429,0.712481 0.97097,1.517753 1.78949,1.491243 a 2.2898905,2.2898905 0 0 0 1.193,-0.53022 c 1.02399,-0.719111 2.12419,-1.537638 2.42907,-2.753834 0.21209,-0.848353 0,-1.739786 -0.25517,-2.581513 C 793.77673,5.082999 791.85468,1.17925 789.926,-2.701305 q -4.59635,-9.212582 -9.32857,-18.388713 c -0.83841,-1.6238 -1.85577,-4.152292 -3.24097,-5.345288 0,0 -12.87111,-0.782076 -13.19587,0.49377 a 16.148533,16.148533 0 0 0 0.20878,8.675737 z"
           style="fill:#525263;stroke-width:0.33138791"
           inkscape:connector-curvature="0" />
        <path
           id="path81-9"
           d="m 764.36937,-17.265799 a 9.9714621,9.9714621 0 0 0 1.94524,3.744683 c 0.99417,1.159855 2.34623,1.988327 3.64527,2.77703 l 5.47121,3.330449 a 18.991841,18.991841 0 0 1 2.29652,1.554209 c 1.79281,1.477988 2.9825,3.539222 4.13904,5.554059 l 7.97982,13.908354 c 0.40429,0.712481 0.97097,1.517753 1.78949,1.491243 a 2.2898905,2.2898905 0 0 0 1.193,-0.53022 c 1.02399,-0.719111 2.12419,-1.537638 2.42907,-2.753834 0.21209,-0.848353 0,-1.739786 -0.25517,-2.581513 C 793.77673,5.082999 791.85468,1.17925 789.926,-2.701305 q -4.59635,-9.212582 -9.32857,-18.388713 c -0.83841,-1.6238 -1.85577,-4.152292 -3.24097,-5.345288 0,0 -12.87111,-0.782076 -13.19587,0.49377 a 16.148533,16.148533 0 0 0 0.20878,8.675737 z"
           style="fill:#373748;stroke-width:0.33138791"
           inkscape:connector-curvature="0" />
        <polygon
           id="polygon83"
           points="200.36,65.18 194.87,67.35 191.54,85.98 202.61,85.48 "
           style="fill:#27585d"
           transform="matrix(0.33138791,0,0,0.33138791,712.4475,-84.375167)" />
        <path
           id="path85"
           d="m 782.69512,-56.197253 c 0,0.278366 0,0.556732 0,0.835098 a 3.2542293,3.2542293 0 0 0 0.0199,0.361213 3.3403902,3.3403902 0 0 0 0.0795,0.361212 l 0.45732,1.802751 0.18889,-2.929469 c 0.54016,0.261796 1.09358,0.500395 1.65694,0.70917 a 4.1721738,4.1721738 0 0 0 -0.33139,-1.27253 c -0.33139,-0.848353 -0.63626,-1.70002 -0.99417,-2.531804 a 2.0811161,2.0811161 0 0 0 -0.35789,-0.609753 0.7655061,0.7655061 0 0 0 -0.62964,-0.26511 c -0.33139,0.139182 -0.12261,1.381887 -0.1193,1.656939 z"
           style="fill:#27585d;stroke-width:0.33138791"
           inkscape:connector-curvature="0" />
        <path
           id="path87"
           d="m 809.5044,-47.279604 -6.73381,4.258335 a 0.58987049,0.58987049 0 0 1 -0.72573,-0.132556 l -2.14077,-2.412503 a 0.39766549,0.39766549 0 0 1 0.053,-0.62301 l 6.74706,-4.25502 a 0.58987049,0.58987049 0 0 1 0.72574,0.132555 l 2.14076,2.40919 a 0.39766549,0.39766549 0 0 1 -0.0663,0.623009 z"
           style="fill:#27585d;stroke-width:0.33138791"
           inkscape:connector-curvature="0" />
      </g>
    </g>
  </g>
</svg>
