<?xml version="1.0" encoding="UTF-8" standalone="no"?>
<svg
   xmlns:dc="http://purl.org/dc/elements/1.1/"
   xmlns:cc="http://creativecommons.org/ns#"
   xmlns:rdf="http://www.w3.org/1999/02/22-rdf-syntax-ns#"
   xmlns:svg="http://www.w3.org/2000/svg"
   xmlns="http://www.w3.org/2000/svg"
   xmlns:xlink="http://www.w3.org/1999/xlink"
   xmlns:sodipodi="http://sodipodi.sourceforge.net/DTD/sodipodi-0.dtd"
   xmlns:inkscape="http://www.inkscape.org/namespaces/inkscape"
   id="Layer_1"
   data-name="Layer 1"
   viewBox="0 0 800.00001 600.00001"
   version="1.1"
   sodipodi:docname="tree.svg"
   width="800"
   height="600"
   inkscape:version="0.92.3 (2405546, 2018-03-11)">
  <metadata
     id="metadata130">
    <rdf:RDF>
      <cc:Work
         rdf:about="">
        <dc:format>image/svg+xml</dc:format>
        <dc:type
           rdf:resource="http://purl.org/dc/dcmitype/StillImage" />
        <dc:title>Team Meeting Online</dc:title>
      </cc:Work>
    </rdf:RDF>
  </metadata>
  <sodipodi:namedview
     pagecolor="#ffffff"
     bordercolor="#666666"
     borderopacity="1"
     objecttolerance="10"
     gridtolerance="10"
     guidetolerance="10"
     inkscape:pageopacity="0"
     inkscape:pageshadow="2"
     inkscape:window-width="1920"
     inkscape:window-height="1010"
     id="namedview128"
     showgrid="false"
     inkscape:zoom="1.3583333"
     inkscape:cx="415.8003"
     inkscape:cy="278.89982"
     inkscape:window-x="0"
     inkscape:window-y="0"
     inkscape:window-maximized="1"
     inkscape:current-layer="layer2" />
  <defs
     id="defs41">
    <linearGradient
       inkscape:collect="always"
       id="linearGradient1067">
      <stop
         style="stop-color:#660080;stop-opacity:1;"
         offset="0"
         id="stop1063" />
      <stop
         style="stop-color:#660080;stop-opacity:0;"
         offset="1"
         id="stop1065" />
    </linearGradient>
    <linearGradient
       inkscape:collect="always"
       id="linearGradient1057">
      <stop
         style="stop-color:#8800aa;stop-opacity:1;"
         offset="0"
         id="stop1053" />
      <stop
         style="stop-color:#8800aa;stop-opacity:0;"
         offset="1"
         id="stop1055" />
    </linearGradient>
    <linearGradient
       inkscape:collect="always"
       id="linearGradient1033">
      <stop
         style="stop-color:#0055d4;stop-opacity:1;"
         offset="0"
         id="stop1029" />
      <stop
         style="stop-color:#0055d4;stop-opacity:0;"
         offset="1"
         id="stop1031" />
    </linearGradient>
    <linearGradient
       id="linear-gradient"
       x1="363.66"
       y1="140.53999"
       x2="382.20001"
       y2="140.53999"
       gradientUnits="userSpaceOnUse">
      <stop
         offset="0"
         stop-color="#e5c5d5"
         id="stop2" />
      <stop
         offset="0.42"
         stop-color="#ead4d1"
         id="stop4" />
      <stop
         offset="1"
         stop-color="#f0e9cb"
         id="stop6" />
    </linearGradient>
    <linearGradient
       id="linear-gradient-2"
       x1="373.97"
       y1="130.06"
       x2="374.03"
       y2="155.23"
       gradientUnits="userSpaceOnUse">
      <stop
         offset="0"
         stop-opacity="0"
         id="stop9" />
      <stop
         offset="0.99"
         id="stop11" />
    </linearGradient>
    <linearGradient
       id="linear-gradient-3"
       x1="358.42001"
       y1="116.8"
       x2="389.32999"
       y2="116.8"
       xlink:href="#linear-gradient"
       gradientTransform="matrix(1.7004975,0,0,1.7004975,-18.202613,-13.301429)" />
    <linearGradient
       id="linear-gradient-4"
       x1="395.76999"
       y1="132.8"
       x2="409.31"
       y2="132.8"
       xlink:href="#linear-gradient"
       gradientTransform="matrix(1.7004975,0,0,1.7004975,-18.202613,-13.301429)" />
    <linearGradient
       id="linear-gradient-5"
       x1="111.04"
       y1="135.64999"
       x2="137.83"
       y2="135.64999"
       xlink:href="#linear-gradient"
       gradientTransform="matrix(1.7004975,0,0,1.7004975,-18.202613,-13.301429)" />
    <linearGradient
       id="linear-gradient-6"
       x1="114.57"
       y1="156.41"
       x2="127.69"
       y2="156.41"
       xlink:href="#linear-gradient"
       gradientTransform="matrix(1.7004975,0,0,1.7004975,-18.202613,-13.301429)" />
    <linearGradient
       id="linear-gradient-7"
       x1="1101.78"
       y1="437.20001"
       x2="1114.89"
       y2="437.20001"
       gradientTransform="rotate(-11.04,-1023.6807,4614.0575)"
       gradientUnits="userSpaceOnUse">
      <stop
         offset="0"
         stop-color="#867580"
         id="stop18" />
      <stop
         offset="0.57"
         stop-color="#9b8f8e"
         id="stop20" />
    </linearGradient>
    <linearGradient
       id="linear-gradient-8"
       x1="269.10999"
       y1="94.300003"
       x2="269.70001"
       y2="124.43"
       xlink:href="#linear-gradient-2"
       gradientTransform="matrix(1.7004975,0,0,1.7004975,-18.202613,-13.301429)" />
    <linearGradient
       id="linear-gradient-9"
       x1="254.67"
       y1="84.18"
       x2="284.26001"
       y2="84.18"
       xlink:href="#linear-gradient-7"
       gradientTransform="matrix(1.7004975,0,0,1.7004975,-18.202613,-13.301429)" />
    <linearGradient
       id="linear-gradient-10"
       x1="172.49001"
       y1="317.19"
       x2="174.85001"
       y2="2.3699999"
       gradientUnits="userSpaceOnUse"
       gradientTransform="matrix(1.7004975,0,0,1.7004975,79.984113,11.882939)">
      <stop
         offset="0.02"
         stop-color="#fff"
         stop-opacity="0"
         id="stop25" />
      <stop
         offset="0.32"
         stop-color="#fff"
         stop-opacity="0.39"
         id="stop27" />
      <stop
         offset="0.68"
         stop-color="#fff"
         stop-opacity="0.68"
         id="stop29" />
      <stop
         offset="1"
         stop-color="#fff"
         id="stop31" />
    </linearGradient>
    <linearGradient
       id="linear-gradient-11"
       x1="262.37"
       y1="289.67001"
       x2="285.06"
       y2="257.04999"
       xlink:href="#linear-gradient-2"
       gradientTransform="matrix(1.7004975,0,0,1.7004975,-18.202613,-13.301429)" />
    <linearGradient
       id="linear-gradient-12"
       x1="213.17999"
       y1="290.12"
       x2="170.32001"
       y2="266.79999"
       xlink:href="#linear-gradient-2"
       gradientTransform="matrix(1.7004975,0,0,1.7004975,-18.202613,-13.301429)" />
    <linearGradient
       id="linear-gradient-13"
       x1="155.13"
       y1="285.17001"
       x2="205.92"
       y2="285.17001"
       xlink:href="#linear-gradient"
       gradientTransform="matrix(1.7004975,0,0,1.7004975,-18.202613,-13.301429)" />
    <linearGradient
       id="linear-gradient-14"
       x1="259.81"
       y1="286.07001"
       x2="309.45999"
       y2="286.07001"
       xlink:href="#linear-gradient"
       gradientTransform="matrix(1.7004975,0,0,1.7004975,-18.202613,-13.301429)" />
    <linearGradient
       id="linear-gradient-15"
       x1="221.60001"
       y1="264.87"
       x2="244.73"
       y2="264.87"
       xlink:href="#linear-gradient"
       gradientTransform="matrix(1.7004975,0,0,1.7004975,-18.202613,-13.301429)" />
    <linearGradient
       id="linear-gradient-16"
       x1="213.38"
       y1="243.03999"
       x2="252.09"
       y2="243.03999"
       xlink:href="#linear-gradient"
       gradientTransform="matrix(1.7004975,0,0,1.7004975,-18.202613,-13.301429)" />
    <linearGradient
       id="linear-gradient-17"
       x1="225.67999"
       y1="257.5"
       x2="241.05"
       y2="257.5"
       xlink:href="#linear-gradient"
       gradientTransform="matrix(1.7004975,0,0,1.7004975,-18.202613,-13.301429)" />
    <linearGradient
       inkscape:collect="always"
       xlink:href="#linearGradient1033"
       id="linearGradient1035"
       x1="-17.132387"
       y1="424.97635"
       x2="233.00258"
       y2="177.6144"
       gradientUnits="userSpaceOnUse" />
    <linearGradient
       inkscape:collect="always"
       xlink:href="#linearGradient1057"
       id="linearGradient1059"
       x1="491.94666"
       y1="64.20594"
       x2="298.89139"
       y2="259.29797"
       gradientUnits="userSpaceOnUse" />
    <linearGradient
       inkscape:collect="always"
       xlink:href="#linearGradient1067"
       id="linearGradient1069"
       x1="662.3476"
       y1="136.62926"
       x2="532.60529"
       y2="300.06485"
       gradientUnits="userSpaceOnUse" />
  </defs>
  <title
     id="title43">Team Meeting Online</title>
  <g
     inkscape:groupmode="layer"
     id="layer1"
     inkscape:label="Layer 1"
     style="display:inline">
    <path
       d="m 711.5999,379.66652 c -4.01317,20.11689 -102.64203,124.13632 -191.56104,174.45404 v 0 c -17.63416,9.96492 -34.87721,17.82121 -50.9299,22.48058 -59.02427,17.09 -140.39966,1.9035 -196.68613,-4.77946 -24.92929,-2.95886 -44.55303,-6.20681 -54.41592,-7.97533 -6.90402,-1.25837 -28.39622,-4.87802 -28.39622,-4.87802 -25.50746,-3.26495 -28.27478,-5.86807 -44.34448,-25.84891 -16.0697,-19.98085 -26.76583,-43.66878 -37.29191,-67.06763 -9.709839,-21.63032 -19.504704,-43.48172 -24.147063,-66.72752 -3.48602,-17.51512 -3.945154,-35.47238 -3.860129,-53.31059 0.221065,-41.76422 4.404289,-86.23223 29.996772,-119.22188 28.90846,-37.17288 78.54598,-51.72912 111.90974,-84.90583 18.7905,-18.70547 31.61225,-42.512434 49.05936,-62.45927 21.03515,-24.045035 48.36215,-41.866249 77.16857,-55.708298 14.11413,-6.80199 29.31658,-12.804746 44.94415,-11.716428 4.91738,0.403436 9.77577,1.344322 14.48824,2.805821 30.09881,8.876597 52.12025,34.24802 58.49712,64.993014 7.5332,36.407651 36.37364,84.497721 128.01345,116.637111 164.96526,57.86793 122.3678,159.11555 117.55539,183.2286 z"
       style="opacity:1;isolation:isolate;fill:#939dac;stroke-width:1.70049751"
       id="path45"
       inkscape:connector-curvature="0"
       sodipodi:nodetypes="cccccccscccccccccccc" />
  </g>
  <g
     inkscape:groupmode="layer"
     id="layer4"
     inkscape:label="Layer 3"
     style="display:inline">
    <rect
       x="552.65436"
       y="137.1926"
       width="125.71778"
       height="140.22302"
       rx="17.498119"
       style="display:inline;opacity:1;isolation:isolate;fill:#5500d4;stroke-width:1.70049751"
       id="rect47" />
    <path
       transform="matrix(1.7004975,0,0,1.7792953,79.984113,-2.1013014)"
       style="display:inline;fill:#68e1fd"
       d="M 212.59664,147.63 H 172.76 v 29.84 h -1.45 v -31.29 h 39.83664 v -34.11 h 1.45 z"
       id="polygon91"
       inkscape:connector-curvature="0"
       sodipodi:nodetypes="ccccccccc" />
    <rect
       x="376.3638"
       y="59.61591"
       width="125.71778"
       height="140.22302"
       rx="17.498119"
       style="display:inline;opacity:1;isolation:isolate;fill:#4400aa;stroke-width:1.70049751"
       id="rect73" />
    <polygon
       points="305.75,168.57 305.75,156.99 307.2,156.99 307.2,170.03 187.34,170.03 187.34,175.34 185.88,175.34 185.88,168.57 "
       id="polygon93"
       style="display:inline;fill:#68e1fd"
       transform="matrix(1.7004975,0,0,1.7004975,79.984113,11.882939)" />
    <polygon
       points="65.39,171.8 65.39,161.48 66.84,161.48 66.84,170.35 159.25,170.35 159.25,177.12 157.8,177.12 157.8,171.8 "
       id="polygon95"
       style="display:inline;fill:#68e1fd"
       transform="matrix(1.7004975,0,0,1.7004975,79.984113,11.882939)" />
    <rect
       x="133.78786"
       y="145.0489"
       width="125.71778"
       height="140.22302"
       rx="17.498119"
       style="display:inline;opacity:1;isolation:isolate;fill:#8800aa;stroke-width:1.70049751"
       id="rect49" />
    <rect
       id="rect1027"
       style="display:inline;opacity:1;isolation:isolate;fill:url(#linearGradient1035);fill-opacity:1;stroke-width:1.70049751"
       rx="17.498119"
       height="140.22302"
       width="125.71778"
       y="145.04889"
       x="133.78786" />
    <rect
       id="rect1043"
       style="display:inline;opacity:1;isolation:isolate;fill:url(#linearGradient1059);fill-opacity:1;stroke-width:1.70049751"
       rx="17.498119"
       height="140.22302"
       width="125.71778"
       y="59.61591"
       x="376.3638" />
    <rect
       id="rect1061"
       style="display:inline;opacity:1;isolation:isolate;fill:url(#linearGradient1069);fill-opacity:1;stroke-width:1.70049751"
       rx="17.498119"
       height="140.22302"
       width="125.71778"
       y="137.1926"
       x="552.65436" />
  </g>
  <g
     inkscape:groupmode="layer"
     id="layer2"
     inkscape:label="Layer 2"
     style="display:inline">
    <path
       d="m 314.53373,310.66035 h 119.2729 a 18.518418,18.518418 0 0 1 18.58644,18.50141 v 171.54619 a 16.800915,16.800915 0 0 1 -16.80092,16.80092 H 313.97257 A 17.634159,17.634159 0 0 1 296.33841,499.92572 V 328.85567 a 18.195323,18.195323 0 0 1 18.19532,-18.19532 z"
       id="path99"
       inkscape:connector-curvature="0"
       style="display:inline;fill:#00112b;stroke-width:1.70049751" />
    <rect
       x="303.63354"
       y="326.96808"
       width="141.43037"
       height="165.56044"
       id="rect101"
       style="display:inline;fill:#ffffff;stroke-width:1.70049751" />
    <path
       d="m 427.97392,432.501 a 63.258507,63.258507 0 0 1 3.401,15.62757 c 0.74822,6.01976 1.44542,12.05653 1.70049,18.1273 0.37411,8.11137 0,16.29077 1.44543,24.30011 1.44542,8.00934 4.7954,16.01869 11.22328,20.98414 a 3.400995,3.400995 0 0 0 2.92486,0.96928 c 1.10532,-0.3401 1.59846,-1.61547 1.90455,-2.7378 3.82612,-14.47123 -0.3401,-29.65667 -2.34668,-44.48501 a 191.44201,191.44201 0 0 0 -2.87384,-19.45369 59.823502,59.823502 0 0 0 -4.67637,-12.80475 29.707691,29.707691 0 0 0 -6.35986,-8.92761 c -1.58147,-1.42842 -7.8563,-5.88372 -9.84588,-3.50303 -1.98959,2.3807 2.60176,9.65883 3.50302,11.90349 z"
       id="path105"
       inkscape:connector-curvature="0"
       style="display:inline;fill:url(#linear-gradient-11);stroke-width:1.70049751" />
    <path
       d="m 320.80857,458.80769 a 91.146666,91.146666 0 0 0 -0.61218,12.00551 v 18.70548 a 39.672607,39.672607 0 0 1 -0.93527,10.20298 23.806965,23.806965 0 0 1 -11.90349,14.23317 5.1014925,5.1014925 0 0 1 -2.32968,0.74821 c -2.02359,0 -3.40099,-2.12562 -4.08119,-4.01317 -4.25125,-10.56009 -4.72738,-22.2085 -4.48932,-33.56782 0.23807,-11.35932 1.15634,-22.80367 -0.52715,-34.00995 a 8.2984278,8.2984278 0 0 1 0.15305,-4.60835 7.8392935,7.8392935 0 0 1 3.70708,-3.21394 l 17.56614,-9.35273 c 3.52003,-1.88756 11.56338,-14.3352 13.97809,-8.68955 1.81953,4.21724 -4.20023,20.09988 -5.62865,24.09605 a 90.517482,90.517482 0 0 0 -4.89743,17.46411 z"
       id="path107"
       inkscape:connector-curvature="0"
       style="display:inline;fill:url(#linear-gradient-12);stroke-width:1.70049751" />
    <path
       d="m 289.26434,522.83142 a 58.837214,58.837214 0 0 0 21.39226,-28.39831 c 6.95503,-19.8278 3.17993,-42.98857 13.80804,-61.11588 2.55074,-4.35327 5.93473,-8.36644 7.14209,-13.26388 1.20735,-4.89743 -0.74822,-11.15526 -5.64565,-12.39662 -4.89744,-1.24137 -9.52279,3.14592 -12.82175,7.14209 l -16.88594,20.40597 c -0.20406,-1.7005 -0.20406,-18.00827 0,-23.43286 -17.36208,0.85025 -32.63255,14.93037 -36.93481,31.7823 a 78.562984,78.562984 0 0 0 -1.90456,19.04557 c 0,6.63194 0.20406,13.28089 0.59518,19.91283 a 75.485084,75.485084 0 0 1 0,12.85576 c -1.41142,12.05653 -9.04665,22.44657 -12.26059,34.14599 a 2.2106468,2.2106468 0 0 0 0,1.47943 2.2616617,2.2616617 0 0 0 1.05431,0.93527 c 4.98246,2.65278 10.79816,3.16293 16.44381,3.401 5.64565,0.23807 11.73343,0.44213 17.61715,0.39111 a 6.9040198,6.9040198 0 0 0 3.28196,-0.56116 c 2.0406,-1.08832 2.49973,-3.7751 2.7208,-6.08778"
       id="path109"
       inkscape:connector-curvature="0"
       style="display:inline;fill:url(#linear-gradient-13);stroke-width:1.70049751" />
    <path
       d="m 446.76442,505.23127 c -11.37633,-21.47728 -5.18652,-48.95732 -16.32478,-70.55364 -2.83983,-5.4926 -6.80199,-10.84917 -6.80199,-17.00497 a 4.1832238,4.1832238 0 0 1 5.67966,-4.50632 c 9.36975,1.49644 14.47124,11.90348 22.93972,16.18874 l -0.62919,-16.08671 a 47.88601,47.88601 0 0 1 26.47675,12.51566 32.088388,32.088388 0 0 1 7.8563,10.73014 40.91397,40.91397 0 0 1 2.66978,13.80804 c 0.62918,11.24029 -0.28909,22.5486 0.49314,33.77188 0.78223,11.22328 3.401,22.75266 10.39004,31.62925 3.7581,4.81241 8.96162,9.5738 8.50249,15.64458 a 2.040597,2.040597 0 0 1 -0.42513,1.29238 2.2956716,2.2956716 0 0 1 -1.70049,0.49314 q -10.03294,0.10203 -20.04887,-0.15304 c -5.54362,-0.15305 -15.96767,1.3604 -20.98414,-0.95228 -3.58805,-1.7005 -5.73067,-8.50249 -8.1964,-12.03952 a 154.38817,154.38817 0 0 1 -9.89689,-14.77733 z"
       id="path111"
       inkscape:connector-curvature="0"
       style="display:inline;fill:url(#linear-gradient-14);stroke-width:1.70049751" />
    <path
       d="m 273.22206,568.59074 c -0.23807,1.0543 -0.47614,2.15963 -0.79923,3.23094 -24.9293,-2.95886 -44.55304,-6.20681 -54.41592,-7.97533 a 28.160239,28.160239 0 0 1 2.3977,-9.8969 216.54135,216.54135 0 0 1 12.9918,-26.54476 13.110836,13.110836 0 0 1 5.10149,-5.73068 13.60398,13.60398 0 0 1 7.32915,-0.49314 c 9.84588,1.17334 34.62213,0.79923 39.21347,12.24358 3.60505,8.79157 -9.77786,25.67751 -11.81846,35.16629 z"
       id="path123"
       inkscape:connector-curvature="0"
       style="display:inline;fill:#000080;stroke-width:1.70049751" />
    <path
       d="m 521.50128,551.26374 a 6.1558009,6.1558009 0 0 1 -1.46242,2.83983 v 0 c -17.63416,9.96492 -34.87721,17.82122 -50.9299,22.48058 a 6.0197611,6.0197611 0 0 1 -1.30939,-2.58476 q -5.42458,-17.19203 -10.84917,-34.41807 c -1.20735,-3.87713 -2.32968,-8.50248 0,-11.75043 2.32968,-3.24795 7.48219,-3.70709 11.75044,-3.60506 10.73014,0 28.36429,-2.55075 38.41424,1.07131 9.11466,3.29897 10.32201,13.41693 13.60398,22.10647 a 7.7202586,7.7202586 0 0 1 0.78222,3.86013 z"
       id="path125"
       inkscape:connector-curvature="0"
       style="display:inline;fill:#000080;stroke-width:1.70049751" />
  </g>
</svg>
