<?xml version="1.0" standalone="no"?>
<!DOCTYPE svg PUBLIC "-//W3C//DTD SVG 20010904//EN"
 "http://www.w3.org/TR/2001/REC-SVG-20010904/DTD/svg10.dtd">
<svg version="1.0" xmlns="http://www.w3.org/2000/svg"
 width="640.000000pt" height="640.000000pt" viewBox="0 0 640.000000 640.000000"
 preserveAspectRatio="xMidYMid meet">

<g transform="translate(0.000000,640.000000) scale(0.100000,-0.100000)"
fill="#000000" stroke="none">
<path d="M2387 5110 c-14 -11 -30 -35 -36 -53 -21 -69 -93 -478 -87 -500 10
-40 45 -76 84 -86 20 -5 63 -15 94 -21 l57 -11 16 -57 c22 -73 62 -150 123
-237 75 -106 141 -174 275 -282 173 -140 197 -157 575 -413 l152 -103 -5 -81
c-7 -95 -23 -238 -31 -280 l-6 -30 -17 30 c-17 32 -127 167 -197 241 -71 74
-82 69 -289 -122 -55 -51 -115 -105 -132 -120 -26 -21 -33 -34 -33 -64 0 -33
12 -52 96 -152 161 -193 173 -199 253 -124 26 25 51 45 54 45 10 0 127 -121
127 -132 0 -5 -8 -22 -18 -36 -10 -15 -23 -38 -30 -52 -27 -53 -84 -121 -122
-146 -85 -56 -151 -29 -280 118 -123 139 -318 385 -341 430 -19 37 -30 131
-17 144 3 3 24 -4 47 -15 50 -26 91 -27 117 -3 10 10 55 88 99 174 71 138 79
159 70 184 -9 25 -38 43 -210 127 -110 55 -214 101 -231 104 -45 8 -72 -23
-158 -180 -53 -97 -76 -148 -76 -172 0 -19 -3 -35 -7 -35 -5 0 -67 58 -139
128 -106 103 -137 140 -164 195 l-33 68 22 102 c13 56 25 109 27 118 3 12 30
17 133 25 106 8 134 13 152 29 37 34 50 78 44 152 -4 38 -10 147 -14 243 -8
192 -15 216 -73 246 -27 14 -61 14 -326 0 -385 -21 -378 -20 -420 -62 l-35
-35 7 -172 c12 -302 16 -345 42 -383 26 -39 21 -41 -50 -19 -68 21 -119 19
-140 -3 -9 -11 -43 -118 -76 -240 -77 -281 -77 -281 90 -327 52 -14 119 -35
148 -46 103 -38 139 -21 166 77 9 33 24 84 34 114 17 54 18 55 52 52 19 -2 46
-10 60 -17 24 -13 181 -152 399 -354 172 -159 379 -406 489 -581 53 -85 182
-319 182 -331 0 -13 -23 -11 -98 10 -193 54 -363 158 -483 297 l-41 47 24 21
c13 12 47 39 76 61 54 40 82 79 82 112 0 17 -35 82 -49 93 -4 3 -29 34 -56 70
-27 36 -52 67 -55 70 -3 3 -17 21 -32 42 -60 80 -94 108 -129 108 -19 0 -46
-8 -61 -18 -34 -21 -365 -283 -401 -316 -37 -34 -43 -68 -21 -110 22 -41 216
-288 253 -323 49 -44 81 -34 206 66 l56 44 82 -81 c106 -106 180 -160 297
-220 117 -60 202 -89 328 -111 l97 -17 27 -54 c57 -117 60 -142 33 -276 -25
-125 -73 -297 -125 -448 -16 -50 -30 -98 -30 -108 0 -10 15 -34 33 -53 28 -31
42 -37 122 -51 123 -22 313 -20 385 3 47 15 58 24 74 57 19 38 19 42 2 125
-75 363 -94 625 -56 754 11 36 18 41 170 117 88 44 166 80 173 80 8 0 51 -41
97 -90 86 -95 108 -108 153 -91 42 16 276 230 283 258 4 14 2 34 -3 46 -15 33
-313 338 -340 348 -36 13 -69 -5 -162 -89 -166 -150 -171 -156 -171 -192 0
-21 8 -43 22 -57 12 -13 20 -25 17 -27 -16 -14 -172 -86 -178 -81 -5 3 5 50
22 105 31 97 35 104 102 171 65 66 164 141 248 188 115 64 279 114 418 127
l74 6 48 -51 c27 -28 56 -51 65 -51 24 0 57 24 150 109 63 57 82 81 82 101 0
19 -31 61 -114 155 -63 72 -124 134 -135 139 -14 6 -28 4 -46 -8 -51 -33 -194
-167 -200 -187 -4 -11 0 -30 9 -44 23 -34 20 -45 -11 -45 -78 -1 -281 -70
-400 -136 -35 -20 -66 -34 -69 -31 -18 18 191 220 340 328 44 32 99 72 121 88
43 31 212 128 232 133 7 2 29 -26 50 -61 58 -99 66 -100 242 -10 234 119 236
123 160 273 -193 378 -185 371 -318 302 -249 -128 -265 -139 -263 -196 0 -16
13 -50 28 -77 46 -82 54 -98 54 -111 0 -7 -94 -74 -210 -150 -321 -210 -330
-215 -375 -216 -60 -1 -71 27 -68 189 6 321 20 621 32 645 7 14 26 34 44 46
35 23 231 104 251 104 7 0 80 -34 162 -76 162 -84 206 -94 257 -60 19 13 59
81 136 235 60 119 110 225 111 236 5 45 -1 66 -27 94 -39 42 -589 321 -632
321 -36 0 -82 -23 -98 -49 -40 -64 -223 -444 -223 -463 0 -39 37 -87 85 -110
25 -12 45 -27 45 -32 0 -6 -42 -30 -93 -54 -119 -55 -157 -56 -204 -6 l-34 37
59 61 c33 34 63 70 66 81 9 30 -10 59 -127 197 -115 136 -139 152 -186 122
-20 -14 -250 -216 -319 -281 -23 -22 -31 -67 -16 -99 23 -51 217 -267 246
-275 34 -9 65 7 136 72 l57 52 62 -68 c66 -72 103 -148 123 -254 13 -67 13
-231 1 -231 -5 0 -22 10 -38 23 -15 13 -95 70 -178 127 -530 367 -671 495
-766 695 -33 69 -36 80 -21 83 9 1 88 -11 175 -28 87 -16 168 -30 180 -30 33
0 82 34 95 66 15 38 94 450 94 490 0 39 -26 80 -62 99 -15 8 -74 23 -131 34
-530 103 -548 105 -592 71z m188 -96 c120 -21 117 -20 105 -44 -24 -47 -27
-56 -23 -67 8 -23 18 -14 19 18 2 43 12 48 77 36 61 -11 62 -13 47 -66 -7 -25
-7 -32 1 -24 6 6 19 9 28 6 12 -4 11 -2 -3 9 -15 12 -16 18 -7 36 9 16 8 24
-6 38 -16 16 -16 16 2 11 11 -3 73 -16 139 -28 l119 -22 -6 -57 c-4 -31 -20
-125 -37 -210 -16 -84 -30 -162 -30 -172 0 -38 10 -39 -410 42 -80 15 -162 31
-182 34 -21 4 -40 11 -44 17 -3 6 13 111 37 235 50 257 30 233 174 208z m202
-40 c-3 -3 -12 -4 -19 -1 -8 3 -5 6 6 6 11 1 17 -2 13 -5z m1363 -334 l75 -39
-50 -1 c-132 -2 -245 -114 -245 -243 0 -40 8 -69 30 -113 16 -32 28 -59 27
-61 -4 -4 -120 58 -135 72 -11 10 4 48 90 219 67 134 108 206 118 206 8 -1 49
-19 90 -40z m81 -81 c84 -26 148 -110 149 -196 0 -24 -2 -43 -5 -43 -3 0 -23
9 -43 19 -25 13 -38 27 -39 41 -4 52 -72 110 -129 110 -37 0 -93 -36 -112 -70
-16 -32 -10 -116 11 -137 12 -12 13 -22 6 -41 -5 -14 -8 -27 -5 -29 7 -7 310
-150 334 -157 17 -6 23 1 41 49 12 31 30 74 41 95 28 55 26 64 -22 81 l-43 16
-6 70 c-5 70 -34 138 -65 156 -8 4 -14 12 -14 17 0 9 239 -107 274 -133 19
-14 16 -22 -83 -221 -57 -113 -109 -206 -116 -206 -21 0 -307 149 -331 173
-12 12 -38 37 -58 55 -82 77 -73 250 18 315 62 44 129 56 197 36z m-731 -175
c52 -63 96 -118 98 -122 4 -12 -305 -287 -322 -287 -15 0 -205 224 -206 242 0
18 309 293 323 287 6 -3 55 -57 107 -120z m735 59 c13 -10 29 -31 34 -46 10
-26 9 -28 -12 -21 -12 3 -39 15 -60 26 -21 10 -41 16 -46 14 -5 -3 -19 -32
-31 -63 -31 -77 -35 -81 -55 -43 -53 103 74 203 170 133z m-1994 -108 c4 -44
10 -150 14 -236 l8 -157 -84 -6 c-119 -10 -162 -13 -363 -26 -122 -9 -181 -9
-188 -2 -10 10 -41 448 -33 462 4 7 80 14 248 25 53 3 57 2 40 -11 -16 -13
-15 -13 10 -4 44 16 108 11 155 -10 33 -15 47 -29 62 -62 11 -24 20 -36 20
-27 0 27 -43 81 -77 98 -18 9 -33 19 -33 23 0 7 117 15 185 14 l30 -1 6 -80z
m1982 21 c26 -10 47 -25 47 -33 0 -8 5 -11 10 -8 17 10 79 -15 91 -37 7 -14
14 -17 21 -10 7 7 21 6 43 -5 33 -16 33 -16 20 -53 -15 -43 -53 -120 -60 -120
-2 0 -63 27 -135 60 -72 33 -135 60 -140 60 -22 0 -19 24 12 95 18 41 35 74
38 73 3 -2 26 -11 53 -22z m-2339 -544 c5 -9 -38 -209 -47 -219 -4 -3 -21 -2
-39 4 -33 9 -33 10 -30 62 4 66 -17 92 -94 117 -30 9 -52 20 -49 23 4 3 45 8
93 12 137 9 160 10 166 1z m-317 -68 c58 -19 113 -34 120 -34 8 0 16 -6 19
-14 6 -15 -93 -405 -107 -420 -6 -7 -63 8 -261 71 -33 10 -48 20 -48 32 0 14
89 352 105 399 6 17 28 12 172 -34z m3198 -188 c100 -191 100 -192 46 -219
-14 -7 -72 -37 -129 -66 -57 -29 -108 -51 -115 -48 -7 3 -26 31 -42 63 -16 33
-60 116 -97 186 -37 70 -68 132 -68 138 0 6 15 17 33 25 17 8 82 41 142 75
102 56 111 59 123 43 8 -10 56 -99 107 -197z m-2031 -121 c98 -46 183 -88 188
-93 6 -6 -15 -55 -56 -132 -36 -67 -68 -131 -71 -141 -4 -11 -15 -19 -25 -19
-20 0 -390 175 -390 184 0 5 57 113 117 224 19 34 39 62 46 62 7 0 93 -38 191
-85z m625 -272 l31 -37 -21 -22 c-11 -12 -19 -29 -17 -38 4 -22 -113 -130
-124 -113 -21 33 9 87 49 87 27 0 47 32 31 48 -19 19 -48 14 -48 -8 0 -11 -13
-34 -29 -52 -25 -28 -27 -35 -18 -65 13 -41 -1 -55 -45 -46 -32 6 -78 -27 -78
-57 0 -31 39 -70 70 -70 38 0 73 43 65 80 -4 20 1 32 23 53 25 24 32 26 57 17
24 -9 31 -7 50 10 12 12 28 20 36 18 8 -2 15 7 17 20 4 26 -25 31 -35 5 -11
-28 -42 -53 -58 -47 -21 8 -19 14 17 51 19 20 42 33 57 33 13 0 32 7 41 15 16
14 20 12 52 -27 19 -24 37 -48 41 -54 7 -13 -297 -294 -317 -294 -15 0 -206
228 -206 246 0 15 298 284 316 284 7 0 26 -17 43 -37z m-917 -40 c43 -20 78
-42 78 -49 0 -20 -30 -25 -64 -9 -33 16 -117 95 -101 95 5 0 44 -16 87 -37z
m2113 -97 c58 -65 105 -122 105 -125 0 -10 -176 -161 -187 -160 -15 1 -208
227 -208 244 0 16 164 166 177 162 4 -1 55 -56 113 -121z m-1137 46 c3 -17 -2
-22 -17 -22 -16 0 -21 6 -21 26 0 33 33 30 38 -4z m-1221 -110 c29 -37 79
-101 113 -142 33 -41 60 -78 60 -81 0 -10 -337 -288 -389 -321 l-28 -18 -54
67 c-30 37 -65 83 -78 103 -14 19 -30 40 -36 45 -23 20 -65 82 -65 97 0 8 20
29 45 47 24 17 50 37 57 44 7 7 42 35 78 62 36 27 100 77 142 112 43 34 84 60
90 57 7 -3 36 -35 65 -72z m1398 -69 c-14 -65 -58 -193 -67 -193 -11 0 -24 13
-57 55 l-23 30 74 67 c40 37 74 68 76 68 1 0 0 -12 -3 -27z m-405 -18 c6 -8 9
-23 5 -35 -5 -17 -13 -20 -38 -18 -21 2 -33 9 -35 21 -8 39 42 63 68 32z
m1050 -611 c0 -13 -194 -195 -222 -208 -17 -9 -40 10 -169 141 -92 93 -147
156 -144 165 3 7 15 20 27 27 20 12 24 11 52 -21 17 -19 57 -69 90 -111 32
-43 62 -77 67 -77 9 0 23 59 15 67 -3 4 -1 12 5 19 11 13 29 8 69 -22 8 -6 29
-16 46 -21 33 -12 60 1 58 27 -1 8 -2 21 -3 28 0 6 -10 12 -20 12 -11 0 -21 6
-23 12 -3 7 -11 13 -19 14 -29 2 -59 17 -59 29 0 7 12 20 26 30 41 27 22 34
-121 49 -80 8 -115 18 -108 30 5 7 37 39 73 71 l65 57 147 -153 c82 -85 148
-159 148 -165z m-365 140 c22 -2 49 -6 60 -9 11 -2 29 -4 39 -4 18 -1 18 -2 2
-19 -15 -18 -15 -20 5 -43 11 -13 27 -23 35 -21 8 2 14 -4 14 -13 0 -19 2 -19
-46 4 -36 18 -40 18 -46 3 -4 -9 -7 -27 -7 -39 -1 -21 -21 -34 -21 -14 0 5 -6
16 -13 23 -7 7 -36 44 -66 81 -52 67 -53 68 -25 62 16 -3 47 -8 69 -11z m195
-135 c0 -5 -4 -9 -10 -9 -5 0 -10 7 -10 16 0 8 5 12 10 9 6 -3 10 -10 10 -16z
m31 -12 c-1 -12 -15 -9 -19 4 -3 6 1 10 8 8 6 -3 11 -8 11 -12z"/>
<path d="M2604 4897 c-11 -6 -27 -22 -36 -37 -13 -22 -20 -26 -51 -22 -33 4
-37 2 -42 -24 -4 -16 -8 -34 -10 -41 -5 -15 13 -30 48 -38 15 -4 26 -9 23 -12
-9 -9 18 -67 41 -89 15 -14 23 -33 23 -53 0 -17 6 -33 13 -35 38 -12 67 -15
67 -7 0 5 -16 12 -36 16 -34 6 -36 8 -30 37 3 18 8 33 10 36 6 6 99 -8 114
-17 17 -10 4 -71 -15 -71 -8 0 -12 -4 -8 -10 9 -15 35 0 35 21 0 20 36 49 62
49 10 0 18 6 18 13 0 7 11 25 25 40 17 17 21 27 12 27 -8 0 -19 -11 -25 -25
-6 -14 -18 -25 -26 -25 -7 0 -16 -7 -20 -15 -7 -19 -32 -20 -39 -1 -8 20 -124
41 -143 25 -13 -10 -17 -10 -25 2 -5 8 -9 18 -9 22 0 5 -7 16 -16 24 -8 9 -13
24 -11 34 3 11 2 19 -1 20 -29 3 -58 11 -63 17 -4 4 -5 22 -2 40 l5 34 52 -7
c36 -4 47 -3 36 4 -12 8 -8 16 25 46 40 35 39 42 -1 22z"/>
<path d="M2850 4831 c0 -11 5 -23 10 -26 6 -3 10 -15 10 -26 0 -12 7 -19 19
-19 53 0 69 -42 30 -81 l-21 -21 23 4 c16 2 25 13 32 37 11 44 5 58 -32 66
-22 5 -33 14 -38 33 -3 15 -12 33 -20 40 -11 11 -13 10 -13 -7z"/>
<path d="M2618 4793 c5 -21 7 -23 10 -9 2 10 0 22 -6 28 -6 6 -7 0 -4 -19z"/>
<path d="M2828 4773 c6 -2 18 -2 25 0 6 3 1 5 -13 5 -14 0 -19 -2 -12 -5z"/>
<path d="M2602 4740 c-8 -13 -8 -20 -2 -20 6 0 13 7 17 15 9 24 -1 27 -15 5z"/>
<path d="M2801 4744 c0 -11 3 -14 6 -6 3 7 2 16 -1 19 -3 4 -6 -2 -5 -13z"/>
<path d="M2796 4695 c4 -8 16 -14 28 -14 16 1 17 2 4 6 -10 2 -18 9 -18 14 0
5 -4 9 -10 9 -5 0 -7 -7 -4 -15z"/>
<path d="M4141 4524 c0 -11 3 -14 6 -6 3 7 2 16 -1 19 -3 4 -6 -2 -5 -13z"/>
<path d="M4161 4524 c0 -11 3 -14 6 -6 3 7 2 16 -1 19 -3 4 -6 -2 -5 -13z"/>
<path d="M4266 4492 c-3 -5 1 -9 9 -9 8 0 12 4 9 9 -3 4 -7 8 -9 8 -2 0 -6 -4
-9 -8z"/>
<path d="M4003 4425 c0 -8 4 -12 9 -9 5 3 6 10 3 15 -9 13 -12 11 -12 -6z"/>
<path d="M4310 4396 c0 -2 7 -6 15 -10 8 -3 15 -1 15 4 0 6 -7 10 -15 10 -8 0
-15 -2 -15 -4z"/>
<path d="M3980 4326 c0 -2 7 -6 15 -10 8 -3 15 -1 15 4 0 6 -7 10 -15 10 -8 0
-15 -2 -15 -4z"/>
<path d="M4170 4117 c0 -8 9 -17 21 -20 15 -4 19 -1 17 11 -4 21 -38 29 -38 9z"/>
<path d="M1795 4340 c-3 -6 1 -7 9 -4 18 7 21 14 7 14 -6 0 -13 -4 -16 -10z"/>
<path d="M1765 4287 c-7 -17 -11 -45 -8 -60 4 -19 -1 -35 -13 -50 l-19 -22 23
19 c17 14 22 30 22 63 0 24 5 53 10 64 6 10 8 19 5 19 -3 0 -12 -15 -20 -33z"/>
<path d="M1900 4284 c0 -6 7 -19 16 -30 14 -18 14 -18 3 6 -14 31 -19 36 -19
24z"/>
<path d="M2110 4219 c0 -15 -13 -53 -30 -84 -17 -33 -30 -72 -30 -93 0 -28 -3
-33 -12 -24 -19 19 -87 14 -123 -8 -29 -18 -34 -19 -45 -4 -10 11 -23 14 -51
9 -34 -6 -37 -4 -47 24 -7 19 -7 31 -1 31 5 0 9 5 9 10 0 6 -6 10 -14 10 -9 0
-13 8 -10 23 4 22 4 22 -5 1 -6 -14 -6 -33 2 -55 20 -56 27 -62 62 -56 41 7
77 -15 58 -34 -7 -7 -13 -17 -13 -23 0 -5 15 5 32 23 58 59 122 65 168 16 27
-29 52 -34 26 -6 -10 11 -20 38 -23 60 -4 32 -1 49 18 79 39 60 50 91 39 110
-8 14 -9 13 -10 -9z"/>
<path d="M2035 4170 c3 -5 8 -10 11 -10 2 0 4 5 4 10 0 6 -5 10 -11 10 -5 0
-7 -4 -4 -10z"/>
<path d="M4213 4274 c-9 -24 23 -51 45 -38 19 13 23 45 5 51 -7 3 -9 -3 -6
-16 4 -15 1 -21 -12 -21 -12 0 -16 6 -12 20 6 24 -11 27 -20 4z"/>
<path d="M4312 4253 c-7 -3 -18 -16 -23 -30 -20 -54 53 -101 87 -55 19 25 17
49 -6 72 -20 20 -33 23 -58 13z m48 -54 c0 -12 -7 -19 -20 -19 -24 0 -38 29
-20 40 19 12 40 1 40 -21z"/>
<path d="M4488 3663 c-62 -36 -78 -51 -78 -69 0 -13 5 -24 10 -24 13 0 73 30
80 39 3 4 26 19 52 33 34 19 50 23 56 15 28 -37 73 -130 69 -141 -9 -22 31
-52 51 -40 27 17 26 49 -1 67 -13 9 -39 42 -57 74 -62 111 -70 113 -182 46z
m242 -158 c0 -8 -7 -15 -15 -15 -8 0 -15 7 -15 15 0 8 7 15 15 15 8 0 15 -7
15 -15z"/>
<path d="M4497 3559 l-47 -51 69 -118 c39 -65 77 -120 86 -124 11 -4 49 14
103 47 79 48 87 56 85 82 -1 15 -6 32 -11 37 -5 5 -47 -14 -96 -42 -48 -27
-90 -50 -95 -50 -4 0 -26 32 -49 72 -44 77 -43 104 5 92 16 -4 30 0 43 11 27
25 25 34 -7 32 -37 -3 -45 34 -11 51 l23 11 -25 0 c-17 0 -39 -15 -73 -50z
m219 -200 c9 -16 -21 -43 -41 -36 -13 5 -14 11 -5 27 12 22 35 26 46 9z"/>
<path d="M1945 885 c-82 -29 -95 -71 -95 -305 0 -206 7 -231 80 -267 53 -28
151 -31 226 -8 75 23 74 21 77 128 l3 97 -63 0 -63 0 0 -38 c0 -56 -24 -84
-68 -80 -56 5 -63 27 -60 196 3 129 5 145 22 158 46 33 106 3 106 -54 0 -22 3
-23 63 -20 l62 3 3 82 3 82 -67 20 c-77 24 -171 26 -229 6z"/>
<path d="M834 877 c-3 -8 -4 -60 -2 -118 l3 -104 53 -3 52 -3 0 45 c0 50 32
98 52 78 14 -14 7 -345 -8 -363 -16 -20 -26 -67 -19 -90 6 -17 17 -19 101 -19
l94 0 0 46 c0 27 -6 51 -15 60 -12 13 -15 48 -15 189 0 101 4 176 10 180 21
13 50 -34 50 -80 l0 -45 55 0 55 0 0 120 0 120 -230 0 c-183 0 -232 -3 -236
-13z"/>
<path d="M1360 841 c0 -34 4 -51 15 -55 21 -8 22 -327 1 -368 -8 -15 -16 -47
-18 -70 l-3 -43 208 -3 207 -2 0 100 0 101 -62 -3 c-62 -3 -62 -3 -69 -36 -9
-43 -10 -44 -69 -50 l-51 -5 3 74 3 74 78 0 77 0 0 47 0 47 -77 3 -78 3 0 60
c0 60 0 60 31 63 44 4 82 -13 86 -40 3 -21 9 -23 66 -26 l62 -3 0 91 0 90
-205 0 -205 0 0 -49z"/>
<path d="M2320 831 c0 -34 4 -51 15 -55 22 -8 22 -347 1 -369 -13 -12 -22 -66
-17 -104 1 -10 27 -13 96 -13 l95 0 0 45 c0 25 -7 56 -16 69 -10 17 -14 42
-12 83 l3 58 60 0 60 0 3 -58 c2 -41 -2 -66 -12 -83 -9 -13 -16 -44 -16 -69
l0 -45 95 0 95 0 0 44 c0 24 -7 57 -15 72 -21 39 -11 350 12 376 9 9 13 31 11
55 l-3 38 -97 3 -98 3 0 -50 c0 -35 4 -51 15 -55 13 -4 15 -19 13 -67 l-3 -62
-60 -1 -60 -1 1 64 c1 34 6 66 11 69 6 4 12 28 14 55 l4 47 -97 0 -98 0 0 -49z"/>
<path d="M2830 830 c0 -27 4 -50 10 -50 13 0 26 -53 61 -260 18 -102 36 -195
40 -208 8 -20 15 -22 83 -22 87 0 76 -18 107 169 15 85 26 127 30 115 4 -11
18 -77 31 -149 l23 -130 80 0 79 0 38 229 c24 142 44 236 53 246 9 10 15 36
15 63 l0 47 -85 0 -85 0 0 -50 c0 -27 5 -50 10 -50 14 0 12 -56 -5 -175 -8
-55 -15 -107 -16 -115 -2 -29 -18 44 -44 198 -35 211 -27 194 -88 190 l-52 -3
-35 -203 c-19 -115 -37 -195 -41 -185 -8 23 -39 233 -39 267 0 14 5 26 10 26
6 0 10 23 10 50 l0 50 -95 0 -95 0 0 -50z"/>
<path d="M3617 833 c-19 -128 -88 -428 -102 -443 -11 -12 -15 -32 -13 -61 l3
-44 88 -3 87 -3 0 49 c0 33 -5 54 -15 62 -9 7 -15 23 -13 34 3 19 10 21 63 21
53 0 60 -2 63 -21 2 -11 -4 -27 -13 -34 -10 -8 -15 -29 -15 -61 l0 -49 100 0
100 0 0 47 c0 26 -6 53 -14 62 -11 12 -106 438 -106 475 0 3 -47 6 -104 6
l-103 0 -6 -37z m118 -184 c21 -120 21 -119 -20 -119 -29 0 -35 4 -35 21 0 26
32 190 36 186 2 -2 11 -41 19 -88z"/>
<path d="M4010 825 c0 -29 6 -52 16 -62 13 -14 15 -42 12 -188 -3 -149 -5
-174 -21 -189 -13 -13 -17 -30 -15 -60 l3 -41 95 0 95 0 3 46 c2 32 -2 50 -13
59 -10 9 -15 30 -15 73 l0 60 46 -6 c26 -2 50 -11 55 -18 5 -8 9 -46 9 -85 0
-39 3 -86 6 -103 l7 -31 73 0 74 0 0 49 c0 28 -4 53 -10 56 -5 3 -10 28 -10
55 0 62 -14 98 -43 111 l-23 10 38 39 c36 36 38 41 38 101 0 75 -22 119 -72
146 -27 14 -63 18 -190 21 l-158 4 0 -47z m270 -85 c11 -11 20 -33 20 -50 0
-45 -31 -70 -85 -70 l-45 0 0 70 0 70 45 0 c32 0 51 -6 65 -20z"/>
<path d="M5145 863 c-35 -9 -87 -55 -101 -89 -28 -67 -9 -157 40 -189 14 -9
60 -32 103 -51 43 -18 84 -41 91 -51 21 -29 11 -75 -20 -93 -25 -13 -31 -13
-55 0 -19 10 -31 28 -37 53 l-10 37 -63 0 -63 0 0 -79 0 -78 62 -28 c47 -21
78 -28 132 -29 122 -2 188 51 202 160 13 105 -27 151 -181 211 -48 19 -69 32
-76 50 -16 42 12 73 66 73 27 0 55 -34 55 -67 0 -22 4 -23 65 -23 l66 0 -3 72
-3 73 -45 24 c-35 20 -61 25 -125 27 -44 2 -89 0 -100 -3z"/>
<path d="M4508 745 l-3 -115 51 0 51 0 7 46 c7 51 20 74 43 74 12 0 14 -29 11
-182 -2 -134 -6 -182 -15 -186 -8 -2 -13 -23 -13 -58 l0 -55 93 3 92 3 3 42
c2 26 -3 51 -13 67 -14 21 -16 51 -13 192 3 172 8 192 42 159 10 -11 16 -34
16 -66 l0 -50 53 3 52 3 3 118 3 117 -230 0 -230 0 -3 -115z"/>
</g>
</svg>
